<mxfile host="Electron" modified="2023-05-06T23:28:40.337Z" agent="Mozilla/5.0 (Windows NT 10.0; Win64; x64) AppleWebKit/537.36 (KHTML, like Gecko) draw.io/21.2.8 Chrome/112.0.5615.165 Electron/24.2.0 Safari/537.36" etag="fTMsZbvcMkKldWxPhUcv" version="21.2.8" type="device">
  <diagram name="Page-1" id="soSLIvL3w8zBOmjOyrvq">
    <mxGraphModel dx="5790" dy="4840" grid="0" gridSize="10" guides="1" tooltips="1" connect="1" arrows="1" fold="1" page="0" pageScale="1" pageWidth="850" pageHeight="1100" math="0" shadow="0">
      <root>
        <mxCell id="0" />
        <mxCell id="1" parent="0" />
        <mxCell id="Pm54L190ve_4c7_TmMwI-1" value="APP_startProgram" style="text;whiteSpace=wrap;html=1;fontSize=16;" vertex="1" parent="1">
          <mxGeometry x="-2969.75" y="-2746" width="161" height="41" as="geometry" />
        </mxCell>
        <mxCell id="Pm54L190ve_4c7_TmMwI-5" style="edgeStyle=none;curved=1;rounded=0;orthogonalLoop=1;jettySize=auto;html=1;entryX=0.5;entryY=0;entryDx=0;entryDy=0;entryPerimeter=0;fontSize=12;startSize=8;endSize=8;" edge="1" parent="1" source="Pm54L190ve_4c7_TmMwI-2" target="Pm54L190ve_4c7_TmMwI-3">
          <mxGeometry relative="1" as="geometry" />
        </mxCell>
        <UserObject label="&lt;div style=&quot;font-size: 1px&quot;&gt;&lt;font style=&quot;font-size: 11.29px; direction: ltr; letter-spacing: 0px; line-height: 120%; opacity: 1;&quot;&gt;Start&lt;br&gt;&lt;/font&gt;&lt;/div&gt;" Function="EN_DIO_Error_T DIO_init(uint8_t pinNumber, EN_DIO_PORT_T portNumber, EN_DIO_DIRECTION_T direction);" tags="Flowchart" id="Pm54L190ve_4c7_TmMwI-2">
          <mxCell style="verticalAlign=middle;align=center;overflow=width;vsdxID=30;fillColor=#dae8fc;shape=stencil(tVLREoIgEPwaHnEQxsl3s/9gEpSJwDko7e+DsEkze2l627vdu5uFRaxyHe8FosR5sCcxqMZ3iO0Rpcp0ApQPCLEasUpaEC3Yi2lS3fOojOhsr3HDmObyMtsVcYqS29Qh5FEfklwrM5OXeUa/yjkcAwfr7TDpiyTfXvjkMR+Vw2A998qaBac5tAKHU1hq3i4oNwjRr9ofvayt/+Rk+yX/4iWA159KpXWKxJx/z0Bopfyw+g4=);strokeColor=#6c8ebf;spacingTop=-1;spacingBottom=-1;spacingLeft=-1;spacingRight=-1;points=[[0.5,1,0],[0.5,0,0],[0,0.5,0],[1,0.5,0]];labelBackgroundColor=none;rounded=1;html=1;whiteSpace=wrap;fontFamily=Calibri;" vertex="1" parent="1">
            <mxGeometry x="-2951" y="-2669" width="101" height="38" as="geometry" />
          </mxCell>
        </UserObject>
        <mxCell id="Pm54L190ve_4c7_TmMwI-9" style="edgeStyle=orthogonalEdgeStyle;rounded=1;orthogonalLoop=1;jettySize=auto;html=1;entryX=0.5;entryY=0;entryDx=0;entryDy=0;entryPerimeter=0;fontSize=12;startSize=8;endSize=8;exitX=0;exitY=0.5;exitDx=0;exitDy=0;exitPerimeter=0;" edge="1" parent="1" source="Pm54L190ve_4c7_TmMwI-3" target="Pm54L190ve_4c7_TmMwI-6">
          <mxGeometry relative="1" as="geometry" />
        </mxCell>
        <mxCell id="Pm54L190ve_4c7_TmMwI-10" style="edgeStyle=orthogonalEdgeStyle;rounded=1;orthogonalLoop=1;jettySize=auto;html=1;entryX=0.5;entryY=0;entryDx=0;entryDy=0;entryPerimeter=0;fontSize=12;startSize=8;endSize=8;exitX=1;exitY=0.5;exitDx=0;exitDy=0;exitPerimeter=0;" edge="1" parent="1" source="Pm54L190ve_4c7_TmMwI-3" target="Pm54L190ve_4c7_TmMwI-8">
          <mxGeometry relative="1" as="geometry" />
        </mxCell>
        <UserObject label="" Function="EN_DIO_Error_T DIO_init(uint8_t pinNumber, EN_DIO_PORT_T portNumber, EN_DIO_DIRECTION_T direction);" tags="Flowchart" id="Pm54L190ve_4c7_TmMwI-3">
          <mxCell style="vsdxID=219;fillColor=#fff2cc;shape=stencil(UzV2Ls5ILEhVNTIoLinKz04tz0wpyVA1dlE1MsrMy0gtyiwBslSNXVWNndPyi1LTi/JL81Ig/IJEkEoQKze/DGRCBUSfAUiHkUElhGcK4bpBVOZk5iGpNEVVikeloQHZpsK0YlWLz1QgA+HFtMycHEgIIcujBwlQCBKcxq4A);strokeColor=#d6b656;spacingTop=-1;spacingBottom=-1;spacingLeft=-1;spacingRight=-1;points=[[0,0.5,0],[1,0.5,0],[0.5,0,0],[0.5,1,0]];labelBackgroundColor=none;rounded=1;html=1;whiteSpace=wrap;fontFamily=Calibri;" vertex="1" parent="1">
            <mxGeometry x="-2951" y="-2585" width="101" height="76" as="geometry" />
          </mxCell>
        </UserObject>
        <mxCell id="Pm54L190ve_4c7_TmMwI-4" value="&lt;div style=&quot;font-size: 11.29px;&quot;&gt;&lt;font style=&quot;font-size: 11.29px;&quot;&gt;&lt;i style=&quot;&quot;&gt;Check&lt;/i&gt;&lt;/font&gt;&lt;/div&gt;&lt;div style=&quot;font-size: 11.29px;&quot;&gt;&lt;font style=&quot;font-size: 11.29px;&quot;&gt;&lt;i&gt;DataInMemory&lt;/i&gt;&lt;/font&gt;&lt;/div&gt;&lt;div style=&quot;font-size: 11.29px;&quot;&gt;&lt;font style=&quot;font-size: 11.29px;&quot;&gt;= &lt;i&gt;DATA_FOUND&lt;/i&gt;&lt;/font&gt;&lt;/div&gt;" style="text;vsdxID=219;fillColor=none;gradientColor=none;strokeColor=none;spacingTop=-1;spacingBottom=-1;spacingLeft=-1;spacingRight=-1;points=[[0,0.5,0],[1,0.5,0],[0.5,0,0],[0.5,1,0]];labelBackgroundColor=none;rounded=1;html=1;whiteSpace=wrap;verticalAlign=middle;align=center;overflow=width;;html=1;fontColor=#000000;fontFamily=Calibri;" vertex="1" parent="Pm54L190ve_4c7_TmMwI-3">
          <mxGeometry x="8.16" y="4" width="84.67" height="57.15" as="geometry" />
        </mxCell>
        <mxCell id="Pm54L190ve_4c7_TmMwI-15" style="edgeStyle=elbowEdgeStyle;rounded=1;orthogonalLoop=1;jettySize=auto;html=1;entryX=0.5;entryY=0;entryDx=0;entryDy=0;fontSize=12;startSize=8;endSize=8;exitX=0.5;exitY=1;exitDx=0;exitDy=0;exitPerimeter=0;elbow=vertical;" edge="1" parent="1" source="Pm54L190ve_4c7_TmMwI-6" target="Pm54L190ve_4c7_TmMwI-13">
          <mxGeometry relative="1" as="geometry" />
        </mxCell>
        <UserObject label="&lt;div style=&quot;font-size: 11.29px;&quot;&gt;&lt;i&gt;appMode&lt;/i&gt; =&amp;nbsp;&lt;i&gt;CHECK_MODE&lt;/i&gt;&lt;/div&gt;" Function="EN_DIO_Error_T DIO_toggle(uint8_t pinNumber, EN_DIO_PORT_T portNumber);  " tags="Flowchart" id="Pm54L190ve_4c7_TmMwI-6">
          <mxCell style="verticalAlign=middle;align=center;overflow=width;vsdxID=274;fillColor=#d5e8d4;shape=stencil(nZBLDoAgDERP0z3SIyjew0SURgSD+Lu9kMZoXLhwN9O+tukAlrNpJg1SzDH4QW/URgNYgZTkjA4UkwJUgGXng+6DX1zLfmoymdXo17xh5zmRJ6Q42BWCfc2oJfdAr+Yv+AP9Cb7OJ3H/2JG1HNGz/84klThPVCc=);strokeColor=#82b366;spacingTop=-1;spacingBottom=-1;spacingLeft=-1;spacingRight=-1;points=[[0,0.5,0],[1,0.5,0],[0.5,1,0],[0.5,0,0]];labelBackgroundColor=none;rounded=1;html=1;whiteSpace=wrap;fontFamily=Calibri;" vertex="1" parent="1">
            <mxGeometry x="-3085" y="-2475" width="134" height="43" as="geometry" />
          </mxCell>
        </UserObject>
        <mxCell id="Pm54L190ve_4c7_TmMwI-14" style="edgeStyle=elbowEdgeStyle;rounded=1;orthogonalLoop=1;jettySize=auto;html=1;entryX=0.5;entryY=0;entryDx=0;entryDy=0;fontSize=12;startSize=8;endSize=8;elbow=vertical;" edge="1" parent="1" source="Pm54L190ve_4c7_TmMwI-8" target="Pm54L190ve_4c7_TmMwI-13">
          <mxGeometry relative="1" as="geometry" />
        </mxCell>
        <UserObject label="&lt;div style=&quot;font-size: 11.29px;&quot;&gt;&lt;i&gt;appMode&lt;/i&gt; = &lt;i&gt;PROG_MODE&lt;/i&gt;&lt;/div&gt;" Function="EN_DIO_Error_T DIO_toggle(uint8_t pinNumber, EN_DIO_PORT_T portNumber);  " tags="Flowchart" id="Pm54L190ve_4c7_TmMwI-8">
          <mxCell style="verticalAlign=middle;align=center;overflow=width;vsdxID=274;fillColor=#d5e8d4;shape=stencil(nZBLDoAgDERP0z3SIyjew0SURgSD+Lu9kMZoXLhwN9O+tukAlrNpJg1SzDH4QW/URgNYgZTkjA4UkwJUgGXng+6DX1zLfmoymdXo17xh5zmRJ6Q42BWCfc2oJfdAr+Yv+AP9Cb7OJ3H/2JG1HNGz/84klThPVCc=);strokeColor=#82b366;spacingTop=-1;spacingBottom=-1;spacingLeft=-1;spacingRight=-1;points=[[0,0.5,0],[1,0.5,0],[0.5,1,0],[0.5,0,0]];labelBackgroundColor=none;rounded=1;html=1;whiteSpace=wrap;fontFamily=Calibri;" vertex="1" parent="1">
            <mxGeometry x="-2850" y="-2475" width="134" height="43" as="geometry" />
          </mxCell>
        </UserObject>
        <mxCell id="Pm54L190ve_4c7_TmMwI-11" value="&lt;font style=&quot;font-size: 11px;&quot;&gt;False&lt;/font&gt;" style="text;html=1;align=center;verticalAlign=middle;resizable=0;points=[];autosize=1;strokeColor=none;fillColor=none;fontSize=16;" vertex="1" parent="1">
          <mxGeometry x="-2841.75" y="-2573" width="45" height="31" as="geometry" />
        </mxCell>
        <mxCell id="Pm54L190ve_4c7_TmMwI-12" value="&lt;font style=&quot;font-size: 11px;&quot;&gt;True&lt;/font&gt;" style="text;html=1;align=center;verticalAlign=middle;resizable=0;points=[];autosize=1;strokeColor=none;fillColor=none;fontSize=16;" vertex="1" parent="1">
          <mxGeometry x="-2997.75" y="-2573" width="40" height="31" as="geometry" />
        </mxCell>
        <mxCell id="Pm54L190ve_4c7_TmMwI-41" style="edgeStyle=none;curved=1;rounded=0;orthogonalLoop=1;jettySize=auto;html=1;entryX=0.5;entryY=0;entryDx=0;entryDy=0;entryPerimeter=0;fontSize=12;startSize=8;endSize=8;" edge="1" parent="1" source="Pm54L190ve_4c7_TmMwI-13" target="Pm54L190ve_4c7_TmMwI-16">
          <mxGeometry relative="1" as="geometry" />
        </mxCell>
        <mxCell id="Pm54L190ve_4c7_TmMwI-13" value="" style="ellipse;whiteSpace=wrap;html=1;aspect=fixed;fontSize=16;fillColor=#dae8fc;strokeColor=#6c8ebf;" vertex="1" parent="1">
          <mxGeometry x="-2914" y="-2388" width="27" height="27" as="geometry" />
        </mxCell>
        <mxCell id="Pm54L190ve_4c7_TmMwI-24" style="edgeStyle=none;curved=1;rounded=0;orthogonalLoop=1;jettySize=auto;html=1;entryX=0.5;entryY=0;entryDx=0;entryDy=0;entryPerimeter=0;fontSize=12;startSize=8;endSize=8;" edge="1" parent="1" source="Pm54L190ve_4c7_TmMwI-16" target="Pm54L190ve_4c7_TmMwI-18">
          <mxGeometry relative="1" as="geometry" />
        </mxCell>
        <UserObject label="&lt;div style=&quot;font-size: 11.29px;&quot;&gt;Switch on&lt;/div&gt;&lt;i style=&quot;border-color: var(--border-color); font-size: 11.29px;&quot;&gt;appMode&lt;/i&gt;" Function="EN_DIO_Error_T DIO_toggle(uint8_t pinNumber, EN_DIO_PORT_T portNumber);  " tags="Flowchart" id="Pm54L190ve_4c7_TmMwI-16">
          <mxCell style="verticalAlign=middle;align=center;overflow=width;vsdxID=274;fillColor=#d5e8d4;shape=stencil(nZBLDoAgDERP0z3SIyjew0SURgSD+Lu9kMZoXLhwN9O+tukAlrNpJg1SzDH4QW/URgNYgZTkjA4UkwJUgGXng+6DX1zLfmoymdXo17xh5zmRJ6Q42BWCfc2oJfdAr+Yv+AP9Cb7OJ3H/2JG1HNGz/84klThPVCc=);strokeColor=#82b366;spacingTop=-1;spacingBottom=-1;spacingLeft=-1;spacingRight=-1;points=[[0,0.5,0],[1,0.5,0],[0.5,1,0],[0.5,0,0]];labelBackgroundColor=none;rounded=1;html=1;whiteSpace=wrap;fontFamily=Calibri;" vertex="1" parent="1">
            <mxGeometry x="-2950.25" y="-2330" width="99.5" height="43" as="geometry" />
          </mxCell>
        </UserObject>
        <mxCell id="Pm54L190ve_4c7_TmMwI-25" style="edgeStyle=none;curved=1;rounded=0;orthogonalLoop=1;jettySize=auto;html=1;entryX=0.5;entryY=0;entryDx=0;entryDy=0;entryPerimeter=0;fontSize=12;startSize=8;endSize=8;" edge="1" parent="1" source="Pm54L190ve_4c7_TmMwI-18" target="Pm54L190ve_4c7_TmMwI-20">
          <mxGeometry relative="1" as="geometry" />
        </mxCell>
        <mxCell id="Pm54L190ve_4c7_TmMwI-33" style="edgeStyle=none;curved=1;rounded=0;orthogonalLoop=1;jettySize=auto;html=1;fontSize=12;startSize=8;endSize=8;" edge="1" parent="1" source="Pm54L190ve_4c7_TmMwI-18" target="Pm54L190ve_4c7_TmMwI-27">
          <mxGeometry relative="1" as="geometry" />
        </mxCell>
        <UserObject label="" Function="EN_DIO_Error_T DIO_init(uint8_t pinNumber, EN_DIO_PORT_T portNumber, EN_DIO_DIRECTION_T direction);" tags="Flowchart" id="Pm54L190ve_4c7_TmMwI-18">
          <mxCell style="vsdxID=219;fillColor=#fff2cc;shape=stencil(UzV2Ls5ILEhVNTIoLinKz04tz0wpyVA1dlE1MsrMy0gtyiwBslSNXVWNndPyi1LTi/JL81Ig/IJEkEoQKze/DGRCBUSfAUiHkUElhGcK4bpBVOZk5iGpNEVVikeloQHZpsK0YlWLz1QgA+HFtMycHEgIIcujBwlQCBKcxq4A);strokeColor=#d6b656;spacingTop=-1;spacingBottom=-1;spacingLeft=-1;spacingRight=-1;points=[[0,0.5,0],[1,0.5,0],[0.5,0,0],[0.5,1,0]];labelBackgroundColor=none;rounded=1;html=1;whiteSpace=wrap;fontFamily=Calibri;" vertex="1" parent="1">
            <mxGeometry x="-2951" y="-2248" width="101" height="76" as="geometry" />
          </mxCell>
        </UserObject>
        <mxCell id="Pm54L190ve_4c7_TmMwI-19" value="&lt;div style=&quot;font-size: 11.29px;&quot;&gt;&lt;font style=&quot;font-size: 11.29px;&quot;&gt;Case&lt;/font&gt;&lt;/div&gt;&lt;font style=&quot;font-size: 11.29px;&quot;&gt;&lt;i&gt;PROG_MODE&lt;/i&gt;&lt;/font&gt;" style="text;vsdxID=219;fillColor=none;gradientColor=none;strokeColor=none;spacingTop=-1;spacingBottom=-1;spacingLeft=-1;spacingRight=-1;points=[[0,0.5,0],[1,0.5,0],[0.5,0,0],[0.5,1,0]];labelBackgroundColor=none;rounded=1;html=1;whiteSpace=wrap;verticalAlign=middle;align=center;overflow=width;;html=1;fontColor=#000000;fontFamily=Calibri;" vertex="1" parent="Pm54L190ve_4c7_TmMwI-18">
          <mxGeometry x="8.17" y="9.42" width="84.67" height="57.15" as="geometry" />
        </mxCell>
        <mxCell id="Pm54L190ve_4c7_TmMwI-26" style="edgeStyle=none;curved=1;rounded=0;orthogonalLoop=1;jettySize=auto;html=1;entryX=0.5;entryY=0;entryDx=0;entryDy=0;entryPerimeter=0;fontSize=12;startSize=8;endSize=8;" edge="1" parent="1" source="Pm54L190ve_4c7_TmMwI-20" target="Pm54L190ve_4c7_TmMwI-22">
          <mxGeometry relative="1" as="geometry" />
        </mxCell>
        <mxCell id="Pm54L190ve_4c7_TmMwI-35" style="edgeStyle=none;curved=1;rounded=0;orthogonalLoop=1;jettySize=auto;html=1;fontSize=12;startSize=8;endSize=8;" edge="1" parent="1" source="Pm54L190ve_4c7_TmMwI-20" target="Pm54L190ve_4c7_TmMwI-28">
          <mxGeometry relative="1" as="geometry" />
        </mxCell>
        <UserObject label="" Function="EN_DIO_Error_T DIO_init(uint8_t pinNumber, EN_DIO_PORT_T portNumber, EN_DIO_DIRECTION_T direction);" tags="Flowchart" id="Pm54L190ve_4c7_TmMwI-20">
          <mxCell style="vsdxID=219;fillColor=#fff2cc;shape=stencil(UzV2Ls5ILEhVNTIoLinKz04tz0wpyVA1dlE1MsrMy0gtyiwBslSNXVWNndPyi1LTi/JL81Ig/IJEkEoQKze/DGRCBUSfAUiHkUElhGcK4bpBVOZk5iGpNEVVikeloQHZpsK0YlWLz1QgA+HFtMycHEgIIcujBwlQCBKcxq4A);strokeColor=#d6b656;spacingTop=-1;spacingBottom=-1;spacingLeft=-1;spacingRight=-1;points=[[0,0.5,0],[1,0.5,0],[0.5,0,0],[0.5,1,0]];labelBackgroundColor=none;rounded=1;html=1;whiteSpace=wrap;fontFamily=Calibri;" vertex="1" parent="1">
            <mxGeometry x="-2951" y="-2144" width="101" height="76" as="geometry" />
          </mxCell>
        </UserObject>
        <mxCell id="Pm54L190ve_4c7_TmMwI-21" value="&lt;div style=&quot;font-size: 11.29px;&quot;&gt;&lt;font style=&quot;font-size: 11.29px;&quot;&gt;Case&lt;/font&gt;&lt;/div&gt;&lt;font style=&quot;font-size: 11.29px;&quot;&gt;&lt;i&gt;USER_MODE&lt;/i&gt;&lt;/font&gt;" style="text;vsdxID=219;fillColor=none;gradientColor=none;strokeColor=none;spacingTop=-1;spacingBottom=-1;spacingLeft=-1;spacingRight=-1;points=[[0,0.5,0],[1,0.5,0],[0.5,0,0],[0.5,1,0]];labelBackgroundColor=none;rounded=1;html=1;whiteSpace=wrap;verticalAlign=middle;align=center;overflow=width;;html=1;fontColor=#000000;fontFamily=Calibri;" vertex="1" parent="Pm54L190ve_4c7_TmMwI-20">
          <mxGeometry x="8.17" y="9.42" width="84.67" height="57.15" as="geometry" />
        </mxCell>
        <mxCell id="Pm54L190ve_4c7_TmMwI-36" style="edgeStyle=none;curved=1;rounded=0;orthogonalLoop=1;jettySize=auto;html=1;fontSize=12;startSize=8;endSize=8;" edge="1" parent="1" source="Pm54L190ve_4c7_TmMwI-22" target="Pm54L190ve_4c7_TmMwI-30">
          <mxGeometry relative="1" as="geometry" />
        </mxCell>
        <UserObject label="" Function="EN_DIO_Error_T DIO_init(uint8_t pinNumber, EN_DIO_PORT_T portNumber, EN_DIO_DIRECTION_T direction);" tags="Flowchart" id="Pm54L190ve_4c7_TmMwI-22">
          <mxCell style="vsdxID=219;fillColor=#fff2cc;shape=stencil(UzV2Ls5ILEhVNTIoLinKz04tz0wpyVA1dlE1MsrMy0gtyiwBslSNXVWNndPyi1LTi/JL81Ig/IJEkEoQKze/DGRCBUSfAUiHkUElhGcK4bpBVOZk5iGpNEVVikeloQHZpsK0YlWLz1QgA+HFtMycHEgIIcujBwlQCBKcxq4A);strokeColor=#d6b656;spacingTop=-1;spacingBottom=-1;spacingLeft=-1;spacingRight=-1;points=[[0,0.5,0],[1,0.5,0],[0.5,0,0],[0.5,1,0]];labelBackgroundColor=none;rounded=1;html=1;whiteSpace=wrap;fontFamily=Calibri;" vertex="1" parent="1">
            <mxGeometry x="-2951" y="-2038" width="101" height="76" as="geometry" />
          </mxCell>
        </UserObject>
        <mxCell id="Pm54L190ve_4c7_TmMwI-23" value="&lt;div style=&quot;font-size: 11.29px;&quot;&gt;&lt;font style=&quot;font-size: 11.29px;&quot;&gt;Case&lt;/font&gt;&lt;/div&gt;&lt;font style=&quot;font-size: 11.29px;&quot;&gt;&lt;i&gt;CHECK_MODE&lt;/i&gt;&lt;/font&gt;" style="text;vsdxID=219;fillColor=none;gradientColor=none;strokeColor=none;spacingTop=-1;spacingBottom=-1;spacingLeft=-1;spacingRight=-1;points=[[0,0.5,0],[1,0.5,0],[0.5,0,0],[0.5,1,0]];labelBackgroundColor=none;rounded=1;html=1;whiteSpace=wrap;verticalAlign=middle;align=center;overflow=width;;html=1;fontColor=#000000;fontFamily=Calibri;" vertex="1" parent="Pm54L190ve_4c7_TmMwI-22">
          <mxGeometry x="8.17" y="9.42" width="84.67" height="57.15" as="geometry" />
        </mxCell>
        <mxCell id="Pm54L190ve_4c7_TmMwI-37" style="edgeStyle=orthogonalEdgeStyle;rounded=1;orthogonalLoop=1;jettySize=auto;html=1;fontSize=12;startSize=8;endSize=8;exitX=1;exitY=0.5;exitDx=0;exitDy=0;exitPerimeter=0;entryX=1;entryY=0.5;entryDx=0;entryDy=0;" edge="1" parent="1" source="Pm54L190ve_4c7_TmMwI-27" target="Pm54L190ve_4c7_TmMwI-32">
          <mxGeometry relative="1" as="geometry">
            <mxPoint x="-2495.3500366210938" y="-1850.8001098632812" as="targetPoint" />
            <Array as="points">
              <mxPoint x="-2507.75" y="-2210" />
              <mxPoint x="-2507.75" y="-1900" />
            </Array>
          </mxGeometry>
        </mxCell>
        <UserObject label="&lt;div style=&quot;font-size: 11.29px;&quot;&gt;Call&amp;nbsp;&lt;i&gt;APP_programmerMode&lt;/i&gt;&amp;nbsp;function&lt;/div&gt;&lt;div style=&quot;font-size: 11.29px;&quot;&gt;&lt;span style=&quot;background-color: initial;&quot;&gt;Update &lt;/span&gt;&lt;i style=&quot;background-color: initial;&quot;&gt;appMode&lt;/i&gt;&lt;span style=&quot;background-color: initial;&quot;&gt; = &lt;i&gt;USER_MODE&lt;/i&gt;&lt;/span&gt;&lt;/div&gt;" Function="EN_DIO_Error_T DIO_toggle(uint8_t pinNumber, EN_DIO_PORT_T portNumber);  " tags="Flowchart" id="Pm54L190ve_4c7_TmMwI-27">
          <mxCell style="verticalAlign=middle;align=center;overflow=width;vsdxID=274;fillColor=#d5e8d4;shape=stencil(nZBLDoAgDERP0z3SIyjew0SURgSD+Lu9kMZoXLhwN9O+tukAlrNpJg1SzDH4QW/URgNYgZTkjA4UkwJUgGXng+6DX1zLfmoymdXo17xh5zmRJ6Q42BWCfc2oJfdAr+Yv+AP9Cb7OJ3H/2JG1HNGz/84klThPVCc=);strokeColor=#82b366;spacingTop=-1;spacingBottom=-1;spacingLeft=-1;spacingRight=-1;points=[[0,0.5,0],[1,0.5,0],[0.5,1,0],[0.5,0,0]];labelBackgroundColor=none;rounded=1;html=1;whiteSpace=wrap;fontFamily=Calibri;" vertex="1" parent="1">
            <mxGeometry x="-2788.75" y="-2231.5" width="199" height="43" as="geometry" />
          </mxCell>
        </UserObject>
        <mxCell id="Pm54L190ve_4c7_TmMwI-38" style="edgeStyle=none;curved=1;rounded=0;orthogonalLoop=1;jettySize=auto;html=1;fontSize=12;startSize=8;endSize=8;" edge="1" parent="1" source="Pm54L190ve_4c7_TmMwI-28">
          <mxGeometry relative="1" as="geometry">
            <mxPoint x="-2508.75" y="-2106" as="targetPoint" />
          </mxGeometry>
        </mxCell>
        <UserObject label="&lt;div style=&quot;&quot;&gt;Call &lt;i&gt;APP_userMode&lt;/i&gt;&amp;nbsp;function&lt;/div&gt;&lt;div style=&quot;font-size: 11.29px;&quot;&gt;&lt;span style=&quot;background-color: initial;&quot;&gt;Update &lt;/span&gt;&lt;i style=&quot;background-color: initial;&quot;&gt;appMode&lt;/i&gt;&lt;span style=&quot;background-color: initial;&quot;&gt; = &lt;i&gt;CHECK_MODE&lt;/i&gt;&lt;/span&gt;&lt;/div&gt;" Function="EN_DIO_Error_T DIO_toggle(uint8_t pinNumber, EN_DIO_PORT_T portNumber);  " tags="Flowchart" id="Pm54L190ve_4c7_TmMwI-28">
          <mxCell style="verticalAlign=middle;align=center;overflow=width;vsdxID=274;fillColor=#d5e8d4;shape=stencil(nZBLDoAgDERP0z3SIyjew0SURgSD+Lu9kMZoXLhwN9O+tukAlrNpJg1SzDH4QW/URgNYgZTkjA4UkwJUgGXng+6DX1zLfmoymdXo17xh5zmRJ6Q42BWCfc2oJfdAr+Yv+AP9Cb7OJ3H/2JG1HNGz/84klThPVCc=);strokeColor=#82b366;spacingTop=-1;spacingBottom=-1;spacingLeft=-1;spacingRight=-1;points=[[0,0.5,0],[1,0.5,0],[0.5,1,0],[0.5,0,0]];labelBackgroundColor=none;rounded=1;html=1;whiteSpace=wrap;fontFamily=Calibri;" vertex="1" parent="1">
            <mxGeometry x="-2788.75" y="-2127.5" width="199" height="43" as="geometry" />
          </mxCell>
        </UserObject>
        <mxCell id="Pm54L190ve_4c7_TmMwI-39" style="edgeStyle=none;curved=1;rounded=0;orthogonalLoop=1;jettySize=auto;html=1;fontSize=12;startSize=8;endSize=8;" edge="1" parent="1" source="Pm54L190ve_4c7_TmMwI-30">
          <mxGeometry relative="1" as="geometry">
            <mxPoint x="-2508.75" y="-2000" as="targetPoint" />
          </mxGeometry>
        </mxCell>
        <UserObject label="&lt;div style=&quot;&quot;&gt;Call &lt;i&gt;APP_checkUserInput&lt;/i&gt;&amp;nbsp;function&lt;/div&gt;" Function="EN_DIO_Error_T DIO_toggle(uint8_t pinNumber, EN_DIO_PORT_T portNumber);  " tags="Flowchart" id="Pm54L190ve_4c7_TmMwI-30">
          <mxCell style="verticalAlign=middle;align=center;overflow=width;vsdxID=274;fillColor=#d5e8d4;shape=stencil(nZBLDoAgDERP0z3SIyjew0SURgSD+Lu9kMZoXLhwN9O+tukAlrNpJg1SzDH4QW/URgNYgZTkjA4UkwJUgGXng+6DX1zLfmoymdXo17xh5zmRJ6Q42BWCfc2oJfdAr+Yv+AP9Cb7OJ3H/2JG1HNGz/84klThPVCc=);strokeColor=#82b366;spacingTop=-1;spacingBottom=-1;spacingLeft=-1;spacingRight=-1;points=[[0,0.5,0],[1,0.5,0],[0.5,1,0],[0.5,0,0]];labelBackgroundColor=none;rounded=1;html=1;whiteSpace=wrap;fontFamily=Calibri;" vertex="1" parent="1">
            <mxGeometry x="-2788.75" y="-2021.5" width="199" height="43" as="geometry" />
          </mxCell>
        </UserObject>
        <mxCell id="Pm54L190ve_4c7_TmMwI-40" style="edgeStyle=orthogonalEdgeStyle;rounded=1;orthogonalLoop=1;jettySize=auto;html=1;entryX=0;entryY=0.5;entryDx=0;entryDy=0;fontSize=12;startSize=8;endSize=8;exitX=0;exitY=0.5;exitDx=0;exitDy=0;" edge="1" parent="1" source="Pm54L190ve_4c7_TmMwI-32" target="Pm54L190ve_4c7_TmMwI-13">
          <mxGeometry relative="1" as="geometry">
            <Array as="points">
              <mxPoint x="-3010.75" y="-1900" />
              <mxPoint x="-3010.75" y="-2374" />
            </Array>
          </mxGeometry>
        </mxCell>
        <mxCell id="Pm54L190ve_4c7_TmMwI-32" value="" style="ellipse;whiteSpace=wrap;html=1;aspect=fixed;fontSize=16;fillColor=#dae8fc;strokeColor=#6c8ebf;" vertex="1" parent="1">
          <mxGeometry x="-2914" y="-1914" width="27" height="27" as="geometry" />
        </mxCell>
        <mxCell id="Pm54L190ve_4c7_TmMwI-42" value="APP_checkDataInMemory" style="text;whiteSpace=wrap;html=1;fontSize=16;" vertex="1" parent="1">
          <mxGeometry x="-2058" y="-2746" width="216" height="41" as="geometry" />
        </mxCell>
        <mxCell id="Pm54L190ve_4c7_TmMwI-93" style="edgeStyle=none;curved=1;rounded=0;orthogonalLoop=1;jettySize=auto;html=1;fontSize=12;startSize=8;endSize=8;" edge="1" parent="1" source="Pm54L190ve_4c7_TmMwI-43" target="Pm54L190ve_4c7_TmMwI-44">
          <mxGeometry relative="1" as="geometry" />
        </mxCell>
        <UserObject label="&lt;div style=&quot;font-size: 1px&quot;&gt;&lt;font style=&quot;font-size: 11.29px; direction: ltr; letter-spacing: 0px; line-height: 120%; opacity: 1;&quot;&gt;Start&lt;br&gt;&lt;/font&gt;&lt;/div&gt;" Function="EN_DIO_Error_T DIO_init(uint8_t pinNumber, EN_DIO_PORT_T portNumber, EN_DIO_DIRECTION_T direction);" tags="Flowchart" id="Pm54L190ve_4c7_TmMwI-43">
          <mxCell style="verticalAlign=middle;align=center;overflow=width;vsdxID=30;fillColor=#dae8fc;shape=stencil(tVLREoIgEPwaHnEQxsl3s/9gEpSJwDko7e+DsEkze2l627vdu5uFRaxyHe8FosR5sCcxqMZ3iO0Rpcp0ApQPCLEasUpaEC3Yi2lS3fOojOhsr3HDmObyMtsVcYqS29Qh5FEfklwrM5OXeUa/yjkcAwfr7TDpiyTfXvjkMR+Vw2A998qaBac5tAKHU1hq3i4oNwjRr9ofvayt/+Rk+yX/4iWA159KpXWKxJx/z0Bopfyw+g4=);strokeColor=#6c8ebf;spacingTop=-1;spacingBottom=-1;spacingLeft=-1;spacingRight=-1;points=[[0.5,1,0],[0.5,0,0],[0,0.5,0],[1,0.5,0]];labelBackgroundColor=none;rounded=1;html=1;whiteSpace=wrap;fontFamily=Calibri;" vertex="1" parent="1">
            <mxGeometry x="-2012.55" y="-2687.5" width="101" height="38" as="geometry" />
          </mxCell>
        </UserObject>
        <mxCell id="Pm54L190ve_4c7_TmMwI-92" style="edgeStyle=none;curved=1;rounded=0;orthogonalLoop=1;jettySize=auto;html=1;fontSize=12;startSize=8;endSize=8;" edge="1" parent="1" source="Pm54L190ve_4c7_TmMwI-44" target="Pm54L190ve_4c7_TmMwI-52">
          <mxGeometry relative="1" as="geometry" />
        </mxCell>
        <UserObject label="&lt;div style=&quot;&quot;&gt;&lt;font style=&quot;font-size: 11.29px;&quot;&gt;Check for&lt;i&gt; PAN &lt;/i&gt;in its address&lt;/font&gt;&lt;br&gt;&lt;/div&gt;&lt;div style=&quot;&quot;&gt;&lt;font style=&quot;font-size: 11.29px;&quot;&gt;using&amp;nbsp;&lt;i&gt;EEPROM_readArray&lt;/i&gt;&amp;nbsp;function&lt;/font&gt;&lt;/div&gt;" Function="EN_DIO_Error_T DIO_toggle(uint8_t pinNumber, EN_DIO_PORT_T portNumber);  " tags="Flowchart" id="Pm54L190ve_4c7_TmMwI-44">
          <mxCell style="verticalAlign=middle;align=center;overflow=width;vsdxID=274;fillColor=#d5e8d4;shape=stencil(nZBLDoAgDERP0z3SIyjew0SURgSD+Lu9kMZoXLhwN9O+tukAlrNpJg1SzDH4QW/URgNYgZTkjA4UkwJUgGXng+6DX1zLfmoymdXo17xh5zmRJ6Q42BWCfc2oJfdAr+Yv+AP9Cb7OJ3H/2JG1HNGz/84klThPVCc=);strokeColor=#82b366;spacingTop=-1;spacingBottom=-1;spacingLeft=-1;spacingRight=-1;points=[[0,0.5,0],[1,0.5,0],[0.5,1,0],[0.5,0,0]];labelBackgroundColor=none;rounded=1;html=1;whiteSpace=wrap;fontFamily=Calibri;" vertex="1" parent="1">
            <mxGeometry x="-2047" y="-2592.5" width="170" height="43" as="geometry" />
          </mxCell>
        </UserObject>
        <mxCell id="Pm54L190ve_4c7_TmMwI-48" value="&lt;font style=&quot;font-size: 11px;&quot;&gt;Yes&lt;/font&gt;" style="text;whiteSpace=wrap;html=1;fontSize=16;" vertex="1" parent="1">
          <mxGeometry x="-1821" y="-2492" width="21" height="29" as="geometry" />
        </mxCell>
        <mxCell id="Pm54L190ve_4c7_TmMwI-62" style="edgeStyle=none;curved=1;rounded=0;orthogonalLoop=1;jettySize=auto;html=1;entryX=0.5;entryY=0;entryDx=0;entryDy=0;entryPerimeter=0;fontSize=12;startSize=8;endSize=8;" edge="1" parent="1" source="Pm54L190ve_4c7_TmMwI-52" target="Pm54L190ve_4c7_TmMwI-54">
          <mxGeometry relative="1" as="geometry" />
        </mxCell>
        <mxCell id="Pm54L190ve_4c7_TmMwI-74" style="edgeStyle=orthogonalEdgeStyle;rounded=1;orthogonalLoop=1;jettySize=auto;html=1;entryX=1;entryY=0.5;entryDx=0;entryDy=0;entryPerimeter=0;fontSize=12;startSize=8;endSize=8;exitX=1;exitY=0.5;exitDx=0;exitDy=0;exitPerimeter=0;" edge="1" parent="1" source="Pm54L190ve_4c7_TmMwI-52" target="Pm54L190ve_4c7_TmMwI-65">
          <mxGeometry relative="1" as="geometry">
            <Array as="points">
              <mxPoint x="-1730" y="-2461" />
              <mxPoint x="-1730" y="-2188" />
            </Array>
          </mxGeometry>
        </mxCell>
        <UserObject label="" Function="EN_DIO_Error_T DIO_init(uint8_t pinNumber, EN_DIO_PORT_T portNumber, EN_DIO_DIRECTION_T direction);" tags="Flowchart" id="Pm54L190ve_4c7_TmMwI-52">
          <mxCell style="vsdxID=219;fillColor=#fff2cc;shape=stencil(UzV2Ls5ILEhVNTIoLinKz04tz0wpyVA1dlE1MsrMy0gtyiwBslSNXVWNndPyi1LTi/JL81Ig/IJEkEoQKze/DGRCBUSfAUiHkUElhGcK4bpBVOZk5iGpNEVVikeloQHZpsK0YlWLz1QgA+HFtMycHEgIIcujBwlQCBKcxq4A);strokeColor=#d6b656;spacingTop=-1;spacingBottom=-1;spacingLeft=-1;spacingRight=-1;points=[[0,0.5,0],[1,0.5,0],[0.5,0,0],[0.5,1,0]];labelBackgroundColor=none;rounded=1;html=1;whiteSpace=wrap;fontFamily=Calibri;" vertex="1" parent="1">
            <mxGeometry x="-2012.54" y="-2499" width="101" height="76" as="geometry" />
          </mxCell>
        </UserObject>
        <mxCell id="Pm54L190ve_4c7_TmMwI-53" value="&lt;div style=&quot;font-size: 11.29px;&quot;&gt;&lt;font style=&quot;font-size: 11.29px;&quot;&gt;Reached &#39;\0&#39;&lt;/font&gt;&lt;/div&gt;&lt;div style=&quot;font-size: 11.29px;&quot;&gt;&lt;font style=&quot;font-size: 11.29px;&quot;&gt;Character&lt;/font&gt;&lt;/div&gt;" style="text;vsdxID=219;fillColor=none;gradientColor=none;strokeColor=none;spacingTop=-1;spacingBottom=-1;spacingLeft=-1;spacingRight=-1;points=[[0,0.5,0],[1,0.5,0],[0.5,0,0],[0.5,1,0]];labelBackgroundColor=none;rounded=1;html=1;whiteSpace=wrap;verticalAlign=middle;align=center;overflow=width;;html=1;fontColor=#000000;fontFamily=Calibri;" vertex="1" parent="Pm54L190ve_4c7_TmMwI-52">
          <mxGeometry x="8.16" y="12" width="84.67" height="57.15" as="geometry" />
        </mxCell>
        <mxCell id="Pm54L190ve_4c7_TmMwI-57" style="edgeStyle=none;curved=1;rounded=0;orthogonalLoop=1;jettySize=auto;html=1;fontSize=12;startSize=8;endSize=8;" edge="1" parent="1" source="Pm54L190ve_4c7_TmMwI-54" target="Pm54L190ve_4c7_TmMwI-56">
          <mxGeometry relative="1" as="geometry" />
        </mxCell>
        <mxCell id="Pm54L190ve_4c7_TmMwI-72" style="edgeStyle=none;curved=1;rounded=0;orthogonalLoop=1;jettySize=auto;html=1;entryX=1;entryY=0.5;entryDx=0;entryDy=0;fontSize=12;startSize=8;endSize=8;" edge="1" parent="1" source="Pm54L190ve_4c7_TmMwI-54" target="Pm54L190ve_4c7_TmMwI-59">
          <mxGeometry relative="1" as="geometry" />
        </mxCell>
        <UserObject label="" Function="EN_DIO_Error_T DIO_init(uint8_t pinNumber, EN_DIO_PORT_T portNumber, EN_DIO_DIRECTION_T direction);" tags="Flowchart" id="Pm54L190ve_4c7_TmMwI-54">
          <mxCell style="vsdxID=219;fillColor=#fff2cc;shape=stencil(UzV2Ls5ILEhVNTIoLinKz04tz0wpyVA1dlE1MsrMy0gtyiwBslSNXVWNndPyi1LTi/JL81Ig/IJEkEoQKze/DGRCBUSfAUiHkUElhGcK4bpBVOZk5iGpNEVVikeloQHZpsK0YlWLz1QgA+HFtMycHEgIIcujBwlQCBKcxq4A);strokeColor=#d6b656;spacingTop=-1;spacingBottom=-1;spacingLeft=-1;spacingRight=-1;points=[[0,0.5,0],[1,0.5,0],[0.5,0,0],[0.5,1,0]];labelBackgroundColor=none;rounded=1;html=1;whiteSpace=wrap;fontFamily=Calibri;" vertex="1" parent="1">
            <mxGeometry x="-2012.55" y="-2347.5" width="101" height="76" as="geometry" />
          </mxCell>
        </UserObject>
        <mxCell id="Pm54L190ve_4c7_TmMwI-55" value="&lt;div style=&quot;font-size: 11.29px;&quot;&gt;Retrieved&amp;nbsp;&lt;/div&gt;&lt;i style=&quot;border-color: var(--border-color); font-size: 11.29px;&quot;&gt;PAN&lt;/i&gt;&amp;nbsp;is a numeric value" style="text;vsdxID=219;fillColor=none;gradientColor=none;strokeColor=none;spacingTop=-1;spacingBottom=-1;spacingLeft=-1;spacingRight=-1;points=[[0,0.5,0],[1,0.5,0],[0.5,0,0],[0.5,1,0]];labelBackgroundColor=none;rounded=1;html=1;whiteSpace=wrap;verticalAlign=middle;align=center;overflow=width;;html=1;fontColor=#000000;fontFamily=Calibri;" vertex="1" parent="Pm54L190ve_4c7_TmMwI-54">
          <mxGeometry x="8.16" y="12" width="84.67" height="57.15" as="geometry" />
        </mxCell>
        <mxCell id="Pm54L190ve_4c7_TmMwI-86" style="edgeStyle=orthogonalEdgeStyle;rounded=1;orthogonalLoop=1;jettySize=auto;html=1;entryX=0.5;entryY=0;entryDx=0;entryDy=0;entryPerimeter=0;fontSize=12;startSize=8;endSize=8;exitX=0.5;exitY=1;exitDx=0;exitDy=0;" edge="1" parent="1" source="Pm54L190ve_4c7_TmMwI-56" target="Pm54L190ve_4c7_TmMwI-65">
          <mxGeometry relative="1" as="geometry" />
        </mxCell>
        <mxCell id="Pm54L190ve_4c7_TmMwI-56" value="&lt;p style=&quot;line-height: 80%;&quot;&gt;&lt;font style=&quot;font-size: 11.29px;&quot; face=&quot;Calibri&quot;&gt;&lt;i&gt;dataFlag&lt;/i&gt; = &lt;i&gt;DATA_NOT_FOUND&lt;/i&gt;&lt;/font&gt;&lt;br&gt;&lt;/p&gt;" style="rounded=0;whiteSpace=wrap;html=1;fontSize=16;fillColor=#d5e8d4;strokeColor=#82b366;" vertex="1" parent="1">
          <mxGeometry x="-1864.87" y="-2332.25" width="125" height="45.5" as="geometry" />
        </mxCell>
        <mxCell id="Pm54L190ve_4c7_TmMwI-75" style="edgeStyle=none;curved=1;rounded=0;orthogonalLoop=1;jettySize=auto;html=1;fontSize=12;startSize=8;endSize=8;" edge="1" parent="1" source="Pm54L190ve_4c7_TmMwI-59" target="Pm54L190ve_4c7_TmMwI-64">
          <mxGeometry relative="1" as="geometry" />
        </mxCell>
        <mxCell id="Pm54L190ve_4c7_TmMwI-59" value="&lt;p style=&quot;line-height: 80%;&quot;&gt;&lt;font size=&quot;1&quot; face=&quot;Calibri&quot;&gt;&lt;span style=&quot;font-size: 11.29px;&quot;&gt;Store retrieved &lt;/span&gt;&lt;i style=&quot;font-size: 11.29px;&quot;&gt;PAN&lt;/i&gt;&lt;/font&gt;&lt;br&gt;&lt;/p&gt;" style="rounded=0;whiteSpace=wrap;html=1;fontSize=16;fillColor=#d5e8d4;strokeColor=#82b366;" vertex="1" parent="1">
          <mxGeometry x="-2183.5" y="-2329.5" width="125" height="40" as="geometry" />
        </mxCell>
        <mxCell id="Pm54L190ve_4c7_TmMwI-63" value="&lt;font style=&quot;font-size: 11px;&quot;&gt;No&lt;/font&gt;" style="text;whiteSpace=wrap;html=1;fontSize=16;" vertex="1" parent="1">
          <mxGeometry x="-1907" y="-2334.5" width="21" height="29" as="geometry" />
        </mxCell>
        <mxCell id="Pm54L190ve_4c7_TmMwI-73" style="edgeStyle=orthogonalEdgeStyle;rounded=1;orthogonalLoop=1;jettySize=auto;html=1;entryX=0;entryY=0.5;entryDx=0;entryDy=0;entryPerimeter=0;fontSize=12;startSize=8;endSize=8;exitX=0.5;exitY=0;exitDx=0;exitDy=0;" edge="1" parent="1" source="Pm54L190ve_4c7_TmMwI-64" target="Pm54L190ve_4c7_TmMwI-52">
          <mxGeometry relative="1" as="geometry" />
        </mxCell>
        <mxCell id="Pm54L190ve_4c7_TmMwI-64" value="&lt;p style=&quot;line-height: 80%;&quot;&gt;&lt;font face=&quot;Calibri&quot;&gt;&lt;span style=&quot;font-size: 11.29px;&quot;&gt;Increment &lt;i&gt;PAN&lt;/i&gt;&amp;nbsp;pointer&lt;/span&gt;&lt;/font&gt;&lt;/p&gt;" style="rounded=0;whiteSpace=wrap;html=1;fontSize=16;fillColor=#d5e8d4;strokeColor=#82b366;" vertex="1" parent="1">
          <mxGeometry x="-2183" y="-2408.5" width="125" height="36.5" as="geometry" />
        </mxCell>
        <mxCell id="Pm54L190ve_4c7_TmMwI-70" style="edgeStyle=none;curved=1;rounded=0;orthogonalLoop=1;jettySize=auto;html=1;fontSize=12;startSize=8;endSize=8;" edge="1" parent="1" source="Pm54L190ve_4c7_TmMwI-65" target="Pm54L190ve_4c7_TmMwI-69">
          <mxGeometry relative="1" as="geometry" />
        </mxCell>
        <mxCell id="Pm54L190ve_4c7_TmMwI-83" style="edgeStyle=none;curved=1;rounded=0;orthogonalLoop=1;jettySize=auto;html=1;fontSize=12;startSize=8;endSize=8;" edge="1" parent="1" source="Pm54L190ve_4c7_TmMwI-65" target="Pm54L190ve_4c7_TmMwI-79">
          <mxGeometry relative="1" as="geometry" />
        </mxCell>
        <UserObject label="" Function="EN_DIO_Error_T DIO_init(uint8_t pinNumber, EN_DIO_PORT_T portNumber, EN_DIO_DIRECTION_T direction);" tags="Flowchart" id="Pm54L190ve_4c7_TmMwI-65">
          <mxCell style="vsdxID=219;fillColor=#fff2cc;shape=stencil(UzV2Ls5ILEhVNTIoLinKz04tz0wpyVA1dlE1MsrMy0gtyiwBslSNXVWNndPyi1LTi/JL81Ig/IJEkEoQKze/DGRCBUSfAUiHkUElhGcK4bpBVOZk5iGpNEVVikeloQHZpsK0YlWLz1QgA+HFtMycHEgIIcujBwlQCBKcxq4A);strokeColor=#d6b656;spacingTop=-1;spacingBottom=-1;spacingLeft=-1;spacingRight=-1;points=[[0,0.5,0],[1,0.5,0],[0.5,0,0],[0.5,1,0]];labelBackgroundColor=none;rounded=1;html=1;whiteSpace=wrap;fontFamily=Calibri;" vertex="1" parent="1">
            <mxGeometry x="-2012.5" y="-2226" width="101" height="76" as="geometry" />
          </mxCell>
        </UserObject>
        <mxCell id="Pm54L190ve_4c7_TmMwI-66" value="&lt;div style=&quot;font-size: 11.29px;&quot;&gt;Retrieved &lt;i&gt;PAN&lt;/i&gt;&amp;nbsp;is in valid range&lt;/div&gt;" style="text;vsdxID=219;fillColor=none;gradientColor=none;strokeColor=none;spacingTop=-1;spacingBottom=-1;spacingLeft=-1;spacingRight=-1;points=[[0,0.5,0],[1,0.5,0],[0.5,0,0],[0.5,1,0]];labelBackgroundColor=none;rounded=1;html=1;whiteSpace=wrap;verticalAlign=middle;align=center;overflow=width;;html=1;fontColor=#000000;fontFamily=Calibri;" vertex="1" parent="Pm54L190ve_4c7_TmMwI-65">
          <mxGeometry x="8.16" y="12" width="84.67" height="57.15" as="geometry" />
        </mxCell>
        <mxCell id="Pm54L190ve_4c7_TmMwI-69" value="&lt;p style=&quot;line-height: 80%;&quot;&gt;&lt;font style=&quot;font-size: 11.29px;&quot; face=&quot;Calibri&quot;&gt;&lt;i&gt;dataFlag&lt;/i&gt; = &lt;i&gt;DATA_NOT_FOUND&lt;/i&gt;&lt;/font&gt;&lt;br&gt;&lt;/p&gt;" style="rounded=0;whiteSpace=wrap;html=1;fontSize=16;fillColor=#d5e8d4;strokeColor=#82b366;" vertex="1" parent="1">
          <mxGeometry x="-2183.5" y="-2210.75" width="125" height="45.5" as="geometry" />
        </mxCell>
        <mxCell id="Pm54L190ve_4c7_TmMwI-77" value="&lt;font style=&quot;font-size: 11px;&quot;&gt;No&lt;/font&gt;" style="text;whiteSpace=wrap;html=1;fontSize=16;" vertex="1" parent="1">
          <mxGeometry x="-2040" y="-2216.5" width="21" height="29" as="geometry" />
        </mxCell>
        <mxCell id="Pm54L190ve_4c7_TmMwI-84" style="edgeStyle=none;curved=1;rounded=0;orthogonalLoop=1;jettySize=auto;html=1;fontSize=12;startSize=8;endSize=8;" edge="1" parent="1" source="Pm54L190ve_4c7_TmMwI-79" target="Pm54L190ve_4c7_TmMwI-81">
          <mxGeometry relative="1" as="geometry" />
        </mxCell>
        <UserObject label="" Function="EN_DIO_Error_T DIO_init(uint8_t pinNumber, EN_DIO_PORT_T portNumber, EN_DIO_DIRECTION_T direction);" tags="Flowchart" id="Pm54L190ve_4c7_TmMwI-79">
          <mxCell style="vsdxID=219;fillColor=#fff2cc;shape=stencil(UzV2Ls5ILEhVNTIoLinKz04tz0wpyVA1dlE1MsrMy0gtyiwBslSNXVWNndPyi1LTi/JL81Ig/IJEkEoQKze/DGRCBUSfAUiHkUElhGcK4bpBVOZk5iGpNEVVikeloQHZpsK0YlWLz1QgA+HFtMycHEgIIcujBwlQCBKcxq4A);strokeColor=#d6b656;spacingTop=-1;spacingBottom=-1;spacingLeft=-1;spacingRight=-1;points=[[0,0.5,0],[1,0.5,0],[0.5,0,0],[0.5,1,0]];labelBackgroundColor=none;rounded=1;html=1;whiteSpace=wrap;fontFamily=Calibri;" vertex="1" parent="1">
            <mxGeometry x="-2012.5" y="-2103.5" width="101" height="76" as="geometry" />
          </mxCell>
        </UserObject>
        <mxCell id="Pm54L190ve_4c7_TmMwI-80" value="&lt;div style=&quot;font-size: 11.29px;&quot;&gt;&lt;i style=&quot;border-color: var(--border-color);&quot;&gt;dataFlag&lt;/i&gt;&amp;nbsp;= &lt;i&gt;DATA_NOT&lt;/i&gt;&lt;/div&gt;&lt;div style=&quot;font-size: 11.29px;&quot;&gt;&lt;i&gt;_FOUND&lt;/i&gt;&lt;br&gt;&lt;/div&gt;" style="text;vsdxID=219;fillColor=none;gradientColor=none;strokeColor=none;spacingTop=-1;spacingBottom=-1;spacingLeft=-1;spacingRight=-1;points=[[0,0.5,0],[1,0.5,0],[0.5,0,0],[0.5,1,0]];labelBackgroundColor=none;rounded=1;html=1;whiteSpace=wrap;verticalAlign=middle;align=center;overflow=width;;html=1;fontColor=#000000;fontFamily=Calibri;" vertex="1" parent="Pm54L190ve_4c7_TmMwI-79">
          <mxGeometry x="8.16" y="9.42" width="84.67" height="57.15" as="geometry" />
        </mxCell>
        <UserObject label="&lt;div style=&quot;&quot;&gt;&lt;font style=&quot;font-size: 11.29px;&quot;&gt;Check for&lt;i&gt; PIN &lt;/i&gt;in its address&lt;/font&gt;&lt;br&gt;&lt;/div&gt;&lt;div style=&quot;&quot;&gt;&lt;font style=&quot;font-size: 11.29px;&quot;&gt;using&amp;nbsp;&lt;i&gt;EEPROM_readArray&lt;/i&gt;&amp;nbsp;function&lt;/font&gt;&lt;/div&gt;" Function="EN_DIO_Error_T DIO_toggle(uint8_t pinNumber, EN_DIO_PORT_T portNumber);  " tags="Flowchart" id="Pm54L190ve_4c7_TmMwI-81">
          <mxCell style="verticalAlign=middle;align=center;overflow=width;vsdxID=274;fillColor=#d5e8d4;shape=stencil(nZBLDoAgDERP0z3SIyjew0SURgSD+Lu9kMZoXLhwN9O+tukAlrNpJg1SzDH4QW/URgNYgZTkjA4UkwJUgGXng+6DX1zLfmoymdXo17xh5zmRJ6Q42BWCfc2oJfdAr+Yv+AP9Cb7OJ3H/2JG1HNGz/84klThPVCc=);strokeColor=#82b366;spacingTop=-1;spacingBottom=-1;spacingLeft=-1;spacingRight=-1;points=[[0,0.5,0],[1,0.5,0],[0.5,1,0],[0.5,0,0]];labelBackgroundColor=none;rounded=1;html=1;whiteSpace=wrap;fontFamily=Calibri;" vertex="1" parent="1">
            <mxGeometry x="-2047" y="-1979.5" width="170" height="41.5" as="geometry" />
          </mxCell>
        </UserObject>
        <mxCell id="Pm54L190ve_4c7_TmMwI-85" value="&lt;font style=&quot;font-size: 11px;&quot;&gt;No&lt;/font&gt;" style="text;whiteSpace=wrap;html=1;fontSize=16;" vertex="1" parent="1">
          <mxGeometry x="-1956" y="-2022.5" width="21" height="29" as="geometry" />
        </mxCell>
        <mxCell id="Pm54L190ve_4c7_TmMwI-87" value="&lt;font style=&quot;font-size: 11px;&quot;&gt;Yes&lt;/font&gt;" style="text;whiteSpace=wrap;html=1;fontSize=16;" vertex="1" parent="1">
          <mxGeometry x="-1956" y="-2144.5" width="21" height="29" as="geometry" />
        </mxCell>
        <mxCell id="Pm54L190ve_4c7_TmMwI-112" style="edgeStyle=none;curved=1;rounded=0;orthogonalLoop=1;jettySize=auto;html=1;entryX=0.5;entryY=0;entryDx=0;entryDy=0;entryPerimeter=0;fontSize=12;startSize=8;endSize=8;" edge="1" parent="1" source="Pm54L190ve_4c7_TmMwI-89" target="Pm54L190ve_4c7_TmMwI-100">
          <mxGeometry relative="1" as="geometry" />
        </mxCell>
        <mxCell id="Pm54L190ve_4c7_TmMwI-118" style="edgeStyle=orthogonalEdgeStyle;rounded=1;orthogonalLoop=1;jettySize=auto;html=1;entryX=1;entryY=0.5;entryDx=0;entryDy=0;entryPerimeter=0;fontSize=12;startSize=8;endSize=8;exitX=1;exitY=0.5;exitDx=0;exitDy=0;exitPerimeter=0;" edge="1" parent="1" source="Pm54L190ve_4c7_TmMwI-89" target="Pm54L190ve_4c7_TmMwI-113">
          <mxGeometry relative="1" as="geometry">
            <Array as="points">
              <mxPoint x="-1730" y="-1851" />
              <mxPoint x="-1730" y="-1578" />
            </Array>
          </mxGeometry>
        </mxCell>
        <UserObject label="" Function="EN_DIO_Error_T DIO_init(uint8_t pinNumber, EN_DIO_PORT_T portNumber, EN_DIO_DIRECTION_T direction);" tags="Flowchart" id="Pm54L190ve_4c7_TmMwI-89">
          <mxCell style="vsdxID=219;fillColor=#fff2cc;shape=stencil(UzV2Ls5ILEhVNTIoLinKz04tz0wpyVA1dlE1MsrMy0gtyiwBslSNXVWNndPyi1LTi/JL81Ig/IJEkEoQKze/DGRCBUSfAUiHkUElhGcK4bpBVOZk5iGpNEVVikeloQHZpsK0YlWLz1QgA+HFtMycHEgIIcujBwlQCBKcxq4A);strokeColor=#d6b656;spacingTop=-1;spacingBottom=-1;spacingLeft=-1;spacingRight=-1;points=[[0,0.5,0],[1,0.5,0],[0.5,0,0],[0.5,1,0]];labelBackgroundColor=none;rounded=1;html=1;whiteSpace=wrap;fontFamily=Calibri;" vertex="1" parent="1">
            <mxGeometry x="-2012.5" y="-1889" width="101" height="76" as="geometry" />
          </mxCell>
        </UserObject>
        <mxCell id="Pm54L190ve_4c7_TmMwI-90" value="&lt;div style=&quot;font-size: 11.29px;&quot;&gt;Reached &#39;\0&#39;&lt;/div&gt;&lt;div style=&quot;font-size: 11.29px;&quot;&gt;Character&lt;/div&gt;" style="text;vsdxID=219;fillColor=none;gradientColor=none;strokeColor=none;spacingTop=-1;spacingBottom=-1;spacingLeft=-1;spacingRight=-1;points=[[0,0.5,0],[1,0.5,0],[0.5,0,0],[0.5,1,0]];labelBackgroundColor=none;rounded=1;html=1;whiteSpace=wrap;verticalAlign=middle;align=center;overflow=width;;html=1;fontColor=#000000;fontFamily=Calibri;" vertex="1" parent="Pm54L190ve_4c7_TmMwI-89">
          <mxGeometry x="8.16" y="12" width="84.67" height="57.15" as="geometry" />
        </mxCell>
        <mxCell id="Pm54L190ve_4c7_TmMwI-95" style="edgeStyle=none;curved=1;rounded=0;orthogonalLoop=1;jettySize=auto;html=1;fontSize=12;startSize=8;endSize=8;exitX=0.5;exitY=1;exitDx=0;exitDy=0;exitPerimeter=0;entryX=0.5;entryY=0;entryDx=0;entryDy=0;entryPerimeter=0;" edge="1" parent="1" source="Pm54L190ve_4c7_TmMwI-81" target="Pm54L190ve_4c7_TmMwI-89">
          <mxGeometry relative="1" as="geometry">
            <mxPoint x="-1962" y="-1932" as="sourcePoint" />
            <mxPoint x="-1962.24" y="-1886.5" as="targetPoint" />
          </mxGeometry>
        </mxCell>
        <mxCell id="Pm54L190ve_4c7_TmMwI-98" style="edgeStyle=none;curved=1;rounded=0;orthogonalLoop=1;jettySize=auto;html=1;fontSize=12;startSize=8;endSize=8;" edge="1" parent="1" source="Pm54L190ve_4c7_TmMwI-100" target="Pm54L190ve_4c7_TmMwI-103">
          <mxGeometry relative="1" as="geometry" />
        </mxCell>
        <mxCell id="Pm54L190ve_4c7_TmMwI-99" style="edgeStyle=none;curved=1;rounded=0;orthogonalLoop=1;jettySize=auto;html=1;entryX=1;entryY=0.5;entryDx=0;entryDy=0;fontSize=12;startSize=8;endSize=8;" edge="1" parent="1" source="Pm54L190ve_4c7_TmMwI-100" target="Pm54L190ve_4c7_TmMwI-105">
          <mxGeometry relative="1" as="geometry" />
        </mxCell>
        <UserObject label="" Function="EN_DIO_Error_T DIO_init(uint8_t pinNumber, EN_DIO_PORT_T portNumber, EN_DIO_DIRECTION_T direction);" tags="Flowchart" id="Pm54L190ve_4c7_TmMwI-100">
          <mxCell style="vsdxID=219;fillColor=#fff2cc;shape=stencil(UzV2Ls5ILEhVNTIoLinKz04tz0wpyVA1dlE1MsrMy0gtyiwBslSNXVWNndPyi1LTi/JL81Ig/IJEkEoQKze/DGRCBUSfAUiHkUElhGcK4bpBVOZk5iGpNEVVikeloQHZpsK0YlWLz1QgA+HFtMycHEgIIcujBwlQCBKcxq4A);strokeColor=#d6b656;spacingTop=-1;spacingBottom=-1;spacingLeft=-1;spacingRight=-1;points=[[0,0.5,0],[1,0.5,0],[0.5,0,0],[0.5,1,0]];labelBackgroundColor=none;rounded=1;html=1;whiteSpace=wrap;fontFamily=Calibri;" vertex="1" parent="1">
            <mxGeometry x="-2012.55" y="-1737.5" width="101" height="76" as="geometry" />
          </mxCell>
        </UserObject>
        <mxCell id="Pm54L190ve_4c7_TmMwI-101" value="&lt;div style=&quot;font-size: 11.29px;&quot;&gt;Retrieved&amp;nbsp;&lt;/div&gt;&lt;div style=&quot;font-size: 11.29px;&quot;&gt;&lt;i&gt;PIN&lt;/i&gt;&amp;nbsp;is a numeric&amp;nbsp;&lt;/div&gt;&lt;div style=&quot;font-size: 11.29px;&quot;&gt;value&lt;/div&gt;" style="text;vsdxID=219;fillColor=none;gradientColor=none;strokeColor=none;spacingTop=-1;spacingBottom=-1;spacingLeft=-1;spacingRight=-1;points=[[0,0.5,0],[1,0.5,0],[0.5,0,0],[0.5,1,0]];labelBackgroundColor=none;rounded=1;html=1;whiteSpace=wrap;verticalAlign=middle;align=center;overflow=width;;html=1;fontColor=#000000;fontFamily=Calibri;" vertex="1" parent="Pm54L190ve_4c7_TmMwI-100">
          <mxGeometry x="8.16" y="12" width="84.67" height="57.15" as="geometry" />
        </mxCell>
        <mxCell id="Pm54L190ve_4c7_TmMwI-102" style="edgeStyle=orthogonalEdgeStyle;rounded=1;orthogonalLoop=1;jettySize=auto;html=1;fontSize=12;startSize=8;endSize=8;exitX=0.5;exitY=1;exitDx=0;exitDy=0;entryX=0.5;entryY=0;entryDx=0;entryDy=0;entryPerimeter=0;" edge="1" parent="1" source="Pm54L190ve_4c7_TmMwI-103" target="Pm54L190ve_4c7_TmMwI-113">
          <mxGeometry relative="1" as="geometry">
            <mxPoint x="-1962" y="-1624" as="targetPoint" />
          </mxGeometry>
        </mxCell>
        <mxCell id="Pm54L190ve_4c7_TmMwI-103" value="&lt;p style=&quot;line-height: 80%;&quot;&gt;&lt;font style=&quot;font-size: 11.29px;&quot; face=&quot;Calibri&quot;&gt;&lt;i&gt;dataFlag&lt;/i&gt; = &lt;i&gt;DATA_NOT_FOUND&lt;/i&gt;&lt;/font&gt;&lt;br&gt;&lt;/p&gt;" style="rounded=0;whiteSpace=wrap;html=1;fontSize=16;fillColor=#d5e8d4;strokeColor=#82b366;" vertex="1" parent="1">
          <mxGeometry x="-1873" y="-1722.25" width="125" height="45.5" as="geometry" />
        </mxCell>
        <mxCell id="Pm54L190ve_4c7_TmMwI-104" style="edgeStyle=none;curved=1;rounded=0;orthogonalLoop=1;jettySize=auto;html=1;fontSize=12;startSize=8;endSize=8;" edge="1" parent="1" source="Pm54L190ve_4c7_TmMwI-105" target="Pm54L190ve_4c7_TmMwI-107">
          <mxGeometry relative="1" as="geometry" />
        </mxCell>
        <mxCell id="Pm54L190ve_4c7_TmMwI-105" value="&lt;p style=&quot;line-height: 80%;&quot;&gt;&lt;font size=&quot;1&quot; face=&quot;Calibri&quot;&gt;&lt;span style=&quot;font-size: 11.29px;&quot;&gt;Store retrieved &lt;/span&gt;&lt;i style=&quot;font-size: 11.29px;&quot;&gt;PIN&lt;/i&gt;&lt;/font&gt;&lt;br&gt;&lt;/p&gt;" style="rounded=0;whiteSpace=wrap;html=1;fontSize=16;fillColor=#d5e8d4;strokeColor=#82b366;" vertex="1" parent="1">
          <mxGeometry x="-2183.5" y="-1719.5" width="125" height="40" as="geometry" />
        </mxCell>
        <mxCell id="Pm54L190ve_4c7_TmMwI-106" value="&lt;font style=&quot;font-size: 11px;&quot;&gt;No&lt;/font&gt;" style="text;whiteSpace=wrap;html=1;fontSize=16;" vertex="1" parent="1">
          <mxGeometry x="-1907" y="-1724.5" width="21" height="29" as="geometry" />
        </mxCell>
        <mxCell id="Pm54L190ve_4c7_TmMwI-116" style="edgeStyle=orthogonalEdgeStyle;rounded=1;orthogonalLoop=1;jettySize=auto;html=1;entryX=0;entryY=0.5;entryDx=0;entryDy=0;entryPerimeter=0;fontSize=12;startSize=8;endSize=8;exitX=0.5;exitY=0;exitDx=0;exitDy=0;" edge="1" parent="1" source="Pm54L190ve_4c7_TmMwI-107" target="Pm54L190ve_4c7_TmMwI-89">
          <mxGeometry relative="1" as="geometry" />
        </mxCell>
        <mxCell id="Pm54L190ve_4c7_TmMwI-107" value="&lt;p style=&quot;line-height: 80%;&quot;&gt;&lt;font face=&quot;Calibri&quot;&gt;&lt;span style=&quot;font-size: 11.29px;&quot;&gt;Increment &lt;i&gt;PiN&lt;/i&gt;&amp;nbsp;pointer&lt;/span&gt;&lt;/font&gt;&lt;/p&gt;" style="rounded=0;whiteSpace=wrap;html=1;fontSize=16;fillColor=#d5e8d4;strokeColor=#82b366;" vertex="1" parent="1">
          <mxGeometry x="-2183.5" y="-1801" width="125" height="36.5" as="geometry" />
        </mxCell>
        <mxCell id="Pm54L190ve_4c7_TmMwI-110" value="&lt;p style=&quot;line-height: 80%;&quot;&gt;&lt;font style=&quot;font-size: 11.29px;&quot; face=&quot;Calibri&quot;&gt;&lt;i&gt;dataFlag&lt;/i&gt; = &lt;i&gt;DATA_NOT_FOUND&lt;/i&gt;&lt;/font&gt;&lt;br&gt;&lt;/p&gt;" style="rounded=0;whiteSpace=wrap;html=1;fontSize=16;fillColor=#d5e8d4;strokeColor=#82b366;" vertex="1" parent="1">
          <mxGeometry x="-2183.5" y="-1600.75" width="125" height="45.5" as="geometry" />
        </mxCell>
        <mxCell id="Pm54L190ve_4c7_TmMwI-111" value="&lt;font style=&quot;font-size: 11px;&quot;&gt;No&lt;/font&gt;" style="text;whiteSpace=wrap;html=1;fontSize=16;" vertex="1" parent="1">
          <mxGeometry x="-2040" y="-1607" width="21" height="29" as="geometry" />
        </mxCell>
        <mxCell id="Pm54L190ve_4c7_TmMwI-115" style="edgeStyle=none;curved=1;rounded=0;orthogonalLoop=1;jettySize=auto;html=1;entryX=1;entryY=0.5;entryDx=0;entryDy=0;fontSize=12;startSize=8;endSize=8;" edge="1" parent="1" source="Pm54L190ve_4c7_TmMwI-113" target="Pm54L190ve_4c7_TmMwI-110">
          <mxGeometry relative="1" as="geometry" />
        </mxCell>
        <mxCell id="Pm54L190ve_4c7_TmMwI-125" style="edgeStyle=none;curved=1;rounded=0;orthogonalLoop=1;jettySize=auto;html=1;fontSize=12;startSize=8;endSize=8;" edge="1" parent="1" source="Pm54L190ve_4c7_TmMwI-113" target="Pm54L190ve_4c7_TmMwI-120">
          <mxGeometry relative="1" as="geometry" />
        </mxCell>
        <UserObject label="" Function="EN_DIO_Error_T DIO_init(uint8_t pinNumber, EN_DIO_PORT_T portNumber, EN_DIO_DIRECTION_T direction);" tags="Flowchart" id="Pm54L190ve_4c7_TmMwI-113">
          <mxCell style="vsdxID=219;fillColor=#fff2cc;shape=stencil(UzV2Ls5ILEhVNTIoLinKz04tz0wpyVA1dlE1MsrMy0gtyiwBslSNXVWNndPyi1LTi/JL81Ig/IJEkEoQKze/DGRCBUSfAUiHkUElhGcK4bpBVOZk5iGpNEVVikeloQHZpsK0YlWLz1QgA+HFtMycHEgIIcujBwlQCBKcxq4A);strokeColor=#d6b656;spacingTop=-1;spacingBottom=-1;spacingLeft=-1;spacingRight=-1;points=[[0,0.5,0],[1,0.5,0],[0.5,0,0],[0.5,1,0]];labelBackgroundColor=none;rounded=1;html=1;whiteSpace=wrap;fontFamily=Calibri;" vertex="1" parent="1">
            <mxGeometry x="-2012.5" y="-1616" width="101" height="76" as="geometry" />
          </mxCell>
        </UserObject>
        <mxCell id="Pm54L190ve_4c7_TmMwI-114" value="&lt;div style=&quot;font-size: 11.29px;&quot;&gt;Retrieved &lt;i&gt;PIN&lt;/i&gt;&amp;nbsp;is&amp;nbsp;&lt;/div&gt;&lt;div style=&quot;font-size: 11.29px;&quot;&gt;in valid range&lt;/div&gt;" style="text;vsdxID=219;fillColor=none;gradientColor=none;strokeColor=none;spacingTop=-1;spacingBottom=-1;spacingLeft=-1;spacingRight=-1;points=[[0,0.5,0],[1,0.5,0],[0.5,0,0],[0.5,1,0]];labelBackgroundColor=none;rounded=1;html=1;whiteSpace=wrap;verticalAlign=middle;align=center;overflow=width;;html=1;fontColor=#000000;fontFamily=Calibri;" vertex="1" parent="Pm54L190ve_4c7_TmMwI-113">
          <mxGeometry x="8.16" y="12" width="84.67" height="57.15" as="geometry" />
        </mxCell>
        <UserObject label="&lt;div style=&quot;font-size: 1px&quot;&gt;&lt;font style=&quot;font-size: 11.29px; direction: ltr; letter-spacing: 0px; line-height: 120%; opacity: 1;&quot;&gt;Return &lt;i&gt;dataFlag&lt;/i&gt;&lt;br&gt;&lt;/font&gt;&lt;/div&gt;" Function="EN_DIO_Error_T DIO_init(uint8_t pinNumber, EN_DIO_PORT_T portNumber, EN_DIO_DIRECTION_T direction);" tags="Flowchart" id="Pm54L190ve_4c7_TmMwI-120">
          <mxCell style="verticalAlign=middle;align=center;overflow=width;vsdxID=30;fillColor=#dae8fc;shape=stencil(tVLREoIgEPwaHnEQxsl3s/9gEpSJwDko7e+DsEkze2l627vdu5uFRaxyHe8FosR5sCcxqMZ3iO0Rpcp0ApQPCLEasUpaEC3Yi2lS3fOojOhsr3HDmObyMtsVcYqS29Qh5FEfklwrM5OXeUa/yjkcAwfr7TDpiyTfXvjkMR+Vw2A998qaBac5tAKHU1hq3i4oNwjRr9ofvayt/+Rk+yX/4iWA159KpXWKxJx/z0Bopfyw+g4=);strokeColor=#6c8ebf;spacingTop=-1;spacingBottom=-1;spacingLeft=-1;spacingRight=-1;points=[[0.5,1,0],[0.5,0,0],[0,0.5,0],[1,0.5,0]];labelBackgroundColor=none;rounded=1;html=1;whiteSpace=wrap;fontFamily=Calibri;" vertex="1" parent="1">
            <mxGeometry x="-2012.5" y="-1480" width="101" height="38" as="geometry" />
          </mxCell>
        </UserObject>
        <mxCell id="Pm54L190ve_4c7_TmMwI-121" value="&lt;font style=&quot;font-size: 11px;&quot;&gt;Yes&lt;/font&gt;" style="text;whiteSpace=wrap;html=1;fontSize=16;" vertex="1" parent="1">
          <mxGeometry x="-1821" y="-1880" width="21" height="29" as="geometry" />
        </mxCell>
        <mxCell id="Pm54L190ve_4c7_TmMwI-126" style="edgeStyle=orthogonalEdgeStyle;rounded=1;orthogonalLoop=1;jettySize=auto;html=1;fontSize=12;startSize=8;endSize=8;entryX=0;entryY=0.5;entryDx=0;entryDy=0;entryPerimeter=0;exitX=0;exitY=0.5;exitDx=0;exitDy=0;exitPerimeter=0;" edge="1" parent="1" source="Pm54L190ve_4c7_TmMwI-79" target="Pm54L190ve_4c7_TmMwI-120">
          <mxGeometry relative="1" as="geometry">
            <mxPoint x="-2002.9999569163601" y="-1507.0587732651652" as="targetPoint" />
            <Array as="points">
              <mxPoint x="-2204" y="-2066" />
              <mxPoint x="-2204" y="-1461" />
            </Array>
          </mxGeometry>
        </mxCell>
        <mxCell id="Pm54L190ve_4c7_TmMwI-127" value="APP_checkUserInput" style="text;whiteSpace=wrap;html=1;fontSize=16;" vertex="1" parent="1">
          <mxGeometry x="-1454" y="-2746" width="180" height="41" as="geometry" />
        </mxCell>
        <mxCell id="Pm54L190ve_4c7_TmMwI-142" style="edgeStyle=none;curved=1;rounded=0;orthogonalLoop=1;jettySize=auto;html=1;entryX=0.5;entryY=0;entryDx=0;entryDy=0;entryPerimeter=0;fontSize=12;startSize=8;endSize=8;" edge="1" parent="1" source="Pm54L190ve_4c7_TmMwI-128" target="Pm54L190ve_4c7_TmMwI-129">
          <mxGeometry relative="1" as="geometry" />
        </mxCell>
        <UserObject label="&lt;div style=&quot;font-size: 1px&quot;&gt;&lt;font style=&quot;font-size: 11.29px; direction: ltr; letter-spacing: 0px; line-height: 120%; opacity: 1;&quot;&gt;Start&lt;br&gt;&lt;/font&gt;&lt;/div&gt;" Function="EN_DIO_Error_T DIO_init(uint8_t pinNumber, EN_DIO_PORT_T portNumber, EN_DIO_DIRECTION_T direction);" tags="Flowchart" id="Pm54L190ve_4c7_TmMwI-128">
          <mxCell style="verticalAlign=middle;align=center;overflow=width;vsdxID=30;fillColor=#dae8fc;shape=stencil(tVLREoIgEPwaHnEQxsl3s/9gEpSJwDko7e+DsEkze2l627vdu5uFRaxyHe8FosR5sCcxqMZ3iO0Rpcp0ApQPCLEasUpaEC3Yi2lS3fOojOhsr3HDmObyMtsVcYqS29Qh5FEfklwrM5OXeUa/yjkcAwfr7TDpiyTfXvjkMR+Vw2A998qaBac5tAKHU1hq3i4oNwjRr9ofvayt/+Rk+yX/4iWA159KpXWKxJx/z0Bopfyw+g4=);strokeColor=#6c8ebf;spacingTop=-1;spacingBottom=-1;spacingLeft=-1;spacingRight=-1;points=[[0.5,1,0],[0.5,0,0],[0,0.5,0],[1,0.5,0]];labelBackgroundColor=none;rounded=1;html=1;whiteSpace=wrap;fontFamily=Calibri;" vertex="1" parent="1">
            <mxGeometry x="-1427" y="-2682" width="101" height="38" as="geometry" />
          </mxCell>
        </UserObject>
        <mxCell id="Pm54L190ve_4c7_TmMwI-144" style="edgeStyle=none;curved=1;rounded=0;orthogonalLoop=1;jettySize=auto;html=1;fontSize=12;startSize=8;endSize=8;" edge="1" parent="1" source="Pm54L190ve_4c7_TmMwI-129" target="Pm54L190ve_4c7_TmMwI-131">
          <mxGeometry relative="1" as="geometry" />
        </mxCell>
        <mxCell id="Pm54L190ve_4c7_TmMwI-165" style="edgeStyle=orthogonalEdgeStyle;rounded=1;orthogonalLoop=1;jettySize=auto;html=1;fontSize=12;startSize=8;endSize=8;entryX=1;entryY=0.5;entryDx=0;entryDy=0;entryPerimeter=0;exitX=1;exitY=0.5;exitDx=0;exitDy=0;exitPerimeter=0;" edge="1" parent="1" source="Pm54L190ve_4c7_TmMwI-129" target="Pm54L190ve_4c7_TmMwI-155">
          <mxGeometry relative="1" as="geometry">
            <mxPoint x="-1135.2000122070312" y="-2566" as="targetPoint" />
            <Array as="points">
              <mxPoint x="-1081" y="-2566" />
              <mxPoint x="-1081" y="-1858" />
            </Array>
          </mxGeometry>
        </mxCell>
        <UserObject label="" Function="EN_DIO_Error_T DIO_init(uint8_t pinNumber, EN_DIO_PORT_T portNumber, EN_DIO_DIRECTION_T direction);" tags="Flowchart" id="Pm54L190ve_4c7_TmMwI-129">
          <mxCell style="vsdxID=219;fillColor=#fff2cc;shape=stencil(UzV2Ls5ILEhVNTIoLinKz04tz0wpyVA1dlE1MsrMy0gtyiwBslSNXVWNndPyi1LTi/JL81Ig/IJEkEoQKze/DGRCBUSfAUiHkUElhGcK4bpBVOZk5iGpNEVVikeloQHZpsK0YlWLz1QgA+HFtMycHEgIIcujBwlQCBKcxq4A);strokeColor=#d6b656;spacingTop=-1;spacingBottom=-1;spacingLeft=-1;spacingRight=-1;points=[[0,0.5,0],[1,0.5,0],[0.5,0,0],[0.5,1,0]];labelBackgroundColor=none;rounded=1;html=1;whiteSpace=wrap;fontFamily=Calibri;" vertex="1" parent="1">
            <mxGeometry x="-1427.5" y="-2604" width="101" height="76" as="geometry" />
          </mxCell>
        </UserObject>
        <mxCell id="Pm54L190ve_4c7_TmMwI-130" value="&lt;font style=&quot;font-size: 11.29px;&quot;&gt;User entered &lt;br&gt;&lt;i&gt;&#39;1&#39;&lt;/i&gt; or &#39;&lt;i&gt;2&#39;&lt;/i&gt;&lt;/font&gt;" style="text;vsdxID=219;fillColor=none;gradientColor=none;strokeColor=none;spacingTop=-1;spacingBottom=-1;spacingLeft=-1;spacingRight=-1;points=[[0,0.5,0],[1,0.5,0],[0.5,0,0],[0.5,1,0]];labelBackgroundColor=none;rounded=1;html=1;whiteSpace=wrap;verticalAlign=middle;align=center;overflow=width;;html=1;fontColor=#000000;fontFamily=Calibri;" vertex="1" parent="Pm54L190ve_4c7_TmMwI-129">
          <mxGeometry x="8.16" y="12" width="84.67" height="57.15" as="geometry" />
        </mxCell>
        <mxCell id="Pm54L190ve_4c7_TmMwI-145" style="edgeStyle=none;curved=1;rounded=0;orthogonalLoop=1;jettySize=auto;html=1;fontSize=12;startSize=8;endSize=8;" edge="1" parent="1" source="Pm54L190ve_4c7_TmMwI-131" target="Pm54L190ve_4c7_TmMwI-132">
          <mxGeometry relative="1" as="geometry" />
        </mxCell>
        <UserObject label="&lt;div style=&quot;&quot;&gt;&lt;span style=&quot;font-size: 11.29px;&quot;&gt;Display &quot;Press &lt;i&gt;1&lt;/i&gt;&amp;nbsp;for User Mode or Press&amp;nbsp;&lt;i&gt;2&lt;/i&gt; for Programmer Mode&quot;&lt;i&gt; &lt;/i&gt;on &lt;i&gt;UART,&lt;/i&gt; using &lt;i&gt;UART_transmitString&lt;/i&gt;&amp;nbsp;function&lt;/span&gt;&lt;/div&gt;" Function="EN_DIO_Error_T DIO_toggle(uint8_t pinNumber, EN_DIO_PORT_T portNumber);  " tags="Flowchart" id="Pm54L190ve_4c7_TmMwI-131">
          <mxCell style="verticalAlign=middle;align=center;overflow=width;vsdxID=274;fillColor=#d5e8d4;shape=stencil(nZBLDoAgDERP0z3SIyjew0SURgSD+Lu9kMZoXLhwN9O+tukAlrNpJg1SzDH4QW/URgNYgZTkjA4UkwJUgGXng+6DX1zLfmoymdXo17xh5zmRJ6Q42BWCfc2oJfdAr+Yv+AP9Cb7OJ3H/2JG1HNGz/84klThPVCc=);strokeColor=#82b366;spacingTop=-1;spacingBottom=-1;spacingLeft=-1;spacingRight=-1;points=[[0,0.5,0],[1,0.5,0],[0.5,1,0],[0.5,0,0]];labelBackgroundColor=none;rounded=1;html=1;whiteSpace=wrap;fontFamily=Calibri;" vertex="1" parent="1">
            <mxGeometry x="-1467" y="-2488.5" width="180" height="70" as="geometry" />
          </mxCell>
        </UserObject>
        <mxCell id="Pm54L190ve_4c7_TmMwI-146" style="edgeStyle=none;curved=1;rounded=0;orthogonalLoop=1;jettySize=auto;html=1;fontSize=12;startSize=8;endSize=8;" edge="1" parent="1" source="Pm54L190ve_4c7_TmMwI-132" target="Pm54L190ve_4c7_TmMwI-135">
          <mxGeometry relative="1" as="geometry" />
        </mxCell>
        <UserObject label="&lt;div style=&quot;&quot;&gt;&lt;span style=&quot;font-size: 11.29px;&quot;&gt;Get &lt;i&gt;usrInput &lt;/i&gt;on &lt;i&gt;UART,&lt;/i&gt; using &lt;i&gt;UART_receiveByteBlock &lt;/i&gt;function&lt;/span&gt;&lt;/div&gt;" Function="EN_DIO_Error_T DIO_toggle(uint8_t pinNumber, EN_DIO_PORT_T portNumber);  " tags="Flowchart" id="Pm54L190ve_4c7_TmMwI-132">
          <mxCell style="verticalAlign=middle;align=center;overflow=width;vsdxID=274;fillColor=#d5e8d4;shape=stencil(nZBLDoAgDERP0z3SIyjew0SURgSD+Lu9kMZoXLhwN9O+tukAlrNpJg1SzDH4QW/URgNYgZTkjA4UkwJUgGXng+6DX1zLfmoymdXo17xh5zmRJ6Q42BWCfc2oJfdAr+Yv+AP9Cb7OJ3H/2JG1HNGz/84klThPVCc=);strokeColor=#82b366;spacingTop=-1;spacingBottom=-1;spacingLeft=-1;spacingRight=-1;points=[[0,0.5,0],[1,0.5,0],[0.5,1,0],[0.5,0,0]];labelBackgroundColor=none;rounded=1;html=1;whiteSpace=wrap;fontFamily=Calibri;" vertex="1" parent="1">
            <mxGeometry x="-1467" y="-2375" width="180" height="45" as="geometry" />
          </mxCell>
        </UserObject>
        <mxCell id="Pm54L190ve_4c7_TmMwI-147" style="edgeStyle=none;curved=1;rounded=0;orthogonalLoop=1;jettySize=auto;html=1;entryX=0.5;entryY=0;entryDx=0;entryDy=0;entryPerimeter=0;fontSize=12;startSize=8;endSize=8;" edge="1" parent="1" source="Pm54L190ve_4c7_TmMwI-135" target="Pm54L190ve_4c7_TmMwI-136">
          <mxGeometry relative="1" as="geometry" />
        </mxCell>
        <UserObject label="&lt;div style=&quot;&quot;&gt;&lt;span style=&quot;font-size: 11.29px;&quot;&gt;Switch on&amp;nbsp;&lt;i&gt;usrInput&amp;nbsp;&lt;/i&gt;&lt;/span&gt;&lt;/div&gt;" Function="EN_DIO_Error_T DIO_toggle(uint8_t pinNumber, EN_DIO_PORT_T portNumber);  " tags="Flowchart" id="Pm54L190ve_4c7_TmMwI-135">
          <mxCell style="verticalAlign=middle;align=center;overflow=width;vsdxID=274;fillColor=#d5e8d4;shape=stencil(nZBLDoAgDERP0z3SIyjew0SURgSD+Lu9kMZoXLhwN9O+tukAlrNpJg1SzDH4QW/URgNYgZTkjA4UkwJUgGXng+6DX1zLfmoymdXo17xh5zmRJ6Q42BWCfc2oJfdAr+Yv+AP9Cb7OJ3H/2JG1HNGz/84klThPVCc=);strokeColor=#82b366;spacingTop=-1;spacingBottom=-1;spacingLeft=-1;spacingRight=-1;points=[[0,0.5,0],[1,0.5,0],[0.5,1,0],[0.5,0,0]];labelBackgroundColor=none;rounded=1;html=1;whiteSpace=wrap;fontFamily=Calibri;" vertex="1" parent="1">
            <mxGeometry x="-1466.5" y="-2289.5" width="180" height="45" as="geometry" />
          </mxCell>
        </UserObject>
        <mxCell id="Pm54L190ve_4c7_TmMwI-148" style="edgeStyle=none;curved=1;rounded=0;orthogonalLoop=1;jettySize=auto;html=1;fontSize=12;startSize=8;endSize=8;" edge="1" parent="1" source="Pm54L190ve_4c7_TmMwI-136" target="Pm54L190ve_4c7_TmMwI-138">
          <mxGeometry relative="1" as="geometry" />
        </mxCell>
        <mxCell id="Pm54L190ve_4c7_TmMwI-152" style="edgeStyle=none;curved=1;rounded=0;orthogonalLoop=1;jettySize=auto;html=1;entryX=0;entryY=0.5;entryDx=0;entryDy=0;entryPerimeter=0;fontSize=12;startSize=8;endSize=8;" edge="1" parent="1" source="Pm54L190ve_4c7_TmMwI-136" target="Pm54L190ve_4c7_TmMwI-150">
          <mxGeometry relative="1" as="geometry" />
        </mxCell>
        <UserObject label="" Function="EN_DIO_Error_T DIO_init(uint8_t pinNumber, EN_DIO_PORT_T portNumber, EN_DIO_DIRECTION_T direction);" tags="Flowchart" id="Pm54L190ve_4c7_TmMwI-136">
          <mxCell style="vsdxID=219;fillColor=#fff2cc;shape=stencil(UzV2Ls5ILEhVNTIoLinKz04tz0wpyVA1dlE1MsrMy0gtyiwBslSNXVWNndPyi1LTi/JL81Ig/IJEkEoQKze/DGRCBUSfAUiHkUElhGcK4bpBVOZk5iGpNEVVikeloQHZpsK0YlWLz1QgA+HFtMycHEgIIcujBwlQCBKcxq4A);strokeColor=#d6b656;spacingTop=-1;spacingBottom=-1;spacingLeft=-1;spacingRight=-1;points=[[0,0.5,0],[1,0.5,0],[0.5,0,0],[0.5,1,0]];labelBackgroundColor=none;rounded=1;html=1;whiteSpace=wrap;fontFamily=Calibri;" vertex="1" parent="1">
            <mxGeometry x="-1427" y="-2206" width="101" height="76" as="geometry" />
          </mxCell>
        </UserObject>
        <mxCell id="Pm54L190ve_4c7_TmMwI-137" value="&lt;div style=&quot;font-size: 11.29px;&quot;&gt;&lt;font style=&quot;font-size: 11.29px;&quot;&gt;Case&lt;/font&gt;&lt;/div&gt;&lt;font style=&quot;font-size: 11.29px;&quot;&gt;&#39;&lt;i style=&quot;&quot;&gt;1&lt;/i&gt;&#39;&lt;/font&gt;" style="text;vsdxID=219;fillColor=none;gradientColor=none;strokeColor=none;spacingTop=-1;spacingBottom=-1;spacingLeft=-1;spacingRight=-1;points=[[0,0.5,0],[1,0.5,0],[0.5,0,0],[0.5,1,0]];labelBackgroundColor=none;rounded=1;html=1;whiteSpace=wrap;verticalAlign=middle;align=center;overflow=width;;html=1;fontColor=#000000;fontFamily=Calibri;" vertex="1" parent="Pm54L190ve_4c7_TmMwI-136">
          <mxGeometry x="8.17" y="9.42" width="84.67" height="57.15" as="geometry" />
        </mxCell>
        <mxCell id="Pm54L190ve_4c7_TmMwI-149" style="edgeStyle=none;curved=1;rounded=0;orthogonalLoop=1;jettySize=auto;html=1;entryX=0.5;entryY=0;entryDx=0;entryDy=0;entryPerimeter=0;fontSize=12;startSize=8;endSize=8;" edge="1" parent="1" source="Pm54L190ve_4c7_TmMwI-138" target="Pm54L190ve_4c7_TmMwI-140">
          <mxGeometry relative="1" as="geometry" />
        </mxCell>
        <mxCell id="Pm54L190ve_4c7_TmMwI-153" style="edgeStyle=none;curved=1;rounded=0;orthogonalLoop=1;jettySize=auto;html=1;fontSize=12;startSize=8;endSize=8;" edge="1" parent="1" source="Pm54L190ve_4c7_TmMwI-138" target="Pm54L190ve_4c7_TmMwI-151">
          <mxGeometry relative="1" as="geometry" />
        </mxCell>
        <UserObject label="" Function="EN_DIO_Error_T DIO_init(uint8_t pinNumber, EN_DIO_PORT_T portNumber, EN_DIO_DIRECTION_T direction);" tags="Flowchart" id="Pm54L190ve_4c7_TmMwI-138">
          <mxCell style="vsdxID=219;fillColor=#fff2cc;shape=stencil(UzV2Ls5ILEhVNTIoLinKz04tz0wpyVA1dlE1MsrMy0gtyiwBslSNXVWNndPyi1LTi/JL81Ig/IJEkEoQKze/DGRCBUSfAUiHkUElhGcK4bpBVOZk5iGpNEVVikeloQHZpsK0YlWLz1QgA+HFtMycHEgIIcujBwlQCBKcxq4A);strokeColor=#d6b656;spacingTop=-1;spacingBottom=-1;spacingLeft=-1;spacingRight=-1;points=[[0,0.5,0],[1,0.5,0],[0.5,0,0],[0.5,1,0]];labelBackgroundColor=none;rounded=1;html=1;whiteSpace=wrap;fontFamily=Calibri;" vertex="1" parent="1">
            <mxGeometry x="-1427" y="-2098.5" width="101" height="76" as="geometry" />
          </mxCell>
        </UserObject>
        <mxCell id="Pm54L190ve_4c7_TmMwI-139" value="&lt;div style=&quot;font-size: 11.29px;&quot;&gt;&lt;font style=&quot;font-size: 11.29px;&quot;&gt;Case&lt;/font&gt;&lt;/div&gt;&lt;span style=&quot;font-size: 11.29px;&quot;&gt;&#39;&lt;i&gt;2&lt;/i&gt;&#39;&lt;/span&gt;" style="text;vsdxID=219;fillColor=none;gradientColor=none;strokeColor=none;spacingTop=-1;spacingBottom=-1;spacingLeft=-1;spacingRight=-1;points=[[0,0.5,0],[1,0.5,0],[0.5,0,0],[0.5,1,0]];labelBackgroundColor=none;rounded=1;html=1;whiteSpace=wrap;verticalAlign=middle;align=center;overflow=width;;html=1;fontColor=#000000;fontFamily=Calibri;" vertex="1" parent="Pm54L190ve_4c7_TmMwI-138">
          <mxGeometry x="8.17" y="9.42" width="84.67" height="57.15" as="geometry" />
        </mxCell>
        <mxCell id="Pm54L190ve_4c7_TmMwI-154" style="edgeStyle=orthogonalEdgeStyle;rounded=1;orthogonalLoop=1;jettySize=auto;html=1;entryX=0;entryY=0.5;entryDx=0;entryDy=0;entryPerimeter=0;fontSize=12;startSize=8;endSize=8;exitX=0;exitY=0.5;exitDx=0;exitDy=0;exitPerimeter=0;" edge="1" parent="1" source="Pm54L190ve_4c7_TmMwI-140" target="Pm54L190ve_4c7_TmMwI-129">
          <mxGeometry relative="1" as="geometry">
            <Array as="points">
              <mxPoint x="-1497" y="-1955" />
              <mxPoint x="-1497" y="-2566" />
            </Array>
          </mxGeometry>
        </mxCell>
        <UserObject label="" Function="EN_DIO_Error_T DIO_init(uint8_t pinNumber, EN_DIO_PORT_T portNumber, EN_DIO_DIRECTION_T direction);" tags="Flowchart" id="Pm54L190ve_4c7_TmMwI-140">
          <mxCell style="vsdxID=219;fillColor=#fff2cc;shape=stencil(UzV2Ls5ILEhVNTIoLinKz04tz0wpyVA1dlE1MsrMy0gtyiwBslSNXVWNndPyi1LTi/JL81Ig/IJEkEoQKze/DGRCBUSfAUiHkUElhGcK4bpBVOZk5iGpNEVVikeloQHZpsK0YlWLz1QgA+HFtMycHEgIIcujBwlQCBKcxq4A);strokeColor=#d6b656;spacingTop=-1;spacingBottom=-1;spacingLeft=-1;spacingRight=-1;points=[[0,0.5,0],[1,0.5,0],[0.5,0,0],[0.5,1,0]];labelBackgroundColor=none;rounded=1;html=1;whiteSpace=wrap;fontFamily=Calibri;" vertex="1" parent="1">
            <mxGeometry x="-1427" y="-1993.5" width="101" height="76" as="geometry" />
          </mxCell>
        </UserObject>
        <mxCell id="Pm54L190ve_4c7_TmMwI-141" value="&lt;div style=&quot;font-size: 11.29px;&quot;&gt;default&lt;/div&gt;" style="text;vsdxID=219;fillColor=none;gradientColor=none;strokeColor=none;spacingTop=-1;spacingBottom=-1;spacingLeft=-1;spacingRight=-1;points=[[0,0.5,0],[1,0.5,0],[0.5,0,0],[0.5,1,0]];labelBackgroundColor=none;rounded=1;html=1;whiteSpace=wrap;verticalAlign=middle;align=center;overflow=width;;html=1;fontColor=#000000;fontFamily=Calibri;" vertex="1" parent="Pm54L190ve_4c7_TmMwI-140">
          <mxGeometry x="8.17" y="9.42" width="84.67" height="57.15" as="geometry" />
        </mxCell>
        <mxCell id="Pm54L190ve_4c7_TmMwI-157" style="edgeStyle=orthogonalEdgeStyle;rounded=1;orthogonalLoop=1;jettySize=auto;html=1;entryX=0.5;entryY=0;entryDx=0;entryDy=0;entryPerimeter=0;fontSize=12;startSize=8;endSize=8;exitX=1;exitY=0.5;exitDx=0;exitDy=0;exitPerimeter=0;" edge="1" parent="1" source="Pm54L190ve_4c7_TmMwI-150" target="Pm54L190ve_4c7_TmMwI-155">
          <mxGeometry relative="1" as="geometry">
            <Array as="points">
              <mxPoint x="-1119" y="-2168" />
              <mxPoint x="-1119" y="-1906" />
              <mxPoint x="-1377" y="-1906" />
            </Array>
          </mxGeometry>
        </mxCell>
        <UserObject label="&lt;div style=&quot;font-size: 11.29px;&quot;&gt;&lt;i&gt;appMode&lt;/i&gt; = &lt;i&gt;USER_MODE&lt;/i&gt;&lt;/div&gt;" Function="EN_DIO_Error_T DIO_toggle(uint8_t pinNumber, EN_DIO_PORT_T portNumber);  " tags="Flowchart" id="Pm54L190ve_4c7_TmMwI-150">
          <mxCell style="verticalAlign=middle;align=center;overflow=width;vsdxID=274;fillColor=#d5e8d4;shape=stencil(nZBLDoAgDERP0z3SIyjew0SURgSD+Lu9kMZoXLhwN9O+tukAlrNpJg1SzDH4QW/URgNYgZTkjA4UkwJUgGXng+6DX1zLfmoymdXo17xh5zmRJ6Q42BWCfc2oJfdAr+Yv+AP9Cb7OJ3H/2JG1HNGz/84klThPVCc=);strokeColor=#82b366;spacingTop=-1;spacingBottom=-1;spacingLeft=-1;spacingRight=-1;points=[[0,0.5,0],[1,0.5,0],[0.5,1,0],[0.5,0,0]];labelBackgroundColor=none;rounded=1;html=1;whiteSpace=wrap;fontFamily=Calibri;" vertex="1" parent="1">
            <mxGeometry x="-1295" y="-2189.5" width="134" height="43" as="geometry" />
          </mxCell>
        </UserObject>
        <mxCell id="Pm54L190ve_4c7_TmMwI-158" style="edgeStyle=none;curved=1;rounded=0;orthogonalLoop=1;jettySize=auto;html=1;fontSize=12;startSize=8;endSize=8;" edge="1" parent="1" source="Pm54L190ve_4c7_TmMwI-151">
          <mxGeometry relative="1" as="geometry">
            <mxPoint x="-1120" y="-2060" as="targetPoint" />
          </mxGeometry>
        </mxCell>
        <UserObject label="&lt;div style=&quot;font-size: 11.29px;&quot;&gt;&lt;i&gt;appMode&lt;/i&gt; = &lt;i&gt;PROG_MODE&lt;/i&gt;&lt;/div&gt;" Function="EN_DIO_Error_T DIO_toggle(uint8_t pinNumber, EN_DIO_PORT_T portNumber);  " tags="Flowchart" id="Pm54L190ve_4c7_TmMwI-151">
          <mxCell style="verticalAlign=middle;align=center;overflow=width;vsdxID=274;fillColor=#d5e8d4;shape=stencil(nZBLDoAgDERP0z3SIyjew0SURgSD+Lu9kMZoXLhwN9O+tukAlrNpJg1SzDH4QW/URgNYgZTkjA4UkwJUgGXng+6DX1zLfmoymdXo17xh5zmRJ6Q42BWCfc2oJfdAr+Yv+AP9Cb7OJ3H/2JG1HNGz/84klThPVCc=);strokeColor=#82b366;spacingTop=-1;spacingBottom=-1;spacingLeft=-1;spacingRight=-1;points=[[0,0.5,0],[1,0.5,0],[0.5,1,0],[0.5,0,0]];labelBackgroundColor=none;rounded=1;html=1;whiteSpace=wrap;fontFamily=Calibri;" vertex="1" parent="1">
            <mxGeometry x="-1295" y="-2081" width="134" height="43" as="geometry" />
          </mxCell>
        </UserObject>
        <UserObject label="&lt;div style=&quot;font-size: 1px&quot;&gt;&lt;font style=&quot;font-size: 11.29px; direction: ltr; letter-spacing: 0px; line-height: 120%; opacity: 1;&quot;&gt;Return&lt;br&gt;&lt;/font&gt;&lt;/div&gt;" Function="EN_DIO_Error_T DIO_init(uint8_t pinNumber, EN_DIO_PORT_T portNumber, EN_DIO_DIRECTION_T direction);" tags="Flowchart" id="Pm54L190ve_4c7_TmMwI-155">
          <mxCell style="verticalAlign=middle;align=center;overflow=width;vsdxID=30;fillColor=#dae8fc;shape=stencil(tVLREoIgEPwaHnEQxsl3s/9gEpSJwDko7e+DsEkze2l627vdu5uFRaxyHe8FosR5sCcxqMZ3iO0Rpcp0ApQPCLEasUpaEC3Yi2lS3fOojOhsr3HDmObyMtsVcYqS29Qh5FEfklwrM5OXeUa/yjkcAwfr7TDpiyTfXvjkMR+Vw2A998qaBac5tAKHU1hq3i4oNwjRr9ofvayt/+Rk+yX/4iWA159KpXWKxJx/z0Bopfyw+g4=);strokeColor=#6c8ebf;spacingTop=-1;spacingBottom=-1;spacingLeft=-1;spacingRight=-1;points=[[0.5,1,0],[0.5,0,0],[0,0.5,0],[1,0.5,0]];labelBackgroundColor=none;rounded=1;html=1;whiteSpace=wrap;fontFamily=Calibri;" vertex="1" parent="1">
            <mxGeometry x="-1427.5" y="-1877" width="101" height="38" as="geometry" />
          </mxCell>
        </UserObject>
        <mxCell id="Pm54L190ve_4c7_TmMwI-159" value="APP_receivePANFromTerminal" style="text;whiteSpace=wrap;html=1;fontSize=16;" vertex="1" parent="1">
          <mxGeometry x="-837.49" y="-2833" width="196" height="41" as="geometry" />
        </mxCell>
        <mxCell id="Pm54L190ve_4c7_TmMwI-177" style="edgeStyle=none;curved=1;rounded=0;orthogonalLoop=1;jettySize=auto;html=1;entryX=0.5;entryY=0;entryDx=0;entryDy=0;entryPerimeter=0;fontSize=12;startSize=8;endSize=8;" edge="1" parent="1" source="Pm54L190ve_4c7_TmMwI-160" target="Pm54L190ve_4c7_TmMwI-162">
          <mxGeometry relative="1" as="geometry" />
        </mxCell>
        <UserObject label="&lt;div style=&quot;font-size: 1px&quot;&gt;&lt;font style=&quot;font-size: 11.29px; direction: ltr; letter-spacing: 0px; line-height: 120%; opacity: 1;&quot;&gt;Start&lt;br&gt;&lt;/font&gt;&lt;/div&gt;" Function="EN_DIO_Error_T DIO_init(uint8_t pinNumber, EN_DIO_PORT_T portNumber, EN_DIO_DIRECTION_T direction);" tags="Flowchart" id="Pm54L190ve_4c7_TmMwI-160">
          <mxCell style="verticalAlign=middle;align=center;overflow=width;vsdxID=30;fillColor=#dae8fc;shape=stencil(tVLREoIgEPwaHnEQxsl3s/9gEpSJwDko7e+DsEkze2l627vdu5uFRaxyHe8FosR5sCcxqMZ3iO0Rpcp0ApQPCLEasUpaEC3Yi2lS3fOojOhsr3HDmObyMtsVcYqS29Qh5FEfklwrM5OXeUa/yjkcAwfr7TDpiyTfXvjkMR+Vw2A998qaBac5tAKHU1hq3i4oNwjRr9ofvayt/+Rk+yX/4iWA159KpXWKxJx/z0Bopfyw+g4=);strokeColor=#6c8ebf;spacingTop=-1;spacingBottom=-1;spacingLeft=-1;spacingRight=-1;points=[[0.5,1,0],[0.5,0,0],[0,0.5,0],[1,0.5,0]];labelBackgroundColor=none;rounded=1;html=1;whiteSpace=wrap;fontFamily=Calibri;" vertex="1" parent="1">
            <mxGeometry x="-789.99" y="-2752" width="101" height="38" as="geometry" />
          </mxCell>
        </UserObject>
        <mxCell id="Pm54L190ve_4c7_TmMwI-175" style="edgeStyle=none;curved=1;rounded=0;orthogonalLoop=1;jettySize=auto;html=1;fontSize=12;startSize=8;endSize=8;exitX=0.5;exitY=1;exitDx=0;exitDy=0;exitPerimeter=0;" edge="1" parent="1" source="Pm54L190ve_4c7_TmMwI-204" target="Pm54L190ve_4c7_TmMwI-167">
          <mxGeometry relative="1" as="geometry">
            <mxPoint x="-739.4999999999995" y="-2518" as="sourcePoint" />
          </mxGeometry>
        </mxCell>
        <mxCell id="Pm54L190ve_4c7_TmMwI-208" style="edgeStyle=none;curved=1;rounded=0;orthogonalLoop=1;jettySize=auto;html=1;entryX=0.5;entryY=0;entryDx=0;entryDy=0;entryPerimeter=0;fontSize=12;startSize=8;endSize=8;" edge="1" parent="1" source="Pm54L190ve_4c7_TmMwI-162" target="Pm54L190ve_4c7_TmMwI-204">
          <mxGeometry relative="1" as="geometry" />
        </mxCell>
        <UserObject label="" Function="EN_DIO_Error_T DIO_init(uint8_t pinNumber, EN_DIO_PORT_T portNumber, EN_DIO_DIRECTION_T direction);" tags="Flowchart" id="Pm54L190ve_4c7_TmMwI-162">
          <mxCell style="vsdxID=219;fillColor=#fff2cc;shape=stencil(UzV2Ls5ILEhVNTIoLinKz04tz0wpyVA1dlE1MsrMy0gtyiwBslSNXVWNndPyi1LTi/JL81Ig/IJEkEoQKze/DGRCBUSfAUiHkUElhGcK4bpBVOZk5iGpNEVVikeloQHZpsK0YlWLz1QgA+HFtMycHEgIIcujBwlQCBKcxq4A);strokeColor=#d6b656;spacingTop=-1;spacingBottom=-1;spacingLeft=-1;spacingRight=-1;points=[[0,0.5,0],[1,0.5,0],[0.5,0,0],[0.5,1,0]];labelBackgroundColor=none;rounded=1;html=1;whiteSpace=wrap;fontFamily=Calibri;" vertex="1" parent="1">
            <mxGeometry x="-790" y="-2682" width="101" height="76" as="geometry" />
          </mxCell>
        </UserObject>
        <mxCell id="Pm54L190ve_4c7_TmMwI-163" value="&lt;font style=&quot;font-size: 11.29px;&quot;&gt;&lt;i&gt;validPANFlag&lt;/i&gt; =&amp;nbsp;&lt;br&gt;&lt;i&gt;FLAG_DOWN&lt;/i&gt;&lt;/font&gt;" style="text;vsdxID=219;fillColor=none;gradientColor=none;strokeColor=none;spacingTop=-1;spacingBottom=-1;spacingLeft=-1;spacingRight=-1;points=[[0,0.5,0],[1,0.5,0],[0.5,0,0],[0.5,1,0]];labelBackgroundColor=none;rounded=1;html=1;whiteSpace=wrap;verticalAlign=middle;align=center;overflow=width;;html=1;fontColor=#000000;fontFamily=Calibri;" vertex="1" parent="Pm54L190ve_4c7_TmMwI-162">
          <mxGeometry x="8.17" y="9.43" width="84.67" height="57.15" as="geometry" />
        </mxCell>
        <mxCell id="Pm54L190ve_4c7_TmMwI-164" value="&lt;font style=&quot;font-size: 11px;&quot;&gt;No&lt;/font&gt;" style="text;whiteSpace=wrap;html=1;fontSize=16;" vertex="1" parent="1">
          <mxGeometry x="-1370" y="-2528" width="21" height="29" as="geometry" />
        </mxCell>
        <mxCell id="Pm54L190ve_4c7_TmMwI-166" value="&lt;font style=&quot;font-size: 11px;&quot;&gt;Yes&lt;/font&gt;" style="text;whiteSpace=wrap;html=1;fontSize=16;" vertex="1" parent="1">
          <mxGeometry x="-1203" y="-2596" width="21" height="29" as="geometry" />
        </mxCell>
        <mxCell id="Pm54L190ve_4c7_TmMwI-176" style="edgeStyle=none;curved=1;rounded=0;orthogonalLoop=1;jettySize=auto;html=1;fontSize=12;startSize=8;endSize=8;" edge="1" parent="1" source="Pm54L190ve_4c7_TmMwI-167" target="Pm54L190ve_4c7_TmMwI-168">
          <mxGeometry relative="1" as="geometry" />
        </mxCell>
        <UserObject label="&lt;div style=&quot;&quot;&gt;Display &quot;Please Enter Card PAN&quot;&lt;i style=&quot;font-size: 11.29px;&quot;&gt; &lt;/i&gt;&lt;span style=&quot;font-size: 11.29px;&quot;&gt;on &lt;/span&gt;&lt;i style=&quot;font-size: 11.29px;&quot;&gt;UART,&lt;/i&gt;&lt;span style=&quot;font-size: 11.29px;&quot;&gt; using &lt;/span&gt;&lt;i style=&quot;font-size: 11.29px;&quot;&gt;UART_transmitString&lt;/i&gt;&lt;span style=&quot;font-size: 11.29px;&quot;&gt;&amp;nbsp;function&lt;/span&gt;&lt;/div&gt;" Function="EN_DIO_Error_T DIO_toggle(uint8_t pinNumber, EN_DIO_PORT_T portNumber);  " tags="Flowchart" id="Pm54L190ve_4c7_TmMwI-167">
          <mxCell style="verticalAlign=middle;align=center;overflow=width;vsdxID=274;fillColor=#d5e8d4;shape=stencil(nZBLDoAgDERP0z3SIyjew0SURgSD+Lu9kMZoXLhwN9O+tukAlrNpJg1SzDH4QW/URgNYgZTkjA4UkwJUgGXng+6DX1zLfmoymdXo17xh5zmRJ6Q42BWCfc2oJfdAr+Yv+AP9Cb7OJ3H/2JG1HNGz/84klThPVCc=);strokeColor=#82b366;spacingTop=-1;spacingBottom=-1;spacingLeft=-1;spacingRight=-1;points=[[0,0.5,0],[1,0.5,0],[0.5,1,0],[0.5,0,0]];labelBackgroundColor=none;rounded=1;html=1;whiteSpace=wrap;fontFamily=Calibri;" vertex="1" parent="1">
            <mxGeometry x="-829.5" y="-2491" width="180" height="60" as="geometry" />
          </mxCell>
        </UserObject>
        <mxCell id="Pm54L190ve_4c7_TmMwI-174" style="edgeStyle=none;curved=1;rounded=0;orthogonalLoop=1;jettySize=auto;html=1;entryX=0.5;entryY=0;entryDx=0;entryDy=0;entryPerimeter=0;fontSize=12;startSize=8;endSize=8;" edge="1" parent="1" source="Pm54L190ve_4c7_TmMwI-168" target="Pm54L190ve_4c7_TmMwI-170">
          <mxGeometry relative="1" as="geometry" />
        </mxCell>
        <UserObject label="" Function="EN_DIO_Error_T DIO_init(uint8_t pinNumber, EN_DIO_PORT_T portNumber, EN_DIO_DIRECTION_T direction);" tags="Flowchart" id="Pm54L190ve_4c7_TmMwI-168">
          <mxCell style="vsdxID=219;fillColor=#fff2cc;shape=stencil(UzV2Ls5ILEhVNTIoLinKz04tz0wpyVA1dlE1MsrMy0gtyiwBslSNXVWNndPyi1LTi/JL81Ig/IJEkEoQKze/DGRCBUSfAUiHkUElhGcK4bpBVOZk5iGpNEVVikeloQHZpsK0YlWLz1QgA+HFtMycHEgIIcujBwlQCBKcxq4A);strokeColor=#d6b656;spacingTop=-1;spacingBottom=-1;spacingLeft=-1;spacingRight=-1;points=[[0,0.5,0],[1,0.5,0],[0.5,0,0],[0.5,1,0]];labelBackgroundColor=none;rounded=1;html=1;whiteSpace=wrap;fontFamily=Calibri;" vertex="1" parent="1">
            <mxGeometry x="-790" y="-2391" width="101" height="76" as="geometry" />
          </mxCell>
        </UserObject>
        <mxCell id="Pm54L190ve_4c7_TmMwI-169" value="&lt;font style=&quot;font-size: 11.29px;&quot;&gt;&lt;i&gt;recData&lt;/i&gt;&amp;nbsp;=&amp;nbsp;&lt;br&gt;&lt;i style=&quot;font-size: 11.29px;&quot;&gt;ENTER_CHAR&lt;/i&gt;&lt;/font&gt;" style="text;vsdxID=219;fillColor=none;gradientColor=none;strokeColor=none;spacingTop=-1;spacingBottom=-1;spacingLeft=-1;spacingRight=-1;points=[[0,0.5,0],[1,0.5,0],[0.5,0,0],[0.5,1,0]];labelBackgroundColor=none;rounded=1;html=1;whiteSpace=wrap;verticalAlign=middle;align=center;overflow=width;;html=1;fontColor=#000000;fontFamily=Calibri;" vertex="1" parent="Pm54L190ve_4c7_TmMwI-168">
          <mxGeometry x="8.17" y="9.43" width="84.67" height="57.15" as="geometry" />
        </mxCell>
        <mxCell id="Pm54L190ve_4c7_TmMwI-178" style="edgeStyle=none;curved=1;rounded=0;orthogonalLoop=1;jettySize=auto;html=1;fontSize=12;startSize=8;endSize=8;" edge="1" parent="1" source="Pm54L190ve_4c7_TmMwI-170" target="Pm54L190ve_4c7_TmMwI-171">
          <mxGeometry relative="1" as="geometry" />
        </mxCell>
        <UserObject label="&lt;div style=&quot;font-size: 11.29px;&quot;&gt;Get&amp;nbsp;&lt;i style=&quot;border-color: var(--border-color); font-size: 11.29px;&quot;&gt;recData&lt;/i&gt;&lt;span style=&quot;font-size: 11.29px;&quot;&gt;&lt;i&gt;&amp;nbsp;&lt;/i&gt;on &lt;i&gt;UART,&lt;/i&gt; using &lt;i&gt;UART_receiveByteBlock &lt;/i&gt;function&lt;/span&gt;&lt;/div&gt;" Function="EN_DIO_Error_T DIO_toggle(uint8_t pinNumber, EN_DIO_PORT_T portNumber);  " tags="Flowchart" id="Pm54L190ve_4c7_TmMwI-170">
          <mxCell style="verticalAlign=middle;align=center;overflow=width;vsdxID=274;fillColor=#d5e8d4;shape=stencil(nZBLDoAgDERP0z3SIyjew0SURgSD+Lu9kMZoXLhwN9O+tukAlrNpJg1SzDH4QW/URgNYgZTkjA4UkwJUgGXng+6DX1zLfmoymdXo17xh5zmRJ6Q42BWCfc2oJfdAr+Yv+AP9Cb7OJ3H/2JG1HNGz/84klThPVCc=);strokeColor=#82b366;spacingTop=-1;spacingBottom=-1;spacingLeft=-1;spacingRight=-1;points=[[0,0.5,0],[1,0.5,0],[0.5,1,0],[0.5,0,0]];labelBackgroundColor=none;rounded=1;html=1;whiteSpace=wrap;fontFamily=Calibri;" vertex="1" parent="1">
            <mxGeometry x="-829.49" y="-2278" width="180" height="45" as="geometry" />
          </mxCell>
        </UserObject>
        <mxCell id="Pm54L190ve_4c7_TmMwI-179" style="edgeStyle=none;curved=1;rounded=0;orthogonalLoop=1;jettySize=auto;html=1;entryX=0.5;entryY=0;entryDx=0;entryDy=0;entryPerimeter=0;fontSize=12;startSize=8;endSize=8;" edge="1" parent="1" source="Pm54L190ve_4c7_TmMwI-171" target="Pm54L190ve_4c7_TmMwI-172">
          <mxGeometry relative="1" as="geometry" />
        </mxCell>
        <UserObject label="&lt;div style=&quot;font-size: 11.29px;&quot;&gt;&lt;font style=&quot;font-size: 11.29px;&quot;&gt;Store&amp;nbsp;&lt;i style=&quot;border-color: var(--border-color);&quot;&gt;recData&lt;/i&gt;&amp;nbsp;in &lt;i style=&quot;&quot;&gt;PAN&lt;/i&gt;&amp;nbsp;string&amp;nbsp;&lt;/font&gt;&lt;/div&gt;&lt;div style=&quot;font-size: 11.29px;&quot;&gt;&lt;font style=&quot;font-size: 11.29px;&quot;&gt;using &lt;i style=&quot;&quot;&gt;index&lt;/i&gt;&lt;/font&gt;&lt;/div&gt;" Function="EN_DIO_Error_T DIO_toggle(uint8_t pinNumber, EN_DIO_PORT_T portNumber);  " tags="Flowchart" id="Pm54L190ve_4c7_TmMwI-171">
          <mxCell style="verticalAlign=middle;align=center;overflow=width;vsdxID=274;fillColor=#d5e8d4;shape=stencil(nZBLDoAgDERP0z3SIyjew0SURgSD+Lu9kMZoXLhwN9O+tukAlrNpJg1SzDH4QW/URgNYgZTkjA4UkwJUgGXng+6DX1zLfmoymdXo17xh5zmRJ6Q42BWCfc2oJfdAr+Yv+AP9Cb7OJ3H/2JG1HNGz/84klThPVCc=);strokeColor=#82b366;spacingTop=-1;spacingBottom=-1;spacingLeft=-1;spacingRight=-1;points=[[0,0.5,0],[1,0.5,0],[0.5,1,0],[0.5,0,0]];labelBackgroundColor=none;rounded=1;html=1;whiteSpace=wrap;fontFamily=Calibri;" vertex="1" parent="1">
            <mxGeometry x="-829.5" y="-2202" width="180" height="45" as="geometry" />
          </mxCell>
        </UserObject>
        <mxCell id="Pm54L190ve_4c7_TmMwI-173" style="edgeStyle=orthogonalEdgeStyle;rounded=1;orthogonalLoop=1;jettySize=auto;html=1;entryX=0;entryY=0.5;entryDx=0;entryDy=0;entryPerimeter=0;fontSize=12;startSize=8;endSize=8;exitX=0;exitY=0.5;exitDx=0;exitDy=0;exitPerimeter=0;" edge="1" parent="1" source="Pm54L190ve_4c7_TmMwI-172" target="Pm54L190ve_4c7_TmMwI-168">
          <mxGeometry relative="1" as="geometry">
            <Array as="points">
              <mxPoint x="-857" y="-2108" />
              <mxPoint x="-857" y="-2353" />
            </Array>
          </mxGeometry>
        </mxCell>
        <UserObject label="&lt;div style=&quot;font-size: 11.29px;&quot;&gt;Increment &lt;i&gt;index&lt;/i&gt;&lt;/div&gt;" Function="EN_DIO_Error_T DIO_toggle(uint8_t pinNumber, EN_DIO_PORT_T portNumber);  " tags="Flowchart" id="Pm54L190ve_4c7_TmMwI-172">
          <mxCell style="verticalAlign=middle;align=center;overflow=width;vsdxID=274;fillColor=#d5e8d4;shape=stencil(nZBLDoAgDERP0z3SIyjew0SURgSD+Lu9kMZoXLhwN9O+tukAlrNpJg1SzDH4QW/URgNYgZTkjA4UkwJUgGXng+6DX1zLfmoymdXo17xh5zmRJ6Q42BWCfc2oJfdAr+Yv+AP9Cb7OJ3H/2JG1HNGz/84klThPVCc=);strokeColor=#82b366;spacingTop=-1;spacingBottom=-1;spacingLeft=-1;spacingRight=-1;points=[[0,0.5,0],[1,0.5,0],[0.5,1,0],[0.5,0,0]];labelBackgroundColor=none;rounded=1;html=1;whiteSpace=wrap;fontFamily=Calibri;" vertex="1" parent="1">
            <mxGeometry x="-829.5" y="-2126" width="180" height="35" as="geometry" />
          </mxCell>
        </UserObject>
        <mxCell id="Pm54L190ve_4c7_TmMwI-180" value="&lt;font style=&quot;font-size: 11px;&quot;&gt;No&lt;/font&gt;" style="text;whiteSpace=wrap;html=1;fontSize=16;" vertex="1" parent="1">
          <mxGeometry x="-730" y="-2319" width="21" height="29" as="geometry" />
        </mxCell>
        <mxCell id="Pm54L190ve_4c7_TmMwI-187" style="edgeStyle=none;curved=1;rounded=0;orthogonalLoop=1;jettySize=auto;html=1;entryX=0;entryY=0.5;entryDx=0;entryDy=0;entryPerimeter=0;fontSize=12;startSize=8;endSize=8;" edge="1" parent="1" source="Pm54L190ve_4c7_TmMwI-181" target="Pm54L190ve_4c7_TmMwI-186">
          <mxGeometry relative="1" as="geometry" />
        </mxCell>
        <mxCell id="Pm54L190ve_4c7_TmMwI-193" style="edgeStyle=none;curved=1;rounded=0;orthogonalLoop=1;jettySize=auto;html=1;entryX=0.5;entryY=0;entryDx=0;entryDy=0;entryPerimeter=0;fontSize=12;startSize=8;endSize=8;" edge="1" parent="1" source="Pm54L190ve_4c7_TmMwI-181" target="Pm54L190ve_4c7_TmMwI-191">
          <mxGeometry relative="1" as="geometry" />
        </mxCell>
        <UserObject label="" Function="EN_DIO_Error_T DIO_init(uint8_t pinNumber, EN_DIO_PORT_T portNumber, EN_DIO_DIRECTION_T direction);" tags="Flowchart" id="Pm54L190ve_4c7_TmMwI-181">
          <mxCell style="vsdxID=219;fillColor=#fff2cc;shape=stencil(UzV2Ls5ILEhVNTIoLinKz04tz0wpyVA1dlE1MsrMy0gtyiwBslSNXVWNndPyi1LTi/JL81Ig/IJEkEoQKze/DGRCBUSfAUiHkUElhGcK4bpBVOZk5iGpNEVVikeloQHZpsK0YlWLz1QgA+HFtMycHEgIIcujBwlQCBKcxq4A);strokeColor=#d6b656;spacingTop=-1;spacingBottom=-1;spacingLeft=-1;spacingRight=-1;points=[[0,0.5,0],[1,0.5,0],[0.5,0,0],[0.5,1,0]];labelBackgroundColor=none;rounded=1;html=1;whiteSpace=wrap;fontFamily=Calibri;" vertex="1" parent="1">
            <mxGeometry x="-789.99" y="-2044" width="101" height="76" as="geometry" />
          </mxCell>
        </UserObject>
        <mxCell id="Pm54L190ve_4c7_TmMwI-182" value="&lt;div style=&quot;font-size: 11.29px;&quot;&gt;&lt;i&gt;PAN&lt;/i&gt;&amp;nbsp;is a numeric value&lt;/div&gt;" style="text;vsdxID=219;fillColor=none;gradientColor=none;strokeColor=none;spacingTop=-1;spacingBottom=-1;spacingLeft=-1;spacingRight=-1;points=[[0,0.5,0],[1,0.5,0],[0.5,0,0],[0.5,1,0]];labelBackgroundColor=none;rounded=1;html=1;whiteSpace=wrap;verticalAlign=middle;align=center;overflow=width;;html=1;fontColor=#000000;fontFamily=Calibri;" vertex="1" parent="Pm54L190ve_4c7_TmMwI-181">
          <mxGeometry x="8.16" y="12" width="84.67" height="57.15" as="geometry" />
        </mxCell>
        <mxCell id="Pm54L190ve_4c7_TmMwI-184" style="edgeStyle=orthogonalEdgeStyle;rounded=1;orthogonalLoop=1;jettySize=auto;html=1;entryX=0.5;entryY=0;entryDx=0;entryDy=0;entryPerimeter=0;fontSize=12;startSize=8;endSize=8;exitX=1;exitY=0.5;exitDx=0;exitDy=0;exitPerimeter=0;" edge="1" parent="1" source="Pm54L190ve_4c7_TmMwI-168" target="Pm54L190ve_4c7_TmMwI-181">
          <mxGeometry relative="1" as="geometry">
            <Array as="points">
              <mxPoint x="-600" y="-2353" />
              <mxPoint x="-600" y="-2068" />
              <mxPoint x="-739" y="-2068" />
            </Array>
          </mxGeometry>
        </mxCell>
        <mxCell id="Pm54L190ve_4c7_TmMwI-185" value="&lt;font style=&quot;font-size: 11px;&quot;&gt;Yes&lt;/font&gt;" style="text;whiteSpace=wrap;html=1;fontSize=16;" vertex="1" parent="1">
          <mxGeometry x="-655" y="-2380" width="21" height="29" as="geometry" />
        </mxCell>
        <mxCell id="Pm54L190ve_4c7_TmMwI-203" style="edgeStyle=none;curved=1;rounded=0;orthogonalLoop=1;jettySize=auto;html=1;fontSize=12;startSize=8;endSize=8;" edge="1" parent="1" source="Pm54L190ve_4c7_TmMwI-186">
          <mxGeometry relative="1" as="geometry">
            <mxPoint x="-374" y="-2006" as="targetPoint" />
          </mxGeometry>
        </mxCell>
        <UserObject label="&lt;div style=&quot;font-size: 11.29px;&quot;&gt;Display &quot;Wrong PAN [Non Numeric]&quot;&lt;i style=&quot;font-size: 11.29px;&quot;&gt; &lt;/i&gt;&lt;span style=&quot;font-size: 11.29px;&quot;&gt;on &lt;/span&gt;&lt;i style=&quot;font-size: 11.29px;&quot;&gt;UART,&lt;/i&gt;&lt;span style=&quot;font-size: 11.29px;&quot;&gt; using &lt;/span&gt;&lt;i style=&quot;font-size: 11.29px;&quot;&gt;UART_transmitString&lt;/i&gt;&lt;span style=&quot;font-size: 11.29px;&quot;&gt;&amp;nbsp;function&lt;/span&gt;&lt;/div&gt;&lt;div style=&quot;font-size: 11.29px;&quot;&gt;&lt;span style=&quot;font-size: 11.29px;&quot;&gt;Update &lt;i&gt;validPANFlag&lt;/i&gt; = &lt;i&gt;FLAG_DOWN&lt;/i&gt;&lt;/span&gt;&lt;/div&gt;" Function="EN_DIO_Error_T DIO_toggle(uint8_t pinNumber, EN_DIO_PORT_T portNumber);  " tags="Flowchart" id="Pm54L190ve_4c7_TmMwI-186">
          <mxCell style="verticalAlign=middle;align=center;overflow=width;vsdxID=274;fillColor=#d5e8d4;shape=stencil(nZBLDoAgDERP0z3SIyjew0SURgSD+Lu9kMZoXLhwN9O+tukAlrNpJg1SzDH4QW/URgNYgZTkjA4UkwJUgGXng+6DX1zLfmoymdXo17xh5zmRJ6Q42BWCfc2oJfdAr+Yv+AP9Cb7OJ3H/2JG1HNGz/84klThPVCc=);strokeColor=#82b366;spacingTop=-1;spacingBottom=-1;spacingLeft=-1;spacingRight=-1;points=[[0,0.5,0],[1,0.5,0],[0.5,1,0],[0.5,0,0]];labelBackgroundColor=none;rounded=1;html=1;whiteSpace=wrap;fontFamily=Calibri;" vertex="1" parent="1">
            <mxGeometry x="-582" y="-2038.5" width="180" height="65" as="geometry" />
          </mxCell>
        </UserObject>
        <mxCell id="Pm54L190ve_4c7_TmMwI-195" style="edgeStyle=none;curved=1;rounded=0;orthogonalLoop=1;jettySize=auto;html=1;fontSize=12;startSize=8;endSize=8;" edge="1" parent="1" source="Pm54L190ve_4c7_TmMwI-191" target="Pm54L190ve_4c7_TmMwI-194">
          <mxGeometry relative="1" as="geometry" />
        </mxCell>
        <UserObject label="" Function="EN_DIO_Error_T DIO_init(uint8_t pinNumber, EN_DIO_PORT_T portNumber, EN_DIO_DIRECTION_T direction);" tags="Flowchart" id="Pm54L190ve_4c7_TmMwI-191">
          <mxCell style="vsdxID=219;fillColor=#fff2cc;shape=stencil(UzV2Ls5ILEhVNTIoLinKz04tz0wpyVA1dlE1MsrMy0gtyiwBslSNXVWNndPyi1LTi/JL81Ig/IJEkEoQKze/DGRCBUSfAUiHkUElhGcK4bpBVOZk5iGpNEVVikeloQHZpsK0YlWLz1QgA+HFtMycHEgIIcujBwlQCBKcxq4A);strokeColor=#d6b656;spacingTop=-1;spacingBottom=-1;spacingLeft=-1;spacingRight=-1;points=[[0,0.5,0],[1,0.5,0],[0.5,0,0],[0.5,1,0]];labelBackgroundColor=none;rounded=1;html=1;whiteSpace=wrap;fontFamily=Calibri;" vertex="1" parent="1">
            <mxGeometry x="-790" y="-1938" width="101" height="76" as="geometry" />
          </mxCell>
        </UserObject>
        <mxCell id="Pm54L190ve_4c7_TmMwI-192" value="&lt;div style=&quot;font-size: 11.29px;&quot;&gt;&lt;i&gt;PAN&lt;/i&gt;&amp;nbsp;is in valid range&lt;/div&gt;" style="text;vsdxID=219;fillColor=none;gradientColor=none;strokeColor=none;spacingTop=-1;spacingBottom=-1;spacingLeft=-1;spacingRight=-1;points=[[0,0.5,0],[1,0.5,0],[0.5,0,0],[0.5,1,0]];labelBackgroundColor=none;rounded=1;html=1;whiteSpace=wrap;verticalAlign=middle;align=center;overflow=width;;html=1;fontColor=#000000;fontFamily=Calibri;" vertex="1" parent="Pm54L190ve_4c7_TmMwI-191">
          <mxGeometry x="8.16" y="12" width="84.67" height="57.15" as="geometry" />
        </mxCell>
        <mxCell id="Pm54L190ve_4c7_TmMwI-202" style="edgeStyle=orthogonalEdgeStyle;rounded=1;orthogonalLoop=1;jettySize=auto;html=1;entryX=1;entryY=0.5;entryDx=0;entryDy=0;entryPerimeter=0;fontSize=12;startSize=8;endSize=8;exitX=1;exitY=0.5;exitDx=0;exitDy=0;exitPerimeter=0;" edge="1" parent="1" source="Pm54L190ve_4c7_TmMwI-194" target="Pm54L190ve_4c7_TmMwI-162">
          <mxGeometry relative="1" as="geometry">
            <Array as="points">
              <mxPoint x="-402" y="-1902" />
              <mxPoint x="-373" y="-1902" />
              <mxPoint x="-373" y="-2644" />
            </Array>
          </mxGeometry>
        </mxCell>
        <UserObject label="&lt;div style=&quot;font-size: 11.29px;&quot;&gt;Display &quot;Wrong PAN [Not in valid range]&quot;&lt;i style=&quot;font-size: 11.29px;&quot;&gt; &lt;/i&gt;&lt;span style=&quot;font-size: 11.29px;&quot;&gt;on &lt;/span&gt;&lt;i style=&quot;font-size: 11.29px;&quot;&gt;UART,&lt;/i&gt;&lt;span style=&quot;font-size: 11.29px;&quot;&gt; using &lt;/span&gt;&lt;i style=&quot;font-size: 11.29px;&quot;&gt;UART_transmitString&lt;/i&gt;&lt;span style=&quot;font-size: 11.29px;&quot;&gt;&amp;nbsp;function&lt;/span&gt;&lt;/div&gt;&lt;div style=&quot;font-size: 11.29px;&quot;&gt;Update&amp;nbsp;&lt;i style=&quot;border-color: var(--border-color);&quot;&gt;validPANFlag&lt;/i&gt;&amp;nbsp;=&amp;nbsp;&lt;i style=&quot;border-color: var(--border-color);&quot;&gt;FLAG_DOWN&lt;/i&gt;&lt;span style=&quot;font-size: 11.29px;&quot;&gt;&lt;br&gt;&lt;/span&gt;&lt;/div&gt;" Function="EN_DIO_Error_T DIO_toggle(uint8_t pinNumber, EN_DIO_PORT_T portNumber);  " tags="Flowchart" id="Pm54L190ve_4c7_TmMwI-194">
          <mxCell style="verticalAlign=middle;align=center;overflow=width;vsdxID=274;fillColor=#d5e8d4;shape=stencil(nZBLDoAgDERP0z3SIyjew0SURgSD+Lu9kMZoXLhwN9O+tukAlrNpJg1SzDH4QW/URgNYgZTkjA4UkwJUgGXng+6DX1zLfmoymdXo17xh5zmRJ6Q42BWCfc2oJfdAr+Yv+AP9Cb7OJ3H/2JG1HNGz/84klThPVCc=);strokeColor=#82b366;spacingTop=-1;spacingBottom=-1;spacingLeft=-1;spacingRight=-1;points=[[0,0.5,0],[1,0.5,0],[0.5,1,0],[0.5,0,0]];labelBackgroundColor=none;rounded=1;html=1;whiteSpace=wrap;fontFamily=Calibri;" vertex="1" parent="1">
            <mxGeometry x="-582" y="-1932.5" width="180" height="65" as="geometry" />
          </mxCell>
        </UserObject>
        <mxCell id="Pm54L190ve_4c7_TmMwI-196" value="&lt;font style=&quot;font-size: 11px;&quot;&gt;No&lt;/font&gt;" style="text;whiteSpace=wrap;html=1;fontSize=16;" vertex="1" parent="1">
          <mxGeometry x="-649.5" y="-2038.5" width="21" height="29" as="geometry" />
        </mxCell>
        <mxCell id="Pm54L190ve_4c7_TmMwI-197" value="&lt;font style=&quot;font-size: 11px;&quot;&gt;No&lt;/font&gt;" style="text;whiteSpace=wrap;html=1;fontSize=16;" vertex="1" parent="1">
          <mxGeometry x="-649.5" y="-1932.5" width="21" height="29" as="geometry" />
        </mxCell>
        <mxCell id="Pm54L190ve_4c7_TmMwI-198" value="&lt;font style=&quot;font-size: 11px;&quot;&gt;Yes&lt;/font&gt;" style="text;whiteSpace=wrap;html=1;fontSize=16;" vertex="1" parent="1">
          <mxGeometry x="-726" y="-1969.5" width="21" height="29" as="geometry" />
        </mxCell>
        <mxCell id="Pm54L190ve_4c7_TmMwI-216" style="edgeStyle=none;curved=1;rounded=0;orthogonalLoop=1;jettySize=auto;html=1;entryX=0.5;entryY=0;entryDx=0;entryDy=0;entryPerimeter=0;fontSize=12;startSize=8;endSize=8;" edge="1" parent="1" source="Pm54L190ve_4c7_TmMwI-199" target="Pm54L190ve_4c7_TmMwI-215">
          <mxGeometry relative="1" as="geometry" />
        </mxCell>
        <UserObject label="&lt;div style=&quot;font-size: 11.29px;&quot;&gt;Store &lt;i&gt;PAN&lt;/i&gt;&amp;nbsp;i&lt;span style=&quot;font-size: 11.29px;&quot;&gt;n &lt;/span&gt;&lt;i style=&quot;font-size: 11.29px;&quot;&gt;EEPROM,&lt;/i&gt;&lt;span style=&quot;font-size: 11.29px;&quot;&gt; using &lt;/span&gt;&lt;i style=&quot;font-size: 11.29px;&quot;&gt;EEPROM_writeArray&lt;/i&gt;&lt;span style=&quot;font-size: 11.29px;&quot;&gt;&amp;nbsp;function&lt;/span&gt;&lt;/div&gt;" Function="EN_DIO_Error_T DIO_toggle(uint8_t pinNumber, EN_DIO_PORT_T portNumber);  " tags="Flowchart" id="Pm54L190ve_4c7_TmMwI-199">
          <mxCell style="verticalAlign=middle;align=center;overflow=width;vsdxID=274;fillColor=#d5e8d4;shape=stencil(nZBLDoAgDERP0z3SIyjew0SURgSD+Lu9kMZoXLhwN9O+tukAlrNpJg1SzDH4QW/URgNYgZTkjA4UkwJUgGXng+6DX1zLfmoymdXo17xh5zmRJ6Q42BWCfc2oJfdAr+Yv+AP9Cb7OJ3H/2JG1HNGz/84klThPVCc=);strokeColor=#82b366;spacingTop=-1;spacingBottom=-1;spacingLeft=-1;spacingRight=-1;points=[[0,0.5,0],[1,0.5,0],[0.5,1,0],[0.5,0,0]];labelBackgroundColor=none;rounded=1;html=1;whiteSpace=wrap;fontFamily=Calibri;" vertex="1" parent="1">
            <mxGeometry x="-829.5" y="-1732.5" width="180" height="45" as="geometry" />
          </mxCell>
        </UserObject>
        <UserObject label="&lt;div style=&quot;font-size: 11.29px;&quot;&gt;Update&amp;nbsp;&lt;i style=&quot;border-color: var(--border-color);&quot;&gt;validPANFlag&lt;/i&gt;&amp;nbsp;=&amp;nbsp;&lt;i style=&quot;border-color: var(--border-color);&quot;&gt;FLAG_UP&lt;/i&gt;&lt;br&gt;&lt;/div&gt;" Function="EN_DIO_Error_T DIO_toggle(uint8_t pinNumber, EN_DIO_PORT_T portNumber);  " tags="Flowchart" id="Pm54L190ve_4c7_TmMwI-204">
          <mxCell style="verticalAlign=middle;align=center;overflow=width;vsdxID=274;fillColor=#d5e8d4;shape=stencil(nZBLDoAgDERP0z3SIyjew0SURgSD+Lu9kMZoXLhwN9O+tukAlrNpJg1SzDH4QW/URgNYgZTkjA4UkwJUgGXng+6DX1zLfmoymdXo17xh5zmRJ6Q42BWCfc2oJfdAr+Yv+AP9Cb7OJ3H/2JG1HNGz/84klThPVCc=);strokeColor=#82b366;spacingTop=-1;spacingBottom=-1;spacingLeft=-1;spacingRight=-1;points=[[0,0.5,0],[1,0.5,0],[0.5,1,0],[0.5,0,0]];labelBackgroundColor=none;rounded=1;html=1;whiteSpace=wrap;fontFamily=Calibri;" vertex="1" parent="1">
            <mxGeometry x="-829.5" y="-2567" width="180" height="35" as="geometry" />
          </mxCell>
        </UserObject>
        <mxCell id="Pm54L190ve_4c7_TmMwI-209" value="&lt;font style=&quot;font-size: 11px;&quot;&gt;Yes&lt;/font&gt;" style="text;whiteSpace=wrap;html=1;fontSize=16;" vertex="1" parent="1">
          <mxGeometry x="-730" y="-2606" width="21" height="29" as="geometry" />
        </mxCell>
        <mxCell id="Pm54L190ve_4c7_TmMwI-210" style="edgeStyle=orthogonalEdgeStyle;rounded=1;orthogonalLoop=1;jettySize=auto;html=1;fontSize=12;startSize=8;endSize=8;exitX=0;exitY=0.5;exitDx=0;exitDy=0;exitPerimeter=0;" edge="1" parent="1" source="Pm54L190ve_4c7_TmMwI-162" target="Pm54L190ve_4c7_TmMwI-213">
          <mxGeometry relative="1" as="geometry">
            <Array as="points">
              <mxPoint x="-885" y="-2644" />
              <mxPoint x="-885" y="-1803" />
            </Array>
          </mxGeometry>
        </mxCell>
        <mxCell id="Pm54L190ve_4c7_TmMwI-211" value="&lt;font style=&quot;font-size: 11px;&quot;&gt;No&lt;/font&gt;" style="text;whiteSpace=wrap;html=1;fontSize=16;" vertex="1" parent="1">
          <mxGeometry x="-842" y="-2673" width="21" height="29" as="geometry" />
        </mxCell>
        <mxCell id="Pm54L190ve_4c7_TmMwI-214" style="edgeStyle=none;curved=1;rounded=0;orthogonalLoop=1;jettySize=auto;html=1;entryX=0.5;entryY=0;entryDx=0;entryDy=0;entryPerimeter=0;fontSize=12;startSize=8;endSize=8;" edge="1" parent="1" source="Pm54L190ve_4c7_TmMwI-213" target="Pm54L190ve_4c7_TmMwI-199">
          <mxGeometry relative="1" as="geometry" />
        </mxCell>
        <UserObject label="&lt;div style=&quot;font-size: 11.29px;&quot;&gt;Display &quot;PAN is saved successfully&quot;&lt;i style=&quot;font-size: 11.29px;&quot;&gt;&amp;nbsp;&lt;/i&gt;&lt;/div&gt;&lt;div style=&quot;font-size: 11.29px;&quot;&gt;&lt;span style=&quot;font-size: 11.29px;&quot;&gt;on &lt;/span&gt;&lt;i style=&quot;font-size: 11.29px;&quot;&gt;UART,&lt;/i&gt;&lt;span style=&quot;font-size: 11.29px;&quot;&gt; using &lt;/span&gt;&lt;i style=&quot;font-size: 11.29px;&quot;&gt;UART_transmitString&lt;/i&gt;&lt;span style=&quot;font-size: 11.29px;&quot;&gt;&amp;nbsp;function&lt;/span&gt;&lt;/div&gt;" Function="EN_DIO_Error_T DIO_toggle(uint8_t pinNumber, EN_DIO_PORT_T portNumber);  " tags="Flowchart" id="Pm54L190ve_4c7_TmMwI-213">
          <mxCell style="verticalAlign=middle;align=center;overflow=width;vsdxID=274;fillColor=#d5e8d4;shape=stencil(nZBLDoAgDERP0z3SIyjew0SURgSD+Lu9kMZoXLhwN9O+tukAlrNpJg1SzDH4QW/URgNYgZTkjA4UkwJUgGXng+6DX1zLfmoymdXo17xh5zmRJ6Q42BWCfc2oJfdAr+Yv+AP9Cb7OJ3H/2JG1HNGz/84klThPVCc=);strokeColor=#82b366;spacingTop=-1;spacingBottom=-1;spacingLeft=-1;spacingRight=-1;points=[[0,0.5,0],[1,0.5,0],[0.5,1,0],[0.5,0,0]];labelBackgroundColor=none;rounded=1;html=1;whiteSpace=wrap;fontFamily=Calibri;" vertex="1" parent="1">
            <mxGeometry x="-829.5" y="-1832" width="180" height="60" as="geometry" />
          </mxCell>
        </UserObject>
        <UserObject label="&lt;div style=&quot;font-size: 1px&quot;&gt;&lt;font style=&quot;font-size: 11.29px; direction: ltr; letter-spacing: 0px; line-height: 120%; opacity: 1;&quot;&gt;Return&lt;br&gt;&lt;/font&gt;&lt;/div&gt;" Function="EN_DIO_Error_T DIO_init(uint8_t pinNumber, EN_DIO_PORT_T portNumber, EN_DIO_DIRECTION_T direction);" tags="Flowchart" id="Pm54L190ve_4c7_TmMwI-215">
          <mxCell style="verticalAlign=middle;align=center;overflow=width;vsdxID=30;fillColor=#dae8fc;shape=stencil(tVLREoIgEPwaHnEQxsl3s/9gEpSJwDko7e+DsEkze2l627vdu5uFRaxyHe8FosR5sCcxqMZ3iO0Rpcp0ApQPCLEasUpaEC3Yi2lS3fOojOhsr3HDmObyMtsVcYqS29Qh5FEfklwrM5OXeUa/yjkcAwfr7TDpiyTfXvjkMR+Vw2A998qaBac5tAKHU1hq3i4oNwjRr9ofvayt/+Rk+yX/4iWA159KpXWKxJx/z0Bopfyw+g4=);strokeColor=#6c8ebf;spacingTop=-1;spacingBottom=-1;spacingLeft=-1;spacingRight=-1;points=[[0.5,1,0],[0.5,0,0],[0,0.5,0],[1,0.5,0]];labelBackgroundColor=none;rounded=1;html=1;whiteSpace=wrap;fontFamily=Calibri;" vertex="1" parent="1">
            <mxGeometry x="-790" y="-1651" width="101" height="38" as="geometry" />
          </mxCell>
        </UserObject>
        <mxCell id="Pm54L190ve_4c7_TmMwI-217" value="APP_receivePANFromTerminal" style="text;whiteSpace=wrap;html=1;fontSize=16;" vertex="1" parent="1">
          <mxGeometry x="-74.49000000000001" y="-2833" width="196" height="41" as="geometry" />
        </mxCell>
        <mxCell id="Pm54L190ve_4c7_TmMwI-218" style="edgeStyle=none;curved=1;rounded=0;orthogonalLoop=1;jettySize=auto;html=1;entryX=0.5;entryY=0;entryDx=0;entryDy=0;entryPerimeter=0;fontSize=12;startSize=8;endSize=8;" edge="1" parent="1" source="Pm54L190ve_4c7_TmMwI-219" target="Pm54L190ve_4c7_TmMwI-222">
          <mxGeometry relative="1" as="geometry" />
        </mxCell>
        <UserObject label="&lt;div style=&quot;font-size: 1px&quot;&gt;&lt;font style=&quot;font-size: 11.29px; direction: ltr; letter-spacing: 0px; line-height: 120%; opacity: 1;&quot;&gt;Start&lt;br&gt;&lt;/font&gt;&lt;/div&gt;" Function="EN_DIO_Error_T DIO_init(uint8_t pinNumber, EN_DIO_PORT_T portNumber, EN_DIO_DIRECTION_T direction);" tags="Flowchart" id="Pm54L190ve_4c7_TmMwI-219">
          <mxCell style="verticalAlign=middle;align=center;overflow=width;vsdxID=30;fillColor=#dae8fc;shape=stencil(tVLREoIgEPwaHnEQxsl3s/9gEpSJwDko7e+DsEkze2l627vdu5uFRaxyHe8FosR5sCcxqMZ3iO0Rpcp0ApQPCLEasUpaEC3Yi2lS3fOojOhsr3HDmObyMtsVcYqS29Qh5FEfklwrM5OXeUa/yjkcAwfr7TDpiyTfXvjkMR+Vw2A998qaBac5tAKHU1hq3i4oNwjRr9ofvayt/+Rk+yX/4iWA159KpXWKxJx/z0Bopfyw+g4=);strokeColor=#6c8ebf;spacingTop=-1;spacingBottom=-1;spacingLeft=-1;spacingRight=-1;points=[[0.5,1,0],[0.5,0,0],[0,0.5,0],[1,0.5,0]];labelBackgroundColor=none;rounded=1;html=1;whiteSpace=wrap;fontFamily=Calibri;" vertex="1" parent="1">
            <mxGeometry x="-26.99000000000001" y="-2752" width="101" height="38" as="geometry" />
          </mxCell>
        </UserObject>
        <mxCell id="Pm54L190ve_4c7_TmMwI-220" style="edgeStyle=none;curved=1;rounded=0;orthogonalLoop=1;jettySize=auto;html=1;fontSize=12;startSize=8;endSize=8;exitX=0.5;exitY=1;exitDx=0;exitDy=0;exitPerimeter=0;" edge="1" parent="1" source="Pm54L190ve_4c7_TmMwI-254" target="Pm54L190ve_4c7_TmMwI-225">
          <mxGeometry relative="1" as="geometry">
            <mxPoint x="23.500000000000455" y="-2518" as="sourcePoint" />
          </mxGeometry>
        </mxCell>
        <mxCell id="Pm54L190ve_4c7_TmMwI-221" style="edgeStyle=none;curved=1;rounded=0;orthogonalLoop=1;jettySize=auto;html=1;entryX=0.5;entryY=0;entryDx=0;entryDy=0;entryPerimeter=0;fontSize=12;startSize=8;endSize=8;" edge="1" parent="1" source="Pm54L190ve_4c7_TmMwI-222" target="Pm54L190ve_4c7_TmMwI-254">
          <mxGeometry relative="1" as="geometry" />
        </mxCell>
        <UserObject label="" Function="EN_DIO_Error_T DIO_init(uint8_t pinNumber, EN_DIO_PORT_T portNumber, EN_DIO_DIRECTION_T direction);" tags="Flowchart" id="Pm54L190ve_4c7_TmMwI-222">
          <mxCell style="vsdxID=219;fillColor=#fff2cc;shape=stencil(UzV2Ls5ILEhVNTIoLinKz04tz0wpyVA1dlE1MsrMy0gtyiwBslSNXVWNndPyi1LTi/JL81Ig/IJEkEoQKze/DGRCBUSfAUiHkUElhGcK4bpBVOZk5iGpNEVVikeloQHZpsK0YlWLz1QgA+HFtMycHEgIIcujBwlQCBKcxq4A);strokeColor=#d6b656;spacingTop=-1;spacingBottom=-1;spacingLeft=-1;spacingRight=-1;points=[[0,0.5,0],[1,0.5,0],[0.5,0,0],[0.5,1,0]];labelBackgroundColor=none;rounded=1;html=1;whiteSpace=wrap;fontFamily=Calibri;" vertex="1" parent="1">
            <mxGeometry x="-27" y="-2682" width="101" height="76" as="geometry" />
          </mxCell>
        </UserObject>
        <mxCell id="Pm54L190ve_4c7_TmMwI-223" value="&lt;font style=&quot;font-size: 11.29px;&quot;&gt;&lt;i&gt;validPINsFlag&lt;/i&gt; =&amp;nbsp;&lt;br&gt;&lt;i&gt;FLAG_DOWN&lt;/i&gt;&lt;/font&gt;" style="text;vsdxID=219;fillColor=none;gradientColor=none;strokeColor=none;spacingTop=-1;spacingBottom=-1;spacingLeft=-1;spacingRight=-1;points=[[0,0.5,0],[1,0.5,0],[0.5,0,0],[0.5,1,0]];labelBackgroundColor=none;rounded=1;html=1;whiteSpace=wrap;verticalAlign=middle;align=center;overflow=width;;html=1;fontColor=#000000;fontFamily=Calibri;" vertex="1" parent="Pm54L190ve_4c7_TmMwI-222">
          <mxGeometry x="8.17" y="9.43" width="84.67" height="57.15" as="geometry" />
        </mxCell>
        <mxCell id="Pm54L190ve_4c7_TmMwI-262" style="edgeStyle=none;curved=1;rounded=0;orthogonalLoop=1;jettySize=auto;html=1;fontSize=12;startSize=8;endSize=8;" edge="1" parent="1" source="Pm54L190ve_4c7_TmMwI-225" target="Pm54L190ve_4c7_TmMwI-261">
          <mxGeometry relative="1" as="geometry" />
        </mxCell>
        <UserObject label="&lt;div style=&quot;&quot;&gt;Display &quot;Please Enter New PIN&quot;&lt;i style=&quot;font-size: 11.29px;&quot;&gt;&amp;nbsp;&lt;/i&gt;&lt;/div&gt;&lt;div style=&quot;&quot;&gt;&lt;span style=&quot;font-size: 11.29px;&quot;&gt;on &lt;/span&gt;&lt;i style=&quot;font-size: 11.29px;&quot;&gt;UART,&lt;/i&gt;&lt;span style=&quot;font-size: 11.29px;&quot;&gt; using &lt;/span&gt;&lt;i style=&quot;font-size: 11.29px;&quot;&gt;UART_transmitString&lt;/i&gt;&lt;span style=&quot;font-size: 11.29px;&quot;&gt;&amp;nbsp;function&lt;/span&gt;&lt;/div&gt;" Function="EN_DIO_Error_T DIO_toggle(uint8_t pinNumber, EN_DIO_PORT_T portNumber);  " tags="Flowchart" id="Pm54L190ve_4c7_TmMwI-225">
          <mxCell style="verticalAlign=middle;align=center;overflow=width;vsdxID=274;fillColor=#d5e8d4;shape=stencil(nZBLDoAgDERP0z3SIyjew0SURgSD+Lu9kMZoXLhwN9O+tukAlrNpJg1SzDH4QW/URgNYgZTkjA4UkwJUgGXng+6DX1zLfmoymdXo17xh5zmRJ6Q42BWCfc2oJfdAr+Yv+AP9Cb7OJ3H/2JG1HNGz/84klThPVCc=);strokeColor=#82b366;spacingTop=-1;spacingBottom=-1;spacingLeft=-1;spacingRight=-1;points=[[0,0.5,0],[1,0.5,0],[0.5,1,0],[0.5,0,0]];labelBackgroundColor=none;rounded=1;html=1;whiteSpace=wrap;fontFamily=Calibri;" vertex="1" parent="1">
            <mxGeometry x="-66.5" y="-2499" width="180" height="60" as="geometry" />
          </mxCell>
        </UserObject>
        <mxCell id="Pm54L190ve_4c7_TmMwI-226" style="edgeStyle=none;curved=1;rounded=0;orthogonalLoop=1;jettySize=auto;html=1;entryX=0.5;entryY=0;entryDx=0;entryDy=0;entryPerimeter=0;fontSize=12;startSize=8;endSize=8;" edge="1" parent="1" source="Pm54L190ve_4c7_TmMwI-227" target="Pm54L190ve_4c7_TmMwI-230">
          <mxGeometry relative="1" as="geometry" />
        </mxCell>
        <mxCell id="Pm54L190ve_4c7_TmMwI-281" style="edgeStyle=orthogonalEdgeStyle;rounded=1;orthogonalLoop=1;jettySize=auto;html=1;exitX=1;exitY=0.5;exitDx=0;exitDy=0;exitPerimeter=0;entryX=0.5;entryY=0;entryDx=0;entryDy=0;entryPerimeter=0;fontSize=12;startSize=8;endSize=8;elbow=vertical;" edge="1" parent="1" source="Pm54L190ve_4c7_TmMwI-227" target="Pm54L190ve_4c7_TmMwI-265">
          <mxGeometry relative="1" as="geometry">
            <Array as="points">
              <mxPoint x="162" y="-2295" />
              <mxPoint x="162" y="-2008" />
              <mxPoint x="24" y="-2008" />
            </Array>
          </mxGeometry>
        </mxCell>
        <UserObject label="" Function="EN_DIO_Error_T DIO_init(uint8_t pinNumber, EN_DIO_PORT_T portNumber, EN_DIO_DIRECTION_T direction);" tags="Flowchart" id="Pm54L190ve_4c7_TmMwI-227">
          <mxCell style="vsdxID=219;fillColor=#fff2cc;shape=stencil(UzV2Ls5ILEhVNTIoLinKz04tz0wpyVA1dlE1MsrMy0gtyiwBslSNXVWNndPyi1LTi/JL81Ig/IJEkEoQKze/DGRCBUSfAUiHkUElhGcK4bpBVOZk5iGpNEVVikeloQHZpsK0YlWLz1QgA+HFtMycHEgIIcujBwlQCBKcxq4A);strokeColor=#d6b656;spacingTop=-1;spacingBottom=-1;spacingLeft=-1;spacingRight=-1;points=[[0,0.5,0],[1,0.5,0],[0.5,0,0],[0.5,1,0]];labelBackgroundColor=none;rounded=1;html=1;whiteSpace=wrap;fontFamily=Calibri;" vertex="1" parent="1">
            <mxGeometry x="-27" y="-2333" width="101" height="76" as="geometry" />
          </mxCell>
        </UserObject>
        <mxCell id="Pm54L190ve_4c7_TmMwI-228" value="&lt;font style=&quot;font-size: 11.29px;&quot;&gt;&lt;i&gt;recData&lt;/i&gt;&amp;nbsp;=&amp;nbsp;&lt;br&gt;&lt;i style=&quot;font-size: 11.29px;&quot;&gt;ENTER_CHAR&lt;/i&gt;&lt;/font&gt;" style="text;vsdxID=219;fillColor=none;gradientColor=none;strokeColor=none;spacingTop=-1;spacingBottom=-1;spacingLeft=-1;spacingRight=-1;points=[[0,0.5,0],[1,0.5,0],[0.5,0,0],[0.5,1,0]];labelBackgroundColor=none;rounded=1;html=1;whiteSpace=wrap;verticalAlign=middle;align=center;overflow=width;;html=1;fontColor=#000000;fontFamily=Calibri;" vertex="1" parent="Pm54L190ve_4c7_TmMwI-227">
          <mxGeometry x="8.17" y="9.43" width="84.67" height="57.15" as="geometry" />
        </mxCell>
        <mxCell id="Pm54L190ve_4c7_TmMwI-229" style="edgeStyle=none;curved=1;rounded=0;orthogonalLoop=1;jettySize=auto;html=1;fontSize=12;startSize=8;endSize=8;" edge="1" parent="1" source="Pm54L190ve_4c7_TmMwI-230" target="Pm54L190ve_4c7_TmMwI-232">
          <mxGeometry relative="1" as="geometry" />
        </mxCell>
        <UserObject label="&lt;div style=&quot;font-size: 11.29px;&quot;&gt;Get&amp;nbsp;&lt;i style=&quot;border-color: var(--border-color); font-size: 11.29px;&quot;&gt;recData&lt;/i&gt;&lt;span style=&quot;font-size: 11.29px;&quot;&gt;&lt;i&gt;&amp;nbsp;&lt;/i&gt;on &lt;i&gt;UART,&lt;/i&gt; using &lt;i&gt;UART_receiveByteBlock &lt;/i&gt;function&lt;/span&gt;&lt;/div&gt;" Function="EN_DIO_Error_T DIO_toggle(uint8_t pinNumber, EN_DIO_PORT_T portNumber);  " tags="Flowchart" id="Pm54L190ve_4c7_TmMwI-230">
          <mxCell style="verticalAlign=middle;align=center;overflow=width;vsdxID=274;fillColor=#d5e8d4;shape=stencil(nZBLDoAgDERP0z3SIyjew0SURgSD+Lu9kMZoXLhwN9O+tukAlrNpJg1SzDH4QW/URgNYgZTkjA4UkwJUgGXng+6DX1zLfmoymdXo17xh5zmRJ6Q42BWCfc2oJfdAr+Yv+AP9Cb7OJ3H/2JG1HNGz/84klThPVCc=);strokeColor=#82b366;spacingTop=-1;spacingBottom=-1;spacingLeft=-1;spacingRight=-1;points=[[0,0.5,0],[1,0.5,0],[0.5,1,0],[0.5,0,0]];labelBackgroundColor=none;rounded=1;html=1;whiteSpace=wrap;fontFamily=Calibri;" vertex="1" parent="1">
            <mxGeometry x="-66.49000000000001" y="-2220" width="180" height="45" as="geometry" />
          </mxCell>
        </UserObject>
        <mxCell id="Pm54L190ve_4c7_TmMwI-231" style="edgeStyle=none;curved=1;rounded=0;orthogonalLoop=1;jettySize=auto;html=1;entryX=0.5;entryY=0;entryDx=0;entryDy=0;entryPerimeter=0;fontSize=12;startSize=8;endSize=8;" edge="1" parent="1" source="Pm54L190ve_4c7_TmMwI-232" target="Pm54L190ve_4c7_TmMwI-234">
          <mxGeometry relative="1" as="geometry" />
        </mxCell>
        <UserObject label="&lt;div style=&quot;font-size: 11.29px;&quot;&gt;&lt;font style=&quot;font-size: 11.29px;&quot;&gt;Store&amp;nbsp;&lt;i style=&quot;border-color: var(--border-color);&quot;&gt;recData&lt;/i&gt;&amp;nbsp;in &lt;i&gt;newPIN1&lt;/i&gt;&amp;nbsp;string&amp;nbsp;&lt;/font&gt;&lt;/div&gt;&lt;div style=&quot;font-size: 11.29px;&quot;&gt;&lt;font style=&quot;font-size: 11.29px;&quot;&gt;using &lt;i style=&quot;&quot;&gt;index&lt;/i&gt;&lt;/font&gt;&lt;/div&gt;" Function="EN_DIO_Error_T DIO_toggle(uint8_t pinNumber, EN_DIO_PORT_T portNumber);  " tags="Flowchart" id="Pm54L190ve_4c7_TmMwI-232">
          <mxCell style="verticalAlign=middle;align=center;overflow=width;vsdxID=274;fillColor=#d5e8d4;shape=stencil(nZBLDoAgDERP0z3SIyjew0SURgSD+Lu9kMZoXLhwN9O+tukAlrNpJg1SzDH4QW/URgNYgZTkjA4UkwJUgGXng+6DX1zLfmoymdXo17xh5zmRJ6Q42BWCfc2oJfdAr+Yv+AP9Cb7OJ3H/2JG1HNGz/84klThPVCc=);strokeColor=#82b366;spacingTop=-1;spacingBottom=-1;spacingLeft=-1;spacingRight=-1;points=[[0,0.5,0],[1,0.5,0],[0.5,1,0],[0.5,0,0]];labelBackgroundColor=none;rounded=1;html=1;whiteSpace=wrap;fontFamily=Calibri;" vertex="1" parent="1">
            <mxGeometry x="-66.5" y="-2144" width="180" height="45" as="geometry" />
          </mxCell>
        </UserObject>
        <mxCell id="Pm54L190ve_4c7_TmMwI-233" style="edgeStyle=orthogonalEdgeStyle;rounded=1;orthogonalLoop=1;jettySize=auto;html=1;entryX=0;entryY=0.5;entryDx=0;entryDy=0;entryPerimeter=0;fontSize=12;startSize=8;endSize=8;exitX=0;exitY=0.5;exitDx=0;exitDy=0;exitPerimeter=0;" edge="1" parent="1" source="Pm54L190ve_4c7_TmMwI-234" target="Pm54L190ve_4c7_TmMwI-227">
          <mxGeometry relative="1" as="geometry">
            <Array as="points">
              <mxPoint x="-94" y="-2050" />
              <mxPoint x="-94" y="-2295" />
            </Array>
          </mxGeometry>
        </mxCell>
        <UserObject label="&lt;div style=&quot;font-size: 11.29px;&quot;&gt;Increment &lt;i&gt;index&lt;/i&gt;&lt;/div&gt;" Function="EN_DIO_Error_T DIO_toggle(uint8_t pinNumber, EN_DIO_PORT_T portNumber);  " tags="Flowchart" id="Pm54L190ve_4c7_TmMwI-234">
          <mxCell style="verticalAlign=middle;align=center;overflow=width;vsdxID=274;fillColor=#d5e8d4;shape=stencil(nZBLDoAgDERP0z3SIyjew0SURgSD+Lu9kMZoXLhwN9O+tukAlrNpJg1SzDH4QW/URgNYgZTkjA4UkwJUgGXng+6DX1zLfmoymdXo17xh5zmRJ6Q42BWCfc2oJfdAr+Yv+AP9Cb7OJ3H/2JG1HNGz/84klThPVCc=);strokeColor=#82b366;spacingTop=-1;spacingBottom=-1;spacingLeft=-1;spacingRight=-1;points=[[0,0.5,0],[1,0.5,0],[0.5,1,0],[0.5,0,0]];labelBackgroundColor=none;rounded=1;html=1;whiteSpace=wrap;fontFamily=Calibri;" vertex="1" parent="1">
            <mxGeometry x="-66.5" y="-2068" width="180" height="35" as="geometry" />
          </mxCell>
        </UserObject>
        <mxCell id="Pm54L190ve_4c7_TmMwI-235" value="&lt;font style=&quot;font-size: 11px;&quot;&gt;No&lt;/font&gt;" style="text;whiteSpace=wrap;html=1;fontSize=16;" vertex="1" parent="1">
          <mxGeometry x="33" y="-2261" width="21" height="29" as="geometry" />
        </mxCell>
        <mxCell id="Pm54L190ve_4c7_TmMwI-241" value="&lt;font style=&quot;font-size: 11px;&quot;&gt;Yes&lt;/font&gt;" style="text;whiteSpace=wrap;html=1;fontSize=16;" vertex="1" parent="1">
          <mxGeometry x="108" y="-2322" width="21" height="29" as="geometry" />
        </mxCell>
        <UserObject label="&lt;div style=&quot;font-size: 11.29px;&quot;&gt;Update&amp;nbsp;&lt;i style=&quot;border-color: var(--border-color);&quot;&gt;validPINsFlag&lt;/i&gt;&amp;nbsp;=&amp;nbsp;&lt;i style=&quot;border-color: var(--border-color);&quot;&gt;FLAG_UP&lt;/i&gt;&lt;br&gt;&lt;/div&gt;" Function="EN_DIO_Error_T DIO_toggle(uint8_t pinNumber, EN_DIO_PORT_T portNumber);  " tags="Flowchart" id="Pm54L190ve_4c7_TmMwI-254">
          <mxCell style="verticalAlign=middle;align=center;overflow=width;vsdxID=274;fillColor=#d5e8d4;shape=stencil(nZBLDoAgDERP0z3SIyjew0SURgSD+Lu9kMZoXLhwN9O+tukAlrNpJg1SzDH4QW/URgNYgZTkjA4UkwJUgGXng+6DX1zLfmoymdXo17xh5zmRJ6Q42BWCfc2oJfdAr+Yv+AP9Cb7OJ3H/2JG1HNGz/84klThPVCc=);strokeColor=#82b366;spacingTop=-1;spacingBottom=-1;spacingLeft=-1;spacingRight=-1;points=[[0,0.5,0],[1,0.5,0],[0.5,1,0],[0.5,0,0]];labelBackgroundColor=none;rounded=1;html=1;whiteSpace=wrap;fontFamily=Calibri;" vertex="1" parent="1">
            <mxGeometry x="-66.5" y="-2567" width="180" height="35" as="geometry" />
          </mxCell>
        </UserObject>
        <mxCell id="Pm54L190ve_4c7_TmMwI-255" value="&lt;font style=&quot;font-size: 11px;&quot;&gt;Yes&lt;/font&gt;" style="text;whiteSpace=wrap;html=1;fontSize=16;" vertex="1" parent="1">
          <mxGeometry x="33" y="-2606" width="21" height="29" as="geometry" />
        </mxCell>
        <mxCell id="Pm54L190ve_4c7_TmMwI-256" style="edgeStyle=orthogonalEdgeStyle;rounded=1;orthogonalLoop=1;jettySize=auto;html=1;fontSize=12;startSize=8;endSize=8;exitX=0;exitY=0.5;exitDx=0;exitDy=0;exitPerimeter=0;" edge="1" parent="1" source="Pm54L190ve_4c7_TmMwI-222" target="Pm54L190ve_4c7_TmMwI-314">
          <mxGeometry relative="1" as="geometry">
            <Array as="points">
              <mxPoint x="-122" y="-2644" />
              <mxPoint x="-122" y="-1120" />
            </Array>
            <mxPoint x="-79" y="-1027" as="targetPoint" />
          </mxGeometry>
        </mxCell>
        <mxCell id="Pm54L190ve_4c7_TmMwI-257" value="&lt;font style=&quot;font-size: 11px;&quot;&gt;No&lt;/font&gt;" style="text;whiteSpace=wrap;html=1;fontSize=16;" vertex="1" parent="1">
          <mxGeometry x="-79" y="-2673" width="21" height="29" as="geometry" />
        </mxCell>
        <mxCell id="Pm54L190ve_4c7_TmMwI-263" style="edgeStyle=none;curved=1;rounded=0;orthogonalLoop=1;jettySize=auto;html=1;entryX=0.5;entryY=0;entryDx=0;entryDy=0;entryPerimeter=0;fontSize=12;startSize=8;endSize=8;" edge="1" parent="1" source="Pm54L190ve_4c7_TmMwI-261" target="Pm54L190ve_4c7_TmMwI-227">
          <mxGeometry relative="1" as="geometry" />
        </mxCell>
        <UserObject label="&lt;div style=&quot;font-size: 11.29px;&quot;&gt;Update&amp;nbsp;&lt;i&gt;index &lt;/i&gt;value = 0&lt;/div&gt;" Function="EN_DIO_Error_T DIO_toggle(uint8_t pinNumber, EN_DIO_PORT_T portNumber);  " tags="Flowchart" id="Pm54L190ve_4c7_TmMwI-261">
          <mxCell style="verticalAlign=middle;align=center;overflow=width;vsdxID=274;fillColor=#d5e8d4;shape=stencil(nZBLDoAgDERP0z3SIyjew0SURgSD+Lu9kMZoXLhwN9O+tukAlrNpJg1SzDH4QW/URgNYgZTkjA4UkwJUgGXng+6DX1zLfmoymdXo17xh5zmRJ6Q42BWCfc2oJfdAr+Yv+AP9Cb7OJ3H/2JG1HNGz/84klThPVCc=);strokeColor=#82b366;spacingTop=-1;spacingBottom=-1;spacingLeft=-1;spacingRight=-1;points=[[0,0.5,0],[1,0.5,0],[0.5,1,0],[0.5,0,0]];labelBackgroundColor=none;rounded=1;html=1;whiteSpace=wrap;fontFamily=Calibri;" vertex="1" parent="1">
            <mxGeometry x="-66.5" y="-2405" width="180" height="35" as="geometry" />
          </mxCell>
        </UserObject>
        <mxCell id="Pm54L190ve_4c7_TmMwI-264" style="edgeStyle=none;curved=1;rounded=0;orthogonalLoop=1;jettySize=auto;html=1;fontSize=12;startSize=8;endSize=8;" edge="1" parent="1" source="Pm54L190ve_4c7_TmMwI-265" target="Pm54L190ve_4c7_TmMwI-279">
          <mxGeometry relative="1" as="geometry" />
        </mxCell>
        <UserObject label="&lt;div style=&quot;&quot;&gt;Display &quot;Please Confirm New PIN&quot;&lt;i style=&quot;font-size: 11.29px;&quot;&gt;&amp;nbsp;&lt;/i&gt;&lt;/div&gt;&lt;div style=&quot;&quot;&gt;&lt;span style=&quot;font-size: 11.29px;&quot;&gt;on &lt;/span&gt;&lt;i style=&quot;font-size: 11.29px;&quot;&gt;UART,&lt;/i&gt;&lt;span style=&quot;font-size: 11.29px;&quot;&gt; using &lt;/span&gt;&lt;i style=&quot;font-size: 11.29px;&quot;&gt;UART_transmitString&lt;/i&gt;&lt;span style=&quot;font-size: 11.29px;&quot;&gt;&amp;nbsp;function&lt;/span&gt;&lt;/div&gt;" Function="EN_DIO_Error_T DIO_toggle(uint8_t pinNumber, EN_DIO_PORT_T portNumber);  " tags="Flowchart" id="Pm54L190ve_4c7_TmMwI-265">
          <mxCell style="verticalAlign=middle;align=center;overflow=width;vsdxID=274;fillColor=#d5e8d4;shape=stencil(nZBLDoAgDERP0z3SIyjew0SURgSD+Lu9kMZoXLhwN9O+tukAlrNpJg1SzDH4QW/URgNYgZTkjA4UkwJUgGXng+6DX1zLfmoymdXo17xh5zmRJ6Q42BWCfc2oJfdAr+Yv+AP9Cb7OJ3H/2JG1HNGz/84klThPVCc=);strokeColor=#82b366;spacingTop=-1;spacingBottom=-1;spacingLeft=-1;spacingRight=-1;points=[[0,0.5,0],[1,0.5,0],[0.5,1,0],[0.5,0,0]];labelBackgroundColor=none;rounded=1;html=1;whiteSpace=wrap;fontFamily=Calibri;" vertex="1" parent="1">
            <mxGeometry x="-66.5" y="-1985" width="180" height="60" as="geometry" />
          </mxCell>
        </UserObject>
        <mxCell id="Pm54L190ve_4c7_TmMwI-266" style="edgeStyle=none;curved=1;rounded=0;orthogonalLoop=1;jettySize=auto;html=1;entryX=0.5;entryY=0;entryDx=0;entryDy=0;entryPerimeter=0;fontSize=12;startSize=8;endSize=8;" edge="1" parent="1" source="Pm54L190ve_4c7_TmMwI-267" target="Pm54L190ve_4c7_TmMwI-270">
          <mxGeometry relative="1" as="geometry" />
        </mxCell>
        <mxCell id="Pm54L190ve_4c7_TmMwI-287" style="edgeStyle=orthogonalEdgeStyle;rounded=1;orthogonalLoop=1;jettySize=auto;html=1;entryX=0.5;entryY=0;entryDx=0;entryDy=0;entryPerimeter=0;fontSize=12;startSize=8;endSize=8;exitX=1;exitY=0.5;exitDx=0;exitDy=0;exitPerimeter=0;" edge="1" parent="1" source="Pm54L190ve_4c7_TmMwI-267" target="Pm54L190ve_4c7_TmMwI-282">
          <mxGeometry relative="1" as="geometry">
            <Array as="points">
              <mxPoint x="161" y="-1779" />
              <mxPoint x="161" y="-1497" />
              <mxPoint x="23" y="-1497" />
            </Array>
          </mxGeometry>
        </mxCell>
        <UserObject label="" Function="EN_DIO_Error_T DIO_init(uint8_t pinNumber, EN_DIO_PORT_T portNumber, EN_DIO_DIRECTION_T direction);" tags="Flowchart" id="Pm54L190ve_4c7_TmMwI-267">
          <mxCell style="vsdxID=219;fillColor=#fff2cc;shape=stencil(UzV2Ls5ILEhVNTIoLinKz04tz0wpyVA1dlE1MsrMy0gtyiwBslSNXVWNndPyi1LTi/JL81Ig/IJEkEoQKze/DGRCBUSfAUiHkUElhGcK4bpBVOZk5iGpNEVVikeloQHZpsK0YlWLz1QgA+HFtMycHEgIIcujBwlQCBKcxq4A);strokeColor=#d6b656;spacingTop=-1;spacingBottom=-1;spacingLeft=-1;spacingRight=-1;points=[[0,0.5,0],[1,0.5,0],[0.5,0,0],[0.5,1,0]];labelBackgroundColor=none;rounded=1;html=1;whiteSpace=wrap;fontFamily=Calibri;" vertex="1" parent="1">
            <mxGeometry x="-27" y="-1817" width="101" height="76" as="geometry" />
          </mxCell>
        </UserObject>
        <mxCell id="Pm54L190ve_4c7_TmMwI-268" value="&lt;font style=&quot;font-size: 11.29px;&quot;&gt;&lt;i&gt;recData&lt;/i&gt;&amp;nbsp;=&amp;nbsp;&lt;br&gt;&lt;i style=&quot;font-size: 11.29px;&quot;&gt;ENTER_CHAR&lt;/i&gt;&lt;/font&gt;" style="text;vsdxID=219;fillColor=none;gradientColor=none;strokeColor=none;spacingTop=-1;spacingBottom=-1;spacingLeft=-1;spacingRight=-1;points=[[0,0.5,0],[1,0.5,0],[0.5,0,0],[0.5,1,0]];labelBackgroundColor=none;rounded=1;html=1;whiteSpace=wrap;verticalAlign=middle;align=center;overflow=width;;html=1;fontColor=#000000;fontFamily=Calibri;" vertex="1" parent="Pm54L190ve_4c7_TmMwI-267">
          <mxGeometry x="8.17" y="9.43" width="84.67" height="57.15" as="geometry" />
        </mxCell>
        <mxCell id="Pm54L190ve_4c7_TmMwI-269" style="edgeStyle=none;curved=1;rounded=0;orthogonalLoop=1;jettySize=auto;html=1;fontSize=12;startSize=8;endSize=8;" edge="1" parent="1" source="Pm54L190ve_4c7_TmMwI-270" target="Pm54L190ve_4c7_TmMwI-272">
          <mxGeometry relative="1" as="geometry" />
        </mxCell>
        <UserObject label="&lt;div style=&quot;font-size: 11.29px;&quot;&gt;Get&amp;nbsp;&lt;i style=&quot;border-color: var(--border-color); font-size: 11.29px;&quot;&gt;recData&lt;/i&gt;&lt;span style=&quot;font-size: 11.29px;&quot;&gt;&lt;i&gt;&amp;nbsp;&lt;/i&gt;on &lt;i&gt;UART,&lt;/i&gt; using &lt;i&gt;UART_receiveByteBlock &lt;/i&gt;function&lt;/span&gt;&lt;/div&gt;" Function="EN_DIO_Error_T DIO_toggle(uint8_t pinNumber, EN_DIO_PORT_T portNumber);  " tags="Flowchart" id="Pm54L190ve_4c7_TmMwI-270">
          <mxCell style="verticalAlign=middle;align=center;overflow=width;vsdxID=274;fillColor=#d5e8d4;shape=stencil(nZBLDoAgDERP0z3SIyjew0SURgSD+Lu9kMZoXLhwN9O+tukAlrNpJg1SzDH4QW/URgNYgZTkjA4UkwJUgGXng+6DX1zLfmoymdXo17xh5zmRJ6Q42BWCfc2oJfdAr+Yv+AP9Cb7OJ3H/2JG1HNGz/84klThPVCc=);strokeColor=#82b366;spacingTop=-1;spacingBottom=-1;spacingLeft=-1;spacingRight=-1;points=[[0,0.5,0],[1,0.5,0],[0.5,1,0],[0.5,0,0]];labelBackgroundColor=none;rounded=1;html=1;whiteSpace=wrap;fontFamily=Calibri;" vertex="1" parent="1">
            <mxGeometry x="-66.49000000000001" y="-1703" width="180" height="45" as="geometry" />
          </mxCell>
        </UserObject>
        <mxCell id="Pm54L190ve_4c7_TmMwI-271" style="edgeStyle=none;curved=1;rounded=0;orthogonalLoop=1;jettySize=auto;html=1;entryX=0.5;entryY=0;entryDx=0;entryDy=0;entryPerimeter=0;fontSize=12;startSize=8;endSize=8;" edge="1" parent="1" source="Pm54L190ve_4c7_TmMwI-272" target="Pm54L190ve_4c7_TmMwI-274">
          <mxGeometry relative="1" as="geometry" />
        </mxCell>
        <UserObject label="&lt;div style=&quot;font-size: 11.29px;&quot;&gt;&lt;font style=&quot;font-size: 11.29px;&quot;&gt;Store&amp;nbsp;&lt;i style=&quot;border-color: var(--border-color);&quot;&gt;recData&lt;/i&gt;&amp;nbsp;in &lt;i&gt;newPIN2&lt;/i&gt;&amp;nbsp;string&amp;nbsp;&lt;/font&gt;&lt;/div&gt;&lt;div style=&quot;font-size: 11.29px;&quot;&gt;&lt;font style=&quot;font-size: 11.29px;&quot;&gt;using &lt;i style=&quot;&quot;&gt;index&lt;/i&gt;&lt;/font&gt;&lt;/div&gt;" Function="EN_DIO_Error_T DIO_toggle(uint8_t pinNumber, EN_DIO_PORT_T portNumber);  " tags="Flowchart" id="Pm54L190ve_4c7_TmMwI-272">
          <mxCell style="verticalAlign=middle;align=center;overflow=width;vsdxID=274;fillColor=#d5e8d4;shape=stencil(nZBLDoAgDERP0z3SIyjew0SURgSD+Lu9kMZoXLhwN9O+tukAlrNpJg1SzDH4QW/URgNYgZTkjA4UkwJUgGXng+6DX1zLfmoymdXo17xh5zmRJ6Q42BWCfc2oJfdAr+Yv+AP9Cb7OJ3H/2JG1HNGz/84klThPVCc=);strokeColor=#82b366;spacingTop=-1;spacingBottom=-1;spacingLeft=-1;spacingRight=-1;points=[[0,0.5,0],[1,0.5,0],[0.5,1,0],[0.5,0,0]];labelBackgroundColor=none;rounded=1;html=1;whiteSpace=wrap;fontFamily=Calibri;" vertex="1" parent="1">
            <mxGeometry x="-66.5" y="-1628" width="180" height="45" as="geometry" />
          </mxCell>
        </UserObject>
        <mxCell id="Pm54L190ve_4c7_TmMwI-273" style="edgeStyle=orthogonalEdgeStyle;rounded=1;orthogonalLoop=1;jettySize=auto;html=1;entryX=0;entryY=0.5;entryDx=0;entryDy=0;entryPerimeter=0;fontSize=12;startSize=8;endSize=8;exitX=0;exitY=0.5;exitDx=0;exitDy=0;exitPerimeter=0;" edge="1" parent="1" source="Pm54L190ve_4c7_TmMwI-274" target="Pm54L190ve_4c7_TmMwI-267">
          <mxGeometry relative="1" as="geometry">
            <Array as="points">
              <mxPoint x="-93" y="-1534" />
              <mxPoint x="-93" y="-1779" />
            </Array>
          </mxGeometry>
        </mxCell>
        <UserObject label="&lt;div style=&quot;font-size: 11.29px;&quot;&gt;Increment &lt;i&gt;index&lt;/i&gt;&lt;/div&gt;" Function="EN_DIO_Error_T DIO_toggle(uint8_t pinNumber, EN_DIO_PORT_T portNumber);  " tags="Flowchart" id="Pm54L190ve_4c7_TmMwI-274">
          <mxCell style="verticalAlign=middle;align=center;overflow=width;vsdxID=274;fillColor=#d5e8d4;shape=stencil(nZBLDoAgDERP0z3SIyjew0SURgSD+Lu9kMZoXLhwN9O+tukAlrNpJg1SzDH4QW/URgNYgZTkjA4UkwJUgGXng+6DX1zLfmoymdXo17xh5zmRJ6Q42BWCfc2oJfdAr+Yv+AP9Cb7OJ3H/2JG1HNGz/84klThPVCc=);strokeColor=#82b366;spacingTop=-1;spacingBottom=-1;spacingLeft=-1;spacingRight=-1;points=[[0,0.5,0],[1,0.5,0],[0.5,1,0],[0.5,0,0]];labelBackgroundColor=none;rounded=1;html=1;whiteSpace=wrap;fontFamily=Calibri;" vertex="1" parent="1">
            <mxGeometry x="-66.49" y="-1553" width="180" height="35" as="geometry" />
          </mxCell>
        </UserObject>
        <mxCell id="Pm54L190ve_4c7_TmMwI-275" value="&lt;font style=&quot;font-size: 11px;&quot;&gt;No&lt;/font&gt;" style="text;whiteSpace=wrap;html=1;fontSize=16;" vertex="1" parent="1">
          <mxGeometry x="34" y="-1745" width="21" height="29" as="geometry" />
        </mxCell>
        <mxCell id="Pm54L190ve_4c7_TmMwI-277" value="&lt;font style=&quot;font-size: 11px;&quot;&gt;Yes&lt;/font&gt;" style="text;whiteSpace=wrap;html=1;fontSize=16;" vertex="1" parent="1">
          <mxGeometry x="109" y="-1806" width="21" height="29" as="geometry" />
        </mxCell>
        <mxCell id="Pm54L190ve_4c7_TmMwI-278" style="edgeStyle=none;curved=1;rounded=0;orthogonalLoop=1;jettySize=auto;html=1;entryX=0.5;entryY=0;entryDx=0;entryDy=0;entryPerimeter=0;fontSize=12;startSize=8;endSize=8;" edge="1" parent="1" source="Pm54L190ve_4c7_TmMwI-279" target="Pm54L190ve_4c7_TmMwI-267">
          <mxGeometry relative="1" as="geometry" />
        </mxCell>
        <UserObject label="&lt;div style=&quot;font-size: 11.29px;&quot;&gt;Update&amp;nbsp;&lt;i&gt;index &lt;/i&gt;value = 0&lt;/div&gt;" Function="EN_DIO_Error_T DIO_toggle(uint8_t pinNumber, EN_DIO_PORT_T portNumber);  " tags="Flowchart" id="Pm54L190ve_4c7_TmMwI-279">
          <mxCell style="verticalAlign=middle;align=center;overflow=width;vsdxID=274;fillColor=#d5e8d4;shape=stencil(nZBLDoAgDERP0z3SIyjew0SURgSD+Lu9kMZoXLhwN9O+tukAlrNpJg1SzDH4QW/URgNYgZTkjA4UkwJUgGXng+6DX1zLfmoymdXo17xh5zmRJ6Q42BWCfc2oJfdAr+Yv+AP9Cb7OJ3H/2JG1HNGz/84klThPVCc=);strokeColor=#82b366;spacingTop=-1;spacingBottom=-1;spacingLeft=-1;spacingRight=-1;points=[[0,0.5,0],[1,0.5,0],[0.5,1,0],[0.5,0,0]];labelBackgroundColor=none;rounded=1;html=1;whiteSpace=wrap;fontFamily=Calibri;" vertex="1" parent="1">
            <mxGeometry x="-66.5" y="-1889" width="180" height="35" as="geometry" />
          </mxCell>
        </UserObject>
        <mxCell id="Pm54L190ve_4c7_TmMwI-292" style="edgeStyle=none;curved=1;rounded=0;orthogonalLoop=1;jettySize=auto;html=1;entryX=0.5;entryY=0;entryDx=0;entryDy=0;entryPerimeter=0;fontSize=12;startSize=8;endSize=8;" edge="1" parent="1" source="Pm54L190ve_4c7_TmMwI-282" target="Pm54L190ve_4c7_TmMwI-290">
          <mxGeometry relative="1" as="geometry" />
        </mxCell>
        <mxCell id="Pm54L190ve_4c7_TmMwI-299" style="edgeStyle=none;curved=1;rounded=0;orthogonalLoop=1;jettySize=auto;html=1;fontSize=12;startSize=8;endSize=8;" edge="1" parent="1" source="Pm54L190ve_4c7_TmMwI-282" target="Pm54L190ve_4c7_TmMwI-288">
          <mxGeometry relative="1" as="geometry" />
        </mxCell>
        <UserObject label="" Function="EN_DIO_Error_T DIO_init(uint8_t pinNumber, EN_DIO_PORT_T portNumber, EN_DIO_DIRECTION_T direction);" tags="Flowchart" id="Pm54L190ve_4c7_TmMwI-282">
          <mxCell style="vsdxID=219;fillColor=#fff2cc;shape=stencil(UzV2Ls5ILEhVNTIoLinKz04tz0wpyVA1dlE1MsrMy0gtyiwBslSNXVWNndPyi1LTi/JL81Ig/IJEkEoQKze/DGRCBUSfAUiHkUElhGcK4bpBVOZk5iGpNEVVikeloQHZpsK0YlWLz1QgA+HFtMycHEgIIcujBwlQCBKcxq4A);strokeColor=#d6b656;spacingTop=-1;spacingBottom=-1;spacingLeft=-1;spacingRight=-1;points=[[0,0.5,0],[1,0.5,0],[0.5,0,0],[0.5,1,0]];labelBackgroundColor=none;rounded=1;html=1;whiteSpace=wrap;fontFamily=Calibri;" vertex="1" parent="1">
            <mxGeometry x="-27.000000000000004" y="-1470.5" width="101" height="76" as="geometry" />
          </mxCell>
        </UserObject>
        <mxCell id="Pm54L190ve_4c7_TmMwI-283" value="&lt;font style=&quot;font-size: 11.29px;&quot;&gt;Two &lt;i&gt;PIN&lt;/i&gt;s are identical&lt;/font&gt;" style="text;vsdxID=219;fillColor=none;gradientColor=none;strokeColor=none;spacingTop=-1;spacingBottom=-1;spacingLeft=-1;spacingRight=-1;points=[[0,0.5,0],[1,0.5,0],[0.5,0,0],[0.5,1,0]];labelBackgroundColor=none;rounded=1;html=1;whiteSpace=wrap;verticalAlign=middle;align=center;overflow=width;;html=1;fontColor=#000000;fontFamily=Calibri;" vertex="1" parent="Pm54L190ve_4c7_TmMwI-282">
          <mxGeometry x="8.17" y="9.43" width="84.67" height="57.15" as="geometry" />
        </mxCell>
        <mxCell id="Pm54L190ve_4c7_TmMwI-308" style="edgeStyle=none;curved=1;rounded=0;orthogonalLoop=1;jettySize=auto;html=1;fontSize=12;startSize=8;endSize=8;" edge="1" parent="1" source="Pm54L190ve_4c7_TmMwI-288">
          <mxGeometry relative="1" as="geometry">
            <mxPoint x="388" y="-1432" as="targetPoint" />
          </mxGeometry>
        </mxCell>
        <UserObject label="&lt;div style=&quot;font-size: 11.29px;&quot;&gt;Display &quot;Wrong PIN [Non Idendical]&quot;&lt;i style=&quot;font-size: 11.29px;&quot;&gt; &lt;/i&gt;&lt;span style=&quot;font-size: 11.29px;&quot;&gt;on &lt;/span&gt;&lt;i style=&quot;font-size: 11.29px;&quot;&gt;UART,&lt;/i&gt;&lt;span style=&quot;font-size: 11.29px;&quot;&gt; using &lt;/span&gt;&lt;i style=&quot;font-size: 11.29px;&quot;&gt;UART_transmitString&lt;/i&gt;&lt;span style=&quot;font-size: 11.29px;&quot;&gt;&amp;nbsp;function&lt;/span&gt;&lt;/div&gt;&lt;div style=&quot;font-size: 11.29px;&quot;&gt;&lt;span style=&quot;font-size: 11.29px;&quot;&gt;Update &lt;i&gt;validPINsFlag&lt;/i&gt; = &lt;i&gt;FLAG_DOWN&lt;/i&gt;&lt;/span&gt;&lt;/div&gt;" Function="EN_DIO_Error_T DIO_toggle(uint8_t pinNumber, EN_DIO_PORT_T portNumber);  " tags="Flowchart" id="Pm54L190ve_4c7_TmMwI-288">
          <mxCell style="verticalAlign=middle;align=center;overflow=width;vsdxID=274;fillColor=#d5e8d4;shape=stencil(nZBLDoAgDERP0z3SIyjew0SURgSD+Lu9kMZoXLhwN9O+tukAlrNpJg1SzDH4QW/URgNYgZTkjA4UkwJUgGXng+6DX1zLfmoymdXo17xh5zmRJ6Q42BWCfc2oJfdAr+Yv+AP9Cb7OJ3H/2JG1HNGz/84klThPVCc=);strokeColor=#82b366;spacingTop=-1;spacingBottom=-1;spacingLeft=-1;spacingRight=-1;points=[[0,0.5,0],[1,0.5,0],[0.5,1,0],[0.5,0,0]];labelBackgroundColor=none;rounded=1;html=1;whiteSpace=wrap;fontFamily=Calibri;" vertex="1" parent="1">
            <mxGeometry x="180" y="-1465" width="180" height="65" as="geometry" />
          </mxCell>
        </UserObject>
        <mxCell id="Pm54L190ve_4c7_TmMwI-297" style="edgeStyle=none;curved=1;rounded=0;orthogonalLoop=1;jettySize=auto;html=1;entryX=0.5;entryY=0;entryDx=0;entryDy=0;entryPerimeter=0;fontSize=12;startSize=8;endSize=8;" edge="1" parent="1" source="Pm54L190ve_4c7_TmMwI-290" target="Pm54L190ve_4c7_TmMwI-295">
          <mxGeometry relative="1" as="geometry" />
        </mxCell>
        <mxCell id="Pm54L190ve_4c7_TmMwI-300" value="" style="edgeStyle=none;curved=1;rounded=0;orthogonalLoop=1;jettySize=auto;html=1;fontSize=12;startSize=8;endSize=8;" edge="1" parent="1" source="Pm54L190ve_4c7_TmMwI-290" target="Pm54L190ve_4c7_TmMwI-293">
          <mxGeometry relative="1" as="geometry" />
        </mxCell>
        <UserObject label="" Function="EN_DIO_Error_T DIO_init(uint8_t pinNumber, EN_DIO_PORT_T portNumber, EN_DIO_DIRECTION_T direction);" tags="Flowchart" id="Pm54L190ve_4c7_TmMwI-290">
          <mxCell style="vsdxID=219;fillColor=#fff2cc;shape=stencil(UzV2Ls5ILEhVNTIoLinKz04tz0wpyVA1dlE1MsrMy0gtyiwBslSNXVWNndPyi1LTi/JL81Ig/IJEkEoQKze/DGRCBUSfAUiHkUElhGcK4bpBVOZk5iGpNEVVikeloQHZpsK0YlWLz1QgA+HFtMycHEgIIcujBwlQCBKcxq4A);strokeColor=#d6b656;spacingTop=-1;spacingBottom=-1;spacingLeft=-1;spacingRight=-1;points=[[0,0.5,0],[1,0.5,0],[0.5,0,0],[0.5,1,0]];labelBackgroundColor=none;rounded=1;html=1;whiteSpace=wrap;fontFamily=Calibri;" vertex="1" parent="1">
            <mxGeometry x="-26.999999999999996" y="-1364" width="101" height="76" as="geometry" />
          </mxCell>
        </UserObject>
        <mxCell id="Pm54L190ve_4c7_TmMwI-291" value="&lt;i style=&quot;border-color: var(--border-color); font-size: 11.29px;&quot;&gt;PIN&lt;/i&gt;&amp;nbsp;is a numeric value" style="text;vsdxID=219;fillColor=none;gradientColor=none;strokeColor=none;spacingTop=-1;spacingBottom=-1;spacingLeft=-1;spacingRight=-1;points=[[0,0.5,0],[1,0.5,0],[0.5,0,0],[0.5,1,0]];labelBackgroundColor=none;rounded=1;html=1;whiteSpace=wrap;verticalAlign=middle;align=center;overflow=width;;html=1;fontColor=#000000;fontFamily=Calibri;" vertex="1" parent="Pm54L190ve_4c7_TmMwI-290">
          <mxGeometry x="8.16" y="13" width="84.67" height="57.15" as="geometry" />
        </mxCell>
        <mxCell id="Pm54L190ve_4c7_TmMwI-307" style="edgeStyle=none;curved=1;rounded=0;orthogonalLoop=1;jettySize=auto;html=1;fontSize=12;startSize=8;endSize=8;" edge="1" parent="1" source="Pm54L190ve_4c7_TmMwI-293">
          <mxGeometry relative="1" as="geometry">
            <mxPoint x="387.8001302083335" y="-1326" as="targetPoint" />
          </mxGeometry>
        </mxCell>
        <UserObject label="&lt;div style=&quot;font-size: 11.29px;&quot;&gt;Display &quot;Wrong PIN [Non Numeric]&quot;&lt;i style=&quot;font-size: 11.29px;&quot;&gt;&amp;nbsp;&lt;/i&gt;&lt;/div&gt;&lt;div style=&quot;font-size: 11.29px;&quot;&gt;&lt;span style=&quot;font-size: 11.29px;&quot;&gt;on &lt;/span&gt;&lt;i style=&quot;font-size: 11.29px;&quot;&gt;UART,&lt;/i&gt;&lt;span style=&quot;font-size: 11.29px;&quot;&gt; using &lt;/span&gt;&lt;i style=&quot;font-size: 11.29px;&quot;&gt;UART_transmitString&lt;/i&gt;&lt;span style=&quot;font-size: 11.29px;&quot;&gt;&amp;nbsp;function&lt;/span&gt;&lt;/div&gt;&lt;div style=&quot;font-size: 11.29px;&quot;&gt;&lt;span style=&quot;font-size: 11.29px;&quot;&gt;Update &lt;i&gt;validPINsFlag&lt;/i&gt; = &lt;i&gt;FLAG_DOWN&lt;/i&gt;&lt;/span&gt;&lt;/div&gt;" Function="EN_DIO_Error_T DIO_toggle(uint8_t pinNumber, EN_DIO_PORT_T portNumber);  " tags="Flowchart" id="Pm54L190ve_4c7_TmMwI-293">
          <mxCell style="verticalAlign=middle;align=center;overflow=width;vsdxID=274;fillColor=#d5e8d4;shape=stencil(nZBLDoAgDERP0z3SIyjew0SURgSD+Lu9kMZoXLhwN9O+tukAlrNpJg1SzDH4QW/URgNYgZTkjA4UkwJUgGXng+6DX1zLfmoymdXo17xh5zmRJ6Q42BWCfc2oJfdAr+Yv+AP9Cb7OJ3H/2JG1HNGz/84klThPVCc=);strokeColor=#82b366;spacingTop=-1;spacingBottom=-1;spacingLeft=-1;spacingRight=-1;points=[[0,0.5,0],[1,0.5,0],[0.5,1,0],[0.5,0,0]];labelBackgroundColor=none;rounded=1;html=1;whiteSpace=wrap;fontFamily=Calibri;" vertex="1" parent="1">
            <mxGeometry x="180" y="-1358.5" width="180" height="65" as="geometry" />
          </mxCell>
        </UserObject>
        <mxCell id="Pm54L190ve_4c7_TmMwI-301" style="edgeStyle=none;curved=1;rounded=0;orthogonalLoop=1;jettySize=auto;html=1;fontSize=12;startSize=8;endSize=8;" edge="1" parent="1" source="Pm54L190ve_4c7_TmMwI-295" target="Pm54L190ve_4c7_TmMwI-298">
          <mxGeometry relative="1" as="geometry" />
        </mxCell>
        <UserObject label="" Function="EN_DIO_Error_T DIO_init(uint8_t pinNumber, EN_DIO_PORT_T portNumber, EN_DIO_DIRECTION_T direction);" tags="Flowchart" id="Pm54L190ve_4c7_TmMwI-295">
          <mxCell style="vsdxID=219;fillColor=#fff2cc;shape=stencil(UzV2Ls5ILEhVNTIoLinKz04tz0wpyVA1dlE1MsrMy0gtyiwBslSNXVWNndPyi1LTi/JL81Ig/IJEkEoQKze/DGRCBUSfAUiHkUElhGcK4bpBVOZk5iGpNEVVikeloQHZpsK0YlWLz1QgA+HFtMycHEgIIcujBwlQCBKcxq4A);strokeColor=#d6b656;spacingTop=-1;spacingBottom=-1;spacingLeft=-1;spacingRight=-1;points=[[0,0.5,0],[1,0.5,0],[0.5,0,0],[0.5,1,0]];labelBackgroundColor=none;rounded=1;html=1;whiteSpace=wrap;fontFamily=Calibri;" vertex="1" parent="1">
            <mxGeometry x="-26.99" y="-1258" width="101" height="76" as="geometry" />
          </mxCell>
        </UserObject>
        <mxCell id="Pm54L190ve_4c7_TmMwI-296" value="&lt;i style=&quot;border-color: var(--border-color); font-size: 11.29px;&quot;&gt;PIN&lt;/i&gt;&amp;nbsp;is in valid range" style="text;vsdxID=219;fillColor=none;gradientColor=none;strokeColor=none;spacingTop=-1;spacingBottom=-1;spacingLeft=-1;spacingRight=-1;points=[[0,0.5,0],[1,0.5,0],[0.5,0,0],[0.5,1,0]];labelBackgroundColor=none;rounded=1;html=1;whiteSpace=wrap;verticalAlign=middle;align=center;overflow=width;;html=1;fontColor=#000000;fontFamily=Calibri;" vertex="1" parent="Pm54L190ve_4c7_TmMwI-295">
          <mxGeometry x="8.16" y="13" width="84.67" height="57.15" as="geometry" />
        </mxCell>
        <mxCell id="Pm54L190ve_4c7_TmMwI-305" style="edgeStyle=orthogonalEdgeStyle;rounded=1;orthogonalLoop=1;jettySize=auto;html=1;entryX=1;entryY=0.5;entryDx=0;entryDy=0;entryPerimeter=0;fontSize=12;startSize=8;endSize=8;exitX=1;exitY=0.5;exitDx=0;exitDy=0;exitPerimeter=0;" edge="1" parent="1" source="Pm54L190ve_4c7_TmMwI-298" target="Pm54L190ve_4c7_TmMwI-222">
          <mxGeometry relative="1" as="geometry">
            <Array as="points">
              <mxPoint x="389" y="-1220" />
              <mxPoint x="389" y="-2644" />
            </Array>
          </mxGeometry>
        </mxCell>
        <UserObject label="&lt;div style=&quot;font-size: 11.29px;&quot;&gt;Display &quot;Wrong PIN [Not 4 Digits]&quot;&lt;i style=&quot;font-size: 11.29px;&quot;&gt;&amp;nbsp;&lt;/i&gt;&lt;/div&gt;&lt;div style=&quot;font-size: 11.29px;&quot;&gt;&lt;span style=&quot;font-size: 11.29px;&quot;&gt;on &lt;/span&gt;&lt;i style=&quot;font-size: 11.29px;&quot;&gt;UART,&lt;/i&gt;&lt;span style=&quot;font-size: 11.29px;&quot;&gt; using &lt;/span&gt;&lt;i style=&quot;font-size: 11.29px;&quot;&gt;UART_transmitString&lt;/i&gt;&lt;span style=&quot;font-size: 11.29px;&quot;&gt;&amp;nbsp;function&lt;/span&gt;&lt;/div&gt;&lt;div style=&quot;font-size: 11.29px;&quot;&gt;&lt;span style=&quot;font-size: 11.29px;&quot;&gt;Update &lt;i&gt;validPINsFlag&lt;/i&gt; = &lt;i&gt;FLAG_DOWN&lt;/i&gt;&lt;/span&gt;&lt;/div&gt;" Function="EN_DIO_Error_T DIO_toggle(uint8_t pinNumber, EN_DIO_PORT_T portNumber);  " tags="Flowchart" id="Pm54L190ve_4c7_TmMwI-298">
          <mxCell style="verticalAlign=middle;align=center;overflow=width;vsdxID=274;fillColor=#d5e8d4;shape=stencil(nZBLDoAgDERP0z3SIyjew0SURgSD+Lu9kMZoXLhwN9O+tukAlrNpJg1SzDH4QW/URgNYgZTkjA4UkwJUgGXng+6DX1zLfmoymdXo17xh5zmRJ6Q42BWCfc2oJfdAr+Yv+AP9Cb7OJ3H/2JG1HNGz/84klThPVCc=);strokeColor=#82b366;spacingTop=-1;spacingBottom=-1;spacingLeft=-1;spacingRight=-1;points=[[0,0.5,0],[1,0.5,0],[0.5,1,0],[0.5,0,0]];labelBackgroundColor=none;rounded=1;html=1;whiteSpace=wrap;fontFamily=Calibri;" vertex="1" parent="1">
            <mxGeometry x="180" y="-1252.5" width="180" height="65" as="geometry" />
          </mxCell>
        </UserObject>
        <mxCell id="Pm54L190ve_4c7_TmMwI-302" value="&lt;font style=&quot;font-size: 11px;&quot;&gt;No&lt;/font&gt;" style="text;whiteSpace=wrap;html=1;fontSize=16;" vertex="1" parent="1">
          <mxGeometry x="113.5" y="-1465" width="21" height="29" as="geometry" />
        </mxCell>
        <mxCell id="Pm54L190ve_4c7_TmMwI-303" value="&lt;font style=&quot;font-size: 11px;&quot;&gt;No&lt;/font&gt;" style="text;whiteSpace=wrap;html=1;fontSize=16;" vertex="1" parent="1">
          <mxGeometry x="113.5" y="-1358.5" width="21" height="29" as="geometry" />
        </mxCell>
        <mxCell id="Pm54L190ve_4c7_TmMwI-304" value="&lt;font style=&quot;font-size: 11px;&quot;&gt;No&lt;/font&gt;" style="text;whiteSpace=wrap;html=1;fontSize=16;" vertex="1" parent="1">
          <mxGeometry x="113.5" y="-1252.5" width="21" height="29" as="geometry" />
        </mxCell>
        <mxCell id="Pm54L190ve_4c7_TmMwI-309" value="&lt;font style=&quot;font-size: 11px;&quot;&gt;Yes&lt;/font&gt;" style="text;whiteSpace=wrap;html=1;fontSize=16;" vertex="1" parent="1">
          <mxGeometry x="34" y="-1393" width="23" height="29" as="geometry" />
        </mxCell>
        <mxCell id="Pm54L190ve_4c7_TmMwI-310" value="&lt;font style=&quot;font-size: 11px;&quot;&gt;Yes&lt;/font&gt;" style="text;whiteSpace=wrap;html=1;fontSize=16;" vertex="1" parent="1">
          <mxGeometry x="35" y="-1284" width="21" height="29" as="geometry" />
        </mxCell>
        <mxCell id="Pm54L190ve_4c7_TmMwI-311" style="edgeStyle=none;curved=1;rounded=0;orthogonalLoop=1;jettySize=auto;html=1;entryX=0.5;entryY=0;entryDx=0;entryDy=0;entryPerimeter=0;fontSize=12;startSize=8;endSize=8;" edge="1" parent="1" source="Pm54L190ve_4c7_TmMwI-312" target="Pm54L190ve_4c7_TmMwI-315">
          <mxGeometry relative="1" as="geometry" />
        </mxCell>
        <UserObject label="&lt;div style=&quot;font-size: 11.29px;&quot;&gt;Store&amp;nbsp;&lt;i style=&quot;border-color: var(--border-color);&quot;&gt;newPIN1&lt;/i&gt;&amp;nbsp;i&lt;span style=&quot;font-size: 11.29px;&quot;&gt;n &lt;/span&gt;&lt;i style=&quot;font-size: 11.29px;&quot;&gt;EEPROM,&lt;/i&gt;&lt;span style=&quot;font-size: 11.29px;&quot;&gt; using &lt;/span&gt;&lt;i style=&quot;font-size: 11.29px;&quot;&gt;EEPROM_writeArray&lt;/i&gt;&lt;span style=&quot;font-size: 11.29px;&quot;&gt;&amp;nbsp;function&lt;/span&gt;&lt;/div&gt;" Function="EN_DIO_Error_T DIO_toggle(uint8_t pinNumber, EN_DIO_PORT_T portNumber);  " tags="Flowchart" id="Pm54L190ve_4c7_TmMwI-312">
          <mxCell style="verticalAlign=middle;align=center;overflow=width;vsdxID=274;fillColor=#d5e8d4;shape=stencil(nZBLDoAgDERP0z3SIyjew0SURgSD+Lu9kMZoXLhwN9O+tukAlrNpJg1SzDH4QW/URgNYgZTkjA4UkwJUgGXng+6DX1zLfmoymdXo17xh5zmRJ6Q42BWCfc2oJfdAr+Yv+AP9Cb7OJ3H/2JG1HNGz/84klThPVCc=);strokeColor=#82b366;spacingTop=-1;spacingBottom=-1;spacingLeft=-1;spacingRight=-1;points=[[0,0.5,0],[1,0.5,0],[0.5,1,0],[0.5,0,0]];labelBackgroundColor=none;rounded=1;html=1;whiteSpace=wrap;fontFamily=Calibri;" vertex="1" parent="1">
            <mxGeometry x="-66.49" y="-1053" width="180" height="45" as="geometry" />
          </mxCell>
        </UserObject>
        <mxCell id="Pm54L190ve_4c7_TmMwI-313" style="edgeStyle=none;curved=1;rounded=0;orthogonalLoop=1;jettySize=auto;html=1;entryX=0.5;entryY=0;entryDx=0;entryDy=0;entryPerimeter=0;fontSize=12;startSize=8;endSize=8;" edge="1" parent="1" source="Pm54L190ve_4c7_TmMwI-314" target="Pm54L190ve_4c7_TmMwI-312">
          <mxGeometry relative="1" as="geometry" />
        </mxCell>
        <UserObject label="&lt;div style=&quot;font-size: 11.29px;&quot;&gt;Display &quot;PIN is saved successfully&quot;&lt;i style=&quot;font-size: 11.29px;&quot;&gt;&amp;nbsp;&lt;/i&gt;&lt;/div&gt;&lt;div style=&quot;font-size: 11.29px;&quot;&gt;&lt;span style=&quot;font-size: 11.29px;&quot;&gt;on &lt;/span&gt;&lt;i style=&quot;font-size: 11.29px;&quot;&gt;UART,&lt;/i&gt;&lt;span style=&quot;font-size: 11.29px;&quot;&gt; using &lt;/span&gt;&lt;i style=&quot;font-size: 11.29px;&quot;&gt;UART_transmitString&lt;/i&gt;&lt;span style=&quot;font-size: 11.29px;&quot;&gt;&amp;nbsp;function&lt;/span&gt;&lt;/div&gt;" Function="EN_DIO_Error_T DIO_toggle(uint8_t pinNumber, EN_DIO_PORT_T portNumber);  " tags="Flowchart" id="Pm54L190ve_4c7_TmMwI-314">
          <mxCell style="verticalAlign=middle;align=center;overflow=width;vsdxID=274;fillColor=#d5e8d4;shape=stencil(nZBLDoAgDERP0z3SIyjew0SURgSD+Lu9kMZoXLhwN9O+tukAlrNpJg1SzDH4QW/URgNYgZTkjA4UkwJUgGXng+6DX1zLfmoymdXo17xh5zmRJ6Q42BWCfc2oJfdAr+Yv+AP9Cb7OJ3H/2JG1HNGz/84klThPVCc=);strokeColor=#82b366;spacingTop=-1;spacingBottom=-1;spacingLeft=-1;spacingRight=-1;points=[[0,0.5,0],[1,0.5,0],[0.5,1,0],[0.5,0,0]];labelBackgroundColor=none;rounded=1;html=1;whiteSpace=wrap;fontFamily=Calibri;" vertex="1" parent="1">
            <mxGeometry x="-66.49" y="-1152" width="180" height="60" as="geometry" />
          </mxCell>
        </UserObject>
        <UserObject label="&lt;div style=&quot;font-size: 1px&quot;&gt;&lt;font style=&quot;font-size: 11.29px; direction: ltr; letter-spacing: 0px; line-height: 120%; opacity: 1;&quot;&gt;Return&lt;br&gt;&lt;/font&gt;&lt;/div&gt;" Function="EN_DIO_Error_T DIO_init(uint8_t pinNumber, EN_DIO_PORT_T portNumber, EN_DIO_DIRECTION_T direction);" tags="Flowchart" id="Pm54L190ve_4c7_TmMwI-315">
          <mxCell style="verticalAlign=middle;align=center;overflow=width;vsdxID=30;fillColor=#dae8fc;shape=stencil(tVLREoIgEPwaHnEQxsl3s/9gEpSJwDko7e+DsEkze2l627vdu5uFRaxyHe8FosR5sCcxqMZ3iO0Rpcp0ApQPCLEasUpaEC3Yi2lS3fOojOhsr3HDmObyMtsVcYqS29Qh5FEfklwrM5OXeUa/yjkcAwfr7TDpiyTfXvjkMR+Vw2A998qaBac5tAKHU1hq3i4oNwjRr9ofvayt/+Rk+yX/4iWA159KpXWKxJx/z0Bopfyw+g4=);strokeColor=#6c8ebf;spacingTop=-1;spacingBottom=-1;spacingLeft=-1;spacingRight=-1;points=[[0.5,1,0],[0.5,0,0],[0,0.5,0],[1,0.5,0]];labelBackgroundColor=none;rounded=1;html=1;whiteSpace=wrap;fontFamily=Calibri;" vertex="1" parent="1">
            <mxGeometry x="-26.990000000000002" y="-971" width="101" height="38" as="geometry" />
          </mxCell>
        </UserObject>
      </root>
    </mxGraphModel>
  </diagram>
</mxfile>
